<svg version="1.1" viewBox="0.0 0.0 600.0 371.0" fill="none" stroke="none" stroke-linecap="square" stroke-miterlimit="10" width="600" height="371" xmlns:xlink="http://www.w3.org/1999/xlink" xmlns="http://www.w3.org/2000/svg"><path fill="#ffffff" d="M0 0L600.0 0L600.0 371.0L0 371.0L0 0Z" fill-rule="nonzero"/><path stroke="#cccccc" stroke-width="1.0" stroke-linecap="butt" d="M143.5 111.5L143.5 300.5" fill-rule="nonzero"/><path stroke="#cccccc" stroke-width="1.0" stroke-linecap="butt" d="M268.5 111.5L268.5 300.5" fill-rule="nonzero"/><path stroke="#cccccc" stroke-width="1.0" stroke-linecap="butt" d="M394.5 111.5L394.5 300.5" fill-rule="nonzero"/><path stroke="#cccccc" stroke-width="1.0" stroke-linecap="butt" d="M519.5 111.5L519.5 300.5" fill-rule="nonzero"/><path stroke="#333333" stroke-width="1.0" stroke-linecap="butt" d="M80.5 300.5L519.5 300.5" fill-rule="nonzero"/><path stroke="#cccccc" stroke-width="1.0" stroke-linecap="butt" d="M80.5 237.5L519.5 237.5" fill-rule="nonzero"/><path stroke="#cccccc" stroke-width="1.0" stroke-linecap="butt" d="M80.5 174.5L519.5 174.5" fill-rule="nonzero"/><path stroke="#cccccc" stroke-width="1.0" stroke-linecap="butt" d="M80.5 111.5L519.5 111.5" fill-rule="nonzero"/><clipPath id="id_0"><path d="M80.55 111.78333L519.45 111.78333L519.45 300.45L80.55 300.45L80.55 111.78333Z" clip-rule="nonzero"/></clipPath><path stroke="#608f66" stroke-width="2.0" stroke-linecap="butt" clip-path="url(#id_0)" d="M80.55 269.00555C80.55 269.00555 205.95 227.98164 268.65 208.733C331.35 189.48436 519.45 135.10728 519.45 135.10728" fill-rule="nonzero"/><path stroke="#274766" stroke-width="2.0" stroke-linecap="butt" clip-path="url(#id_0)" d="M80.55 111.78333C80.55 111.78333 205.95 152.66324 268.65 162.8745C331.35 173.08575 519.45 176.44296 519.45 176.44296" fill-rule="nonzero"/><path fill="#000000" fill-opacity="0.0" clip-path="url(#id_0)" d="M83.55 269.00555C83.55 270.6624 82.206856 272.00555 80.55 272.00555C78.89314 272.00555 77.55 270.6624 77.55 269.00555C77.55 267.3487 78.89314 266.00555 80.55 266.00555C82.206856 266.00555 83.55 267.3487 83.55 269.00555Z" fill-rule="nonzero"/><path fill="#000000" fill-opacity="0.0" clip-path="url(#id_0)" d="M271.65 208.733C271.65 210.38985 270.30685 211.733 268.65 211.733C266.99313 211.733 265.65 210.38985 265.65 208.733C265.65 207.07614 266.99313 205.733 268.65 205.733C270.30685 205.733 271.65 207.07614 271.65 208.733Z" fill-rule="nonzero"/><path fill="#000000" fill-opacity="0.0" clip-path="url(#id_0)" d="M522.45 135.10728C522.45 136.76414 521.1069 138.10728 519.45 138.10728C517.79315 138.10728 516.45 136.76414 516.45 135.10728C516.45 133.45044 517.79315 132.10728 519.45 132.10728C521.1069 132.10728 522.45 133.45044 522.45 135.10728Z" fill-rule="nonzero"/><path fill="#000000" fill-opacity="0.0" clip-path="url(#id_0)" d="M83.55 111.78333C83.55 113.440186 82.206856 114.78333 80.55 114.78333C78.89314 114.78333 77.55 113.440186 77.55 111.78333C77.55 110.12648 78.89314 108.78333 80.55 108.78333C82.206856 108.78333 83.55 110.12648 83.55 111.78333Z" fill-rule="nonzero"/><path fill="#000000" fill-opacity="0.0" clip-path="url(#id_0)" d="M271.65 162.8745C271.65 164.53136 270.30685 165.8745 268.65 165.8745C266.99313 165.8745 265.65 164.53136 265.65 162.8745C265.65 161.21765 266.99313 159.8745 268.65 159.8745C270.30685 159.8745 271.65 161.21765 271.65 162.8745Z" fill-rule="nonzero"/><path fill="#000000" fill-opacity="0.0" clip-path="url(#id_0)" d="M522.45 176.44296C522.45 178.09982 521.1069 179.44296 519.45 179.44296C517.79315 179.44296 516.45 178.09982 516.45 176.44296C516.45 174.78612 517.79315 173.44296 519.45 173.44296C521.1069 173.44296 522.45 174.78612 522.45 176.44296Z" fill-rule="nonzero"/><path fill="#242f26" d="M279.3125 349.45L279.3125 342.3094L276.76562 342.3094L276.76562 340.85626L283.57812 340.85626L283.57812 342.3094L281.04688 342.3094L281.04688 349.45L279.3125 349.45ZM286.0 340.85626L286.0 344.0125Q286.79688 343.09064 287.90625 343.09064Q288.46875 343.09064 288.92188 343.3094Q289.39062 343.5125 289.625 343.84064Q289.85938 344.16876 289.9375 344.575Q290.01562 344.96564 290.01562 345.79376L290.01562 349.45L288.375 349.45L288.375 346.16876Q288.375 345.1844 288.28125 344.91876Q288.1875 344.65314 287.95312 344.4969Q287.71875 344.34064 287.35938 344.34064Q286.95312 344.34064 286.625 344.54376Q286.29688 344.7469 286.14062 345.15314Q286.0 345.54376 286.0 346.325L286.0 349.45L284.35938 349.45L284.35938 340.85626L286.0 340.85626ZM292.9375 349.45L291.29688 349.45L291.29688 343.23126L292.82812 343.23126L292.82812 344.10626Q293.21875 343.48126 293.53125 343.29376Q293.84375 343.09064 294.23438 343.09064Q294.79688 343.09064 295.32812 343.40314L294.8125 344.825Q294.39062 344.5594 294.04688 344.5594Q293.6875 344.5594 293.45312 344.7625Q293.21875 344.95 293.07812 345.45Q292.9375 345.9344 292.9375 347.52814L292.9375 349.45ZM299.96875 347.46564L301.60938 347.7469Q301.29688 348.65314 300.60938 349.1219Q299.92188 349.59064 298.90625 349.59064Q297.28125 349.59064 296.5 348.52814Q295.875 347.6844 295.875 346.3875Q295.875 344.84064 296.6875 343.96564Q297.5 343.09064 298.73438 343.09064Q300.125 343.09064 300.92188 344.0125Q301.73438 344.91876 301.6875 346.8094L297.5625 346.8094Q297.59375 347.54376 297.96875 347.95Q298.34375 348.35626 298.92188 348.35626Q299.29688 348.35626 299.5625 348.15314Q299.82812 347.9344 299.96875 347.46564ZM300.0625 345.8094Q300.04688 345.09064 299.6875 344.71564Q299.34375 344.34064 298.82812 344.34064Q298.29688 344.34064 297.9375 344.73126Q297.59375 345.1375 297.59375 345.8094L300.0625 345.8094ZM304.59375 345.1219L303.09375 344.85626Q303.34375 343.95 303.95312 343.52814Q304.57812 343.09064 305.79688 343.09064Q306.89062 343.09064 307.42188 343.35626Q307.96875 343.60626 308.1875 344.0125Q308.40625 344.40314 308.40625 345.48126L308.39062 347.40314Q308.39062 348.23126 308.46875 348.6219Q308.54688 348.9969 308.76562 349.45L307.14062 349.45Q307.07812 349.27814 306.98438 348.96564Q306.9375 348.8094 306.92188 348.7625Q306.5 349.1844 306.01562 349.3875Q305.54688 349.59064 305.0 349.59064Q304.03125 349.59064 303.46875 349.075Q302.92188 348.54376 302.92188 347.7469Q302.92188 347.21564 303.17188 346.8094Q303.4375 346.40314 303.89062 346.1844Q304.34375 345.95 305.20312 345.79376Q306.34375 345.575 306.79688 345.3875L306.79688 345.23126Q306.79688 344.7469 306.5625 344.54376Q306.32812 344.34064 305.67188 344.34064Q305.23438 344.34064 304.98438 344.5125Q304.75 344.6844 304.59375 345.1219ZM306.79688 346.46564Q306.48438 346.5594 305.79688 346.71564Q305.10938 346.85626 304.89062 346.9969Q304.57812 347.23126 304.57812 347.575Q304.57812 347.91876 304.82812 348.1844Q305.09375 348.4344 305.48438 348.4344Q305.9375 348.4344 306.34375 348.1375Q306.64062 347.91876 306.73438 347.59064Q306.79688 347.3875 306.79688 346.79376L306.79688 346.46564ZM316.0625 349.45L314.54688 349.45L314.54688 348.52814Q314.15625 349.075 313.64062 349.34064Q313.125 349.59064 312.59375 349.59064Q311.51562 349.59064 310.75 348.73126Q310.0 347.85626 310.0 346.3094Q310.0 344.73126 310.73438 343.91876Q311.48438 343.09064 312.625 343.09064Q313.65625 343.09064 314.42188 343.95L314.42188 340.85626L316.0625 340.85626L316.0625 349.45ZM311.67188 346.2Q311.67188 347.2 311.95312 347.6375Q312.34375 348.29376 313.0625 348.29376Q313.625 348.29376 314.01562 347.8094Q314.42188 347.325 314.42188 346.35626Q314.42188 345.29376 314.03125 344.825Q313.65625 344.34064 313.04688 344.34064Q312.46875 344.34064 312.0625 344.8094Q311.67188 345.27814 311.67188 346.2ZM316.78125 347.66876L318.4375 347.41876Q318.54688 347.90314 318.85938 348.15314Q319.1875 348.40314 319.76562 348.40314Q320.40625 348.40314 320.71875 348.16876Q320.9375 347.9969 320.9375 347.73126Q320.9375 347.54376 320.82812 347.41876Q320.70312 347.29376 320.28125 347.2Q318.28125 346.7625 317.75 346.40314Q317.01562 345.8875 317.01562 344.9969Q317.01562 344.1844 317.64062 343.6375Q318.28125 343.09064 319.625 343.09064Q320.90625 343.09064 321.53125 343.5125Q322.15625 343.91876 322.39062 344.73126L320.82812 345.0125Q320.73438 344.65314 320.45312 344.46564Q320.17188 344.2625 319.65625 344.2625Q319.01562 344.2625 318.73438 344.45Q318.54688 344.575 318.54688 344.77814Q318.54688 344.96564 318.70312 345.09064Q318.92188 345.2469 320.23438 345.54376Q321.5625 345.84064 322.07812 346.27814Q322.59375 346.71564 322.59375 347.4969Q322.59375 348.35626 321.875 348.98126Q321.17188 349.59064 319.76562 349.59064Q318.5 349.59064 317.75 349.075Q317.01562 348.5594 316.78125 347.66876Z" fill-rule="nonzero"/><path fill="#242f26" d="M26.753138 237.17917L26.596888 235.49167Q27.440638 235.33542 27.846888 234.8823Q28.237513 234.41354 28.237513 233.61667Q28.237513 232.78854 27.893763 232.36667Q27.534388 231.92917 27.050013 231.92917Q26.753138 231.92917 26.534388 232.11667Q26.315638 232.28854 26.159388 232.74167Q26.050013 233.03854 25.784388 234.11667Q25.440638 235.52292 24.940638 236.08542Q24.221888 236.86667 23.206263 236.86667Q22.550013 236.86667 21.987513 236.5073Q21.409388 236.1323 21.112513 235.42917Q20.815638 234.72604 20.815638 233.74167Q20.815638 232.11667 21.534388 231.30417Q22.237513 230.49167 23.409388 230.4448L23.487513 232.17917Q22.831263 232.28854 22.550013 232.66354Q22.253138 233.02292 22.253138 233.7573Q22.253138 234.5073 22.565638 234.9448Q22.753138 235.21042 23.096888 235.21042Q23.393763 235.21042 23.612513 234.96042Q23.893763 234.6323 24.190638 233.36667Q24.487513 232.10104 24.815638 231.49167Q25.128138 230.8823 25.690638 230.53854Q26.237513 230.1948 27.050013 230.1948Q27.784388 230.1948 28.440638 230.61667Q29.081263 231.02292 29.393763 231.77292Q29.706263 232.52292 29.706263 233.6323Q29.706263 235.27292 28.956263 236.14792Q28.190638 237.0073 26.753138 237.17917ZM23.331263 228.80417L23.331263 227.27292L24.237513 227.27292Q23.768763 226.96042 23.487513 226.46042Q23.190638 225.9448 23.190638 225.3198Q23.190638 224.24167 24.034388 223.49167Q24.878138 222.72604 26.409388 222.72604Q27.956263 222.72604 28.831263 223.49167Q29.690638 224.2573 29.690638 225.33542Q29.690638 225.85104 29.487513 226.27292Q29.284388 226.6948 28.784388 227.14792L31.925013 227.14792L31.925013 228.80417L23.331263 228.80417ZM26.331263 227.17917Q27.378138 227.17917 27.878138 226.7573Q28.378138 226.33542 28.378138 225.74167Q28.378138 225.16354 27.925013 224.78854Q27.456263 224.41354 26.409388 224.41354Q25.440638 224.41354 24.971888 224.80417Q24.487513 225.1948 24.487513 225.77292Q24.487513 226.3823 24.956263 226.78854Q25.425013 227.17917 26.331263 227.17917ZM27.565638 218.14792L27.846888 216.5073Q28.753138 216.8198 29.221888 217.5073Q29.690638 218.1948 29.690638 219.21042Q29.690638 220.83542 28.628138 221.61667Q27.784388 222.24167 26.487513 222.24167Q24.940638 222.24167 24.065638 221.42917Q23.190638 220.61667 23.190638 219.3823Q23.190638 217.99167 24.112513 217.1948Q25.018763 216.3823 26.909388 216.42917L26.909388 220.55417Q27.643763 220.52292 28.050013 220.14792Q28.456263 219.77292 28.456263 219.1948Q28.456263 218.8198 28.253138 218.55417Q28.034388 218.28854 27.565638 218.14792ZM25.909388 218.05417Q25.190638 218.0698 24.815638 218.42917Q24.440638 218.77292 24.440638 219.28854Q24.440638 219.8198 24.831263 220.17917Q25.237513 220.52292 25.909388 220.52292L25.909388 218.05417ZM27.565638 211.14792L27.846888 209.5073Q28.753138 209.8198 29.221888 210.5073Q29.690638 211.1948 29.690638 212.21042Q29.690638 213.83542 28.628138 214.61667Q27.784388 215.24167 26.487513 215.24167Q24.940638 215.24167 24.065638 214.42917Q23.190638 213.61667 23.190638 212.3823Q23.190638 210.99167 24.112513 210.1948Q25.018763 209.3823 26.909388 209.42917L26.909388 213.55417Q27.643763 213.52292 28.050013 213.14792Q28.456263 212.77292 28.456263 212.1948Q28.456263 211.8198 28.253138 211.55417Q28.034388 211.28854 27.565638 211.14792ZM25.909388 211.05417Q25.190638 211.0698 24.815638 211.42917Q24.440638 211.77292 24.440638 212.28854Q24.440638 212.8198 24.831263 213.17917Q25.237513 213.52292 25.909388 213.52292L25.909388 211.05417ZM29.550013 202.05417L29.550013 203.5698L28.628138 203.5698Q29.175013 203.96042 29.440638 204.47604Q29.690638 204.99167 29.690638 205.52292Q29.690638 206.60104 28.831263 207.36667Q27.956263 208.11667 26.409388 208.11667Q24.831263 208.11667 24.018763 207.3823Q23.190638 206.6323 23.190638 205.49167Q23.190638 204.46042 24.050013 203.6948L20.956263 203.6948L20.956263 202.05417L29.550013 202.05417ZM26.300013 206.4448Q27.300013 206.4448 27.737513 206.16354Q28.393763 205.77292 28.393763 205.05417Q28.393763 204.49167 27.909388 204.10104Q27.425013 203.6948 26.456263 203.6948Q25.393763 203.6948 24.925013 204.08542Q24.440638 204.46042 24.440638 205.0698Q24.440638 205.64792 24.909388 206.05417Q25.378138 206.4448 26.300013 206.4448ZM29.550013 196.66354L28.612513 196.66354Q29.112513 196.99167 29.409388 197.55417Q29.690638 198.10104 29.690638 198.72604Q29.690638 199.35104 29.425013 199.85104Q29.143763 200.35104 28.643763 200.5698Q28.143763 200.78854 27.268763 200.78854L23.331263 200.78854L23.331263 199.14792L26.190638 199.14792Q27.503138 199.14792 27.800013 199.05417Q28.096888 198.96042 28.268763 198.72604Q28.440638 198.47604 28.440638 198.11667Q28.440638 197.6948 28.206263 197.36667Q27.971888 197.02292 27.628138 196.89792Q27.284388 196.77292 25.956263 196.77292L23.331263 196.77292L23.331263 195.1323L29.550013 195.1323L29.550013 196.66354ZM23.331263 193.80417L23.331263 192.27292L24.237513 192.27292Q23.768763 191.96042 23.487513 191.46042Q23.190638 190.9448 23.190638 190.3198Q23.190638 189.24167 24.034388 188.49167Q24.878138 187.72604 26.409388 187.72604Q27.956263 187.72604 28.831263 188.49167Q29.690638 189.2573 29.690638 190.33542Q29.690638 190.85104 29.487513 191.27292Q29.284388 191.6948 28.784388 192.14792L31.925013 192.14792L31.925013 193.80417L23.331263 193.80417ZM26.331263 192.17917Q27.378138 192.17917 27.878138 191.7573Q28.378138 191.33542 28.378138 190.74167Q28.378138 190.16354 27.925013 189.78854Q27.456263 189.41354 26.409388 189.41354Q25.440638 189.41354 24.971888 189.80417Q24.487513 190.1948 24.487513 190.77292Q24.487513 191.3823 24.956263 191.78854Q25.425013 192.17917 26.331263 192.17917Z" fill-rule="nonzero"/><path fill="#242f26" d="M578.45 237.74167L569.85626 237.74167L569.85626 231.36667L571.3094 231.36667L571.3094 236.0073L573.21564 236.0073L573.21564 231.6948L574.66876 231.6948L574.66876 236.0073L576.9969 236.0073L576.9969 231.21042L578.45 231.21042L578.45 237.74167ZM572.23126 231.47604L572.23126 230.55417L571.7625 230.55417Q570.96564 230.55417 570.59064 230.39792Q570.2 230.22604 569.96564 229.78854Q569.71564 229.33542 569.71564 228.64792Q569.71564 227.9448 569.91876 227.27292L571.075 227.49167Q570.98126 227.8823 570.98126 228.24167Q570.98126 228.60104 571.15314 228.7573Q571.3094 228.91354 571.79376 228.91354L572.23126 228.91354L572.23126 227.67917L573.52814 227.67917L573.52814 228.91354L578.45 228.91354L578.45 230.55417L573.52814 230.55417L573.52814 231.47604L572.23126 231.47604ZM572.23126 227.47604L572.23126 226.55417L571.7625 226.55417Q570.96564 226.55417 570.59064 226.39792Q570.2 226.22604 569.96564 225.78854Q569.71564 225.33542 569.71564 224.64792Q569.71564 223.9448 569.91876 223.27292L571.075 223.49167Q570.98126 223.8823 570.98126 224.24167Q570.98126 224.60104 571.15314 224.7573Q571.3094 224.91354 571.79376 224.91354L572.23126 224.91354L572.23126 223.67917L573.52814 223.67917L573.52814 224.91354L578.45 224.91354L578.45 226.55417L573.52814 226.55417L573.52814 227.47604L572.23126 227.47604ZM571.3875 222.7573L569.85626 222.7573L569.85626 221.10104L571.3875 221.10104L571.3875 222.7573ZM578.45 222.7573L572.23126 222.7573L572.23126 221.10104L578.45 221.10104L578.45 222.7573ZM574.0594 214.33542L574.35626 215.9448Q573.8719 216.03854 573.6375 216.33542Q573.3875 216.61667 573.3875 217.0698Q573.3875 217.6948 573.8094 218.0698Q574.23126 218.42917 575.23126 218.42917Q576.34064 218.42917 576.79376 218.05417Q577.2469 217.67917 577.2469 217.05417Q577.2469 216.58542 576.98126 216.28854Q576.71564 215.99167 576.0594 215.86667L576.34064 214.24167Q577.45 214.49167 578.02814 215.21042Q578.59064 215.92917 578.59064 217.1323Q578.59064 218.49167 577.73126 219.30417Q576.8719 220.11667 575.34064 220.11667Q573.8094 220.11667 572.95 219.30417Q572.09064 218.49167 572.09064 217.10104Q572.09064 215.96042 572.575 215.28854Q573.0594 214.61667 574.0594 214.33542ZM576.46564 209.14792L576.7469 207.5073Q577.65314 207.8198 578.1219 208.5073Q578.59064 209.1948 578.59064 210.21042Q578.59064 211.83542 577.52814 212.61667Q576.6844 213.24167 575.3875 213.24167Q573.84064 213.24167 572.96564 212.42917Q572.09064 211.61667 572.09064 210.3823Q572.09064 208.99167 573.0125 208.1948Q573.91876 207.3823 575.8094 207.42917L575.8094 211.55417Q576.54376 211.52292 576.95 211.14792Q577.35626 210.77292 577.35626 210.1948Q577.35626 209.8198 577.15314 209.55417Q576.9344 209.28854 576.46564 209.14792ZM574.8094 209.05417Q574.09064 209.0698 573.71564 209.42917Q573.34064 209.77292 573.34064 210.28854Q573.34064 210.8198 573.73126 211.17917Q574.1375 211.52292 574.8094 211.52292L574.8094 209.05417ZM578.45 200.10104L578.45 201.74167L575.27814 201.74167Q574.2625 201.74167 573.96564 201.85104Q573.66876 201.9448 573.5125 202.1948Q573.34064 202.42917 573.34064 202.7573Q573.34064 203.1948 573.575 203.53854Q573.8094 203.86667 574.2 203.99167Q574.59064 204.11667 575.6375 204.11667L578.45 204.11667L578.45 205.77292L572.23126 205.77292L572.23126 204.24167L573.1375 204.24167Q572.09064 203.42917 572.09064 202.17917Q572.09064 201.64792 572.29376 201.1948Q572.48126 200.74167 572.79376 200.5073Q573.09064 200.27292 573.48126 200.1948Q573.85626 200.10104 574.575 200.10104L578.45 200.10104ZM574.0594 193.33542L574.35626 194.9448Q573.8719 195.03854 573.6375 195.33542Q573.3875 195.61667 573.3875 196.0698Q573.3875 196.6948 573.8094 197.0698Q574.23126 197.42917 575.23126 197.42917Q576.34064 197.42917 576.79376 197.05417Q577.2469 196.67917 577.2469 196.05417Q577.2469 195.58542 576.98126 195.28854Q576.71564 194.99167 576.0594 194.86667L576.34064 193.24167Q577.45 193.49167 578.02814 194.21042Q578.59064 194.92917 578.59064 196.1323Q578.59064 197.49167 577.73126 198.30417Q576.8719 199.11667 575.34064 199.11667Q573.8094 199.11667 572.95 198.30417Q572.09064 197.49167 572.09064 196.10104Q572.09064 194.96042 572.575 194.28854Q573.0594 193.61667 574.0594 193.33542ZM572.23126 192.53854L572.23126 190.78854L576.6375 189.28854L572.23126 187.83542L572.23126 186.1323L578.21564 188.33542L579.29376 188.72604Q579.84064 188.9448 580.1219 189.14792Q580.41876 189.33542 580.59064 189.60104Q580.77814 189.85104 580.8719 190.22604Q580.98126 190.58542 580.98126 191.05417Q580.98126 191.53854 580.8719 191.99167L579.59064 192.1323Q579.66876 191.74167 579.66876 191.4448Q579.66876 190.86667 579.325 190.60104Q578.9969 190.3198 578.46564 190.16354L572.23126 192.53854Z" fill-rule="nonzero"/><path fill="#242f26" d="M51.05 300.21564Q51.05 298.6844 51.3625 297.7625Q51.675 296.825 52.284374 296.325Q52.909374 295.825 53.846874 295.825Q54.534374 295.825 55.05 296.10626Q55.58125 296.3875 55.925 296.91876Q56.26875 297.4344 56.45625 298.1844Q56.64375 298.9344 56.64375 300.21564Q56.64375 301.73126 56.33125 302.65314Q56.034374 303.575 55.409374 304.09064Q54.8 304.59064 53.846874 304.59064Q52.6125 304.59064 51.89375 303.7Q51.05 302.6375 51.05 300.21564ZM52.128124 300.21564Q52.128124 302.325 52.628124 303.02814Q53.128124 303.73126 53.846874 303.73126Q54.58125 303.73126 55.065624 303.02814Q55.565624 302.325 55.565624 300.21564Q55.565624 298.09064 55.065624 297.40314Q54.58125 296.7 53.83125 296.7Q53.1125 296.7 52.675 297.3094Q52.128124 298.09064 52.128124 300.21564ZM58.64375 304.45L58.64375 303.2469L59.846874 303.2469L59.846874 304.45L58.64375 304.45ZM61.05 300.21564Q61.05 298.6844 61.3625 297.7625Q61.675 296.825 62.284374 296.325Q62.909374 295.825 63.846874 295.825Q64.53438 295.825 65.05 296.10626Q65.58125 296.3875 65.925 296.91876Q66.26875 297.4344 66.45625 298.1844Q66.64375 298.9344 66.64375 300.21564Q66.64375 301.73126 66.33125 302.65314Q66.03438 303.575 65.40938 304.09064Q64.8 304.59064 63.846874 304.59064Q62.6125 304.59064 61.89375 303.7Q61.05 302.6375 61.05 300.21564ZM62.128124 300.21564Q62.128124 302.325 62.628124 303.02814Q63.128124 303.73126 63.846874 303.73126Q64.58125 303.73126 65.06563 303.02814Q65.56563 302.325 65.56563 300.21564Q65.56563 298.09064 65.06563 297.40314Q64.58125 296.7 63.83125 296.7Q63.1125 296.7 62.675 297.3094Q62.128124 298.09064 62.128124 300.21564ZM68.05 300.21564Q68.05 298.6844 68.3625 297.7625Q68.675 296.825 69.28438 296.325Q69.90938 295.825 70.84688 295.825Q71.53438 295.825 72.05 296.10626Q72.58125 296.3875 72.925 296.91876Q73.26875 297.4344 73.45625 298.1844Q73.64375 298.9344 73.64375 300.21564Q73.64375 301.73126 73.33125 302.65314Q73.03438 303.575 72.40938 304.09064Q71.8 304.59064 70.84688 304.59064Q69.6125 304.59064 68.89375 303.7Q68.05 302.6375 68.05 300.21564ZM69.12813 300.21564Q69.12813 302.325 69.62813 303.02814Q70.12813 303.73126 70.84688 303.73126Q71.58125 303.73126 72.06563 303.02814Q72.56563 302.325 72.56563 300.21564Q72.56563 298.09064 72.06563 297.40314Q71.58125 296.7 70.83125 296.7Q70.1125 296.7 69.675 297.3094Q69.12813 298.09064 69.12813 300.21564Z" fill-rule="nonzero"/><path fill="#242f26" d="M56.596874 240.54549L56.596874 241.56111L50.909374 241.56111Q50.909374 241.18611 51.034374 240.82674Q51.253124 240.24861 51.721874 239.68611Q52.20625 239.12361 53.1125 238.38924Q54.51875 237.23299 55.003124 236.56111Q55.503124 235.88924 55.503124 235.29549Q55.503124 234.67049 55.05 234.24861Q54.596874 233.81111 53.878124 233.81111Q53.1125 233.81111 52.659374 234.26424Q52.20625 234.71736 52.190624 235.52986L51.1125 235.42049Q51.221874 234.20174 51.940624 233.57674Q52.675 232.93611 53.909374 232.93611Q55.14375 232.93611 55.8625 233.62361Q56.58125 234.31111 56.58125 235.32674Q56.58125 235.84236 56.3625 236.34236Q56.159374 236.82674 55.659374 237.38924Q55.175 237.93611 54.05 238.88924Q53.096874 239.68611 52.815624 239.98299Q52.55 240.26424 52.378124 240.54549L56.596874 240.54549ZM58.64375 241.56111L58.64375 240.35799L59.846874 240.35799L59.846874 241.56111L58.64375 241.56111ZM61.05 237.32674Q61.05 235.79549 61.3625 234.87361Q61.675 233.93611 62.284374 233.43611Q62.909374 232.93611 63.846874 232.93611Q64.53438 232.93611 65.05 233.21736Q65.58125 233.49861 65.925 234.02986Q66.26875 234.54549 66.45625 235.29549Q66.64375 236.04549 66.64375 237.32674Q66.64375 238.84236 66.33125 239.76424Q66.03438 240.68611 65.40938 241.20174Q64.8 241.70174 63.846874 241.70174Q62.6125 241.70174 61.89375 240.81111Q61.05 239.74861 61.05 237.32674ZM62.128124 237.32674Q62.128124 239.43611 62.628124 240.13924Q63.128124 240.84236 63.846874 240.84236Q64.58125 240.84236 65.06563 240.13924Q65.56563 239.43611 65.56563 237.32674Q65.56563 235.20174 65.06563 234.51424Q64.58125 233.81111 63.83125 233.81111Q63.1125 233.81111 62.675 234.42049Q62.128124 235.20174 62.128124 237.32674ZM68.05 237.32674Q68.05 235.79549 68.3625 234.87361Q68.675 233.93611 69.28438 233.43611Q69.90938 232.93611 70.84688 232.93611Q71.53438 232.93611 72.05 233.21736Q72.58125 233.49861 72.925 234.02986Q73.26875 234.54549 73.45625 235.29549Q73.64375 236.04549 73.64375 237.32674Q73.64375 238.84236 73.33125 239.76424Q73.03438 240.68611 72.40938 241.20174Q71.8 241.70174 70.84688 241.70174Q69.6125 241.70174 68.89375 240.81111Q68.05 239.74861 68.05 237.32674ZM69.12813 237.32674Q69.12813 239.43611 69.62813 240.13924Q70.12813 240.84236 70.84688 240.84236Q71.58125 240.84236 72.06563 240.13924Q72.56563 239.43611 72.56563 237.32674Q72.56563 235.20174 72.06563 234.51424Q71.58125 233.81111 70.83125 233.81111Q70.1125 233.81111 69.675 234.42049Q69.12813 235.20174 69.12813 237.32674Z" fill-rule="nonzero"/><path fill="#242f26" d="M54.425 178.67223L54.425 176.60973L50.70625 176.60973L50.70625 175.64098L54.628124 170.07848L55.4875 170.07848L55.4875 175.64098L56.64375 175.64098L56.64375 176.60973L55.4875 176.60973L55.4875 178.67223L54.425 178.67223ZM54.425 175.64098L54.425 171.7816L51.7375 175.64098L54.425 175.64098ZM58.64375 178.67223L58.64375 177.4691L59.846874 177.4691L59.846874 178.67223L58.64375 178.67223ZM61.05 174.43785Q61.05 172.9066 61.3625 171.98473Q61.675 171.04723 62.284374 170.54723Q62.909374 170.04723 63.846874 170.04723Q64.53438 170.04723 65.05 170.32848Q65.58125 170.60973 65.925 171.14098Q66.26875 171.6566 66.45625 172.4066Q66.64375 173.1566 66.64375 174.43785Q66.64375 175.95348 66.33125 176.87535Q66.03438 177.79723 65.40938 178.31285Q64.8 178.81285 63.846874 178.81285Q62.6125 178.81285 61.89375 177.92223Q61.05 176.85973 61.05 174.43785ZM62.128124 174.43785Q62.128124 176.54723 62.628124 177.25035Q63.128124 177.95348 63.846874 177.95348Q64.58125 177.95348 65.06563 177.25035Q65.56563 176.54723 65.56563 174.43785Q65.56563 172.31285 65.06563 171.62535Q64.58125 170.92223 63.83125 170.92223Q63.1125 170.92223 62.675 171.5316Q62.128124 172.31285 62.128124 174.43785ZM68.05 174.43785Q68.05 172.9066 68.3625 171.98473Q68.675 171.04723 69.28438 170.54723Q69.90938 170.04723 70.84688 170.04723Q71.53438 170.04723 72.05 170.32848Q72.58125 170.60973 72.925 171.14098Q73.26875 171.6566 73.45625 172.4066Q73.64375 173.1566 73.64375 174.43785Q73.64375 175.95348 73.33125 176.87535Q73.03438 177.79723 72.40938 178.31285Q71.8 178.81285 70.84688 178.81285Q69.6125 178.81285 68.89375 177.92223Q68.05 176.85973 68.05 174.43785ZM69.12813 174.43785Q69.12813 176.54723 69.62813 177.25035Q70.12813 177.95348 70.84688 177.95348Q71.58125 177.95348 72.06563 177.25035Q72.56563 176.54723 72.56563 174.43785Q72.56563 172.31285 72.06563 171.62535Q71.58125 170.92223 70.83125 170.92223Q70.1125 170.92223 69.675 171.5316Q69.12813 172.31285 69.12813 174.43785Z" fill-rule="nonzero"/><path fill="#242f26" d="M56.51875 109.29896L55.471874 109.37708Q55.33125 108.75208 55.08125 108.47083Q54.64375 108.01771 54.01875 108.01771Q53.51875 108.01771 53.128124 108.29896Q52.64375 108.67396 52.346874 109.37708Q52.065624 110.06458 52.05 111.34583Q52.425 110.76771 52.971874 110.48646Q53.534374 110.20521 54.14375 110.20521Q55.190624 110.20521 55.925 110.98646Q56.675 111.76771 56.675 112.98646Q56.675 113.79896 56.315624 114.50208Q55.971874 115.18958 55.3625 115.56458Q54.753124 115.92396 53.9875 115.92396Q52.659374 115.92396 51.83125 114.95521Q51.003124 113.98646 51.003124 111.76771Q51.003124 109.26771 51.925 108.14271Q52.721874 107.15833 54.08125 107.15833Q55.096874 107.15833 55.7375 107.73646Q56.39375 108.29896 56.51875 109.29896ZM52.221874 113.00208Q52.221874 113.54896 52.440624 114.04896Q52.675 114.53333 53.08125 114.79896Q53.503124 115.06458 53.971874 115.06458Q54.628124 115.06458 55.1125 114.53333Q55.596874 113.98646 55.596874 113.06458Q55.596874 112.17396 55.1125 111.65833Q54.64375 111.14271 53.925 111.14271Q53.20625 111.14271 52.70625 111.65833Q52.221874 112.17396 52.221874 113.00208ZM58.64375 115.78333L58.64375 114.58021L59.846874 114.58021L59.846874 115.78333L58.64375 115.78333ZM61.05 111.54896Q61.05 110.01771 61.3625 109.09583Q61.675 108.15833 62.284374 107.65833Q62.909374 107.15833 63.846874 107.15833Q64.53438 107.15833 65.05 107.43958Q65.58125 107.72083 65.925 108.25208Q66.26875 108.76771 66.45625 109.51771Q66.64375 110.26771 66.64375 111.54896Q66.64375 113.06458 66.33125 113.98646Q66.03438 114.90833 65.40938 115.42396Q64.8 115.92396 63.846874 115.92396Q62.6125 115.92396 61.89375 115.03333Q61.05 113.97083 61.05 111.54896ZM62.128124 111.54896Q62.128124 113.65833 62.628124 114.36146Q63.128124 115.06458 63.846874 115.06458Q64.58125 115.06458 65.06563 114.36146Q65.56563 113.65833 65.56563 111.54896Q65.56563 109.42396 65.06563 108.73646Q64.58125 108.03333 63.83125 108.03333Q63.1125 108.03333 62.675 108.64271Q62.128124 109.42396 62.128124 111.54896ZM68.05 111.54896Q68.05 110.01771 68.3625 109.09583Q68.675 108.15833 69.28438 107.65833Q69.90938 107.15833 70.84688 107.15833Q71.53438 107.15833 72.05 107.43958Q72.58125 107.72083 72.925 108.25208Q73.26875 108.76771 73.45625 109.51771Q73.64375 110.26771 73.64375 111.54896Q73.64375 113.06458 73.33125 113.98646Q73.03438 114.90833 72.40938 115.42396Q71.8 115.92396 70.84688 115.92396Q69.6125 115.92396 68.89375 115.03333Q68.05 113.97083 68.05 111.54896ZM69.12813 111.54896Q69.12813 113.65833 69.62813 114.36146Q70.12813 115.06458 70.84688 115.06458Q71.58125 115.06458 72.06563 114.36146Q72.56563 113.65833 72.56563 111.54896Q72.56563 109.42396 72.06563 108.73646Q71.58125 108.03333 70.83125 108.03333Q70.1125 108.03333 69.675 108.64271Q69.12813 109.42396 69.12813 111.54896Z" fill-rule="nonzero"/><path fill="#242f26" d="M525.95 300.21564Q525.95 298.6844 526.2625 297.7625Q526.575 296.825 527.1844 296.325Q527.8094 295.825 528.7469 295.825Q529.4344 295.825 529.95 296.10626Q530.48126 296.3875 530.825 296.91876Q531.16876 297.4344 531.35626 298.1844Q531.54376 298.9344 531.54376 300.21564Q531.54376 301.73126 531.23126 302.65314Q530.9344 303.575 530.3094 304.09064Q529.7 304.59064 528.7469 304.59064Q527.5125 304.59064 526.79376 303.7Q525.95 302.6375 525.95 300.21564ZM527.02814 300.21564Q527.02814 302.325 527.52814 303.02814Q528.02814 303.73126 528.7469 303.73126Q529.48126 303.73126 529.96564 303.02814Q530.46564 302.325 530.46564 300.21564Q530.46564 298.09064 529.96564 297.40314Q529.48126 296.7 528.73126 296.7Q528.0125 296.7 527.575 297.3094Q527.02814 298.09064 527.02814 300.21564ZM533.54376 304.45L533.54376 303.2469L534.7469 303.2469L534.7469 304.45L533.54376 304.45ZM535.95 300.21564Q535.95 298.6844 536.2625 297.7625Q536.575 296.825 537.1844 296.325Q537.8094 295.825 538.7469 295.825Q539.4344 295.825 539.95 296.10626Q540.48126 296.3875 540.825 296.91876Q541.16876 297.4344 541.35626 298.1844Q541.54376 298.9344 541.54376 300.21564Q541.54376 301.73126 541.23126 302.65314Q540.9344 303.575 540.3094 304.09064Q539.7 304.59064 538.7469 304.59064Q537.5125 304.59064 536.79376 303.7Q535.95 302.6375 535.95 300.21564ZM537.02814 300.21564Q537.02814 302.325 537.52814 303.02814Q538.02814 303.73126 538.7469 303.73126Q539.48126 303.73126 539.96564 303.02814Q540.46564 302.325 540.46564 300.21564Q540.46564 298.09064 539.96564 297.40314Q539.48126 296.7 538.73126 296.7Q538.0125 296.7 537.575 297.3094Q537.02814 298.09064 537.02814 300.21564ZM542.95 300.21564Q542.95 298.6844 543.2625 297.7625Q543.575 296.825 544.1844 296.325Q544.8094 295.825 545.7469 295.825Q546.4344 295.825 546.95 296.10626Q547.48126 296.3875 547.825 296.91876Q548.16876 297.4344 548.35626 298.1844Q548.54376 298.9344 548.54376 300.21564Q548.54376 301.73126 548.23126 302.65314Q547.9344 303.575 547.3094 304.09064Q546.7 304.59064 545.7469 304.59064Q544.5125 304.59064 543.79376 303.7Q542.95 302.6375 542.95 300.21564ZM544.02814 300.21564Q544.02814 302.325 544.52814 303.02814Q545.02814 303.73126 545.7469 303.73126Q546.48126 303.73126 546.96564 303.02814Q547.46564 302.325 547.46564 300.21564Q547.46564 298.09064 546.96564 297.40314Q546.48126 296.7 545.73126 296.7Q545.0125 296.7 544.575 297.3094Q544.02814 298.09064 544.02814 300.21564Z" fill-rule="nonzero"/><path fill="#242f26" d="M525.95 253.04895Q525.95 251.5177 526.2625 250.59583Q526.575 249.65833 527.1844 249.15833Q527.8094 248.65833 528.7469 248.65833Q529.4344 248.65833 529.95 248.93958Q530.48126 249.22083 530.825 249.75208Q531.16876 250.2677 531.35626 251.0177Q531.54376 251.7677 531.54376 253.04895Q531.54376 254.56458 531.23126 255.48645Q530.9344 256.40833 530.3094 256.92395Q529.7 257.42395 528.7469 257.42395Q527.5125 257.42395 526.79376 256.53333Q525.95 255.47083 525.95 253.04895ZM527.02814 253.04895Q527.02814 255.15833 527.52814 255.86145Q528.02814 256.56458 528.7469 256.56458Q529.48126 256.56458 529.96564 255.86145Q530.46564 255.15833 530.46564 253.04895Q530.46564 250.92395 529.96564 250.23645Q529.48126 249.53333 528.73126 249.53333Q528.0125 249.53333 527.575 250.1427Q527.02814 250.92395 527.02814 253.04895ZM533.54376 257.28333L533.54376 256.0802L534.7469 256.0802L534.7469 257.28333L533.54376 257.28333ZM541.4969 256.2677L541.4969 257.28333L535.8094 257.28333Q535.8094 256.90833 535.9344 256.54895Q536.15314 255.97083 536.6219 255.40833Q537.10626 254.84583 538.0125 254.11145Q539.41876 252.9552 539.90314 252.28333Q540.40314 251.61145 540.40314 251.0177Q540.40314 250.3927 539.95 249.97083Q539.4969 249.53333 538.77814 249.53333Q538.0125 249.53333 537.5594 249.98645Q537.10626 250.43958 537.09064 251.25208L536.0125 251.1427Q536.1219 249.92395 536.84064 249.29895Q537.575 248.65833 538.8094 248.65833Q540.04376 248.65833 540.7625 249.34583Q541.48126 250.03333 541.48126 251.04895Q541.48126 251.56458 541.2625 252.06458Q541.0594 252.54895 540.5594 253.11145Q540.075 253.65833 538.95 254.61145Q537.9969 255.40833 537.71564 255.7052Q537.45 255.98645 537.27814 256.2677L541.4969 256.2677ZM542.95 255.03333L544.0594 254.93958Q544.1844 255.75208 544.6219 256.15833Q545.075 256.56458 545.71564 256.56458Q546.46564 256.56458 546.9969 255.98645Q547.52814 255.40833 547.52814 254.47083Q547.52814 253.56458 547.0125 253.04895Q546.5125 252.5177 545.6844 252.5177Q545.1844 252.5177 544.7625 252.75208Q544.35626 252.98645 544.1219 253.34583L543.1375 253.22083L543.96564 248.81458L548.2469 248.81458L548.2469 249.81458L544.8094 249.81458L544.35626 252.12708Q545.1219 251.5802 545.96564 251.5802Q547.09064 251.5802 547.85626 252.36145Q548.6375 253.1427 548.6375 254.37708Q548.6375 255.53333 547.96564 256.3927Q547.1375 257.42395 545.71564 257.42395Q544.54376 257.42395 543.79376 256.7677Q543.0594 256.11145 542.95 255.03333Z" fill-rule="nonzero"/><path fill="#242f26" d="M525.95 205.8823Q525.95 204.35104 526.2625 203.42917Q526.575 202.49167 527.1844 201.99167Q527.8094 201.49167 528.7469 201.49167Q529.4344 201.49167 529.95 201.77292Q530.48126 202.05417 530.825 202.58542Q531.16876 203.10104 531.35626 203.85104Q531.54376 204.60104 531.54376 205.8823Q531.54376 207.39792 531.23126 208.3198Q530.9344 209.24167 530.3094 209.7573Q529.7 210.2573 528.7469 210.2573Q527.5125 210.2573 526.79376 209.36667Q525.95 208.30417 525.95 205.8823ZM527.02814 205.8823Q527.02814 207.99167 527.52814 208.6948Q528.02814 209.39792 528.7469 209.39792Q529.48126 209.39792 529.96564 208.6948Q530.46564 207.99167 530.46564 205.8823Q530.46564 203.7573 529.96564 203.0698Q529.48126 202.36667 528.73126 202.36667Q528.0125 202.36667 527.575 202.97604Q527.02814 203.7573 527.02814 205.8823ZM533.54376 210.11667L533.54376 208.91354L534.7469 208.91354L534.7469 210.11667L533.54376 210.11667ZM535.95 207.86667L537.0594 207.77292Q537.1844 208.58542 537.6219 208.99167Q538.075 209.39792 538.71564 209.39792Q539.46564 209.39792 539.9969 208.8198Q540.52814 208.24167 540.52814 207.30417Q540.52814 206.39792 540.0125 205.8823Q539.5125 205.35104 538.6844 205.35104Q538.1844 205.35104 537.7625 205.58542Q537.35626 205.8198 537.1219 206.17917L536.1375 206.05417L536.96564 201.64792L541.2469 201.64792L541.2469 202.64792L537.8094 202.64792L537.35626 204.96042Q538.1219 204.41354 538.96564 204.41354Q540.09064 204.41354 540.85626 205.1948Q541.6375 205.97604 541.6375 207.21042Q541.6375 208.36667 540.96564 209.22604Q540.1375 210.2573 538.71564 210.2573Q537.54376 210.2573 536.79376 209.60104Q536.0594 208.9448 535.95 207.86667ZM542.95 205.8823Q542.95 204.35104 543.2625 203.42917Q543.575 202.49167 544.1844 201.99167Q544.8094 201.49167 545.7469 201.49167Q546.4344 201.49167 546.95 201.77292Q547.48126 202.05417 547.825 202.58542Q548.16876 203.10104 548.35626 203.85104Q548.54376 204.60104 548.54376 205.8823Q548.54376 207.39792 548.23126 208.3198Q547.9344 209.24167 547.3094 209.7573Q546.7 210.2573 545.7469 210.2573Q544.5125 210.2573 543.79376 209.36667Q542.95 208.30417 542.95 205.8823ZM544.02814 205.8823Q544.02814 207.99167 544.52814 208.6948Q545.02814 209.39792 545.7469 209.39792Q546.48126 209.39792 546.96564 208.6948Q547.46564 207.99167 547.46564 205.8823Q547.46564 203.7573 546.96564 203.0698Q546.48126 202.36667 545.73126 202.36667Q545.0125 202.36667 544.575 202.97604Q544.02814 203.7573 544.02814 205.8823Z" fill-rule="nonzero"/><path fill="#242f26" d="M525.95 158.71562Q525.95 157.18437 526.2625 156.2625Q526.575 155.325 527.1844 154.825Q527.8094 154.325 528.7469 154.325Q529.4344 154.325 529.95 154.60625Q530.48126 154.8875 530.825 155.41875Q531.16876 155.93437 531.35626 156.68437Q531.54376 157.43437 531.54376 158.71562Q531.54376 160.23125 531.23126 161.15312Q530.9344 162.075 530.3094 162.59062Q529.7 163.09062 528.7469 163.09062Q527.5125 163.09062 526.79376 162.2Q525.95 161.1375 525.95 158.71562ZM527.02814 158.71562Q527.02814 160.825 527.52814 161.52812Q528.02814 162.23125 528.7469 162.23125Q529.48126 162.23125 529.96564 161.52812Q530.46564 160.825 530.46564 158.71562Q530.46564 156.59062 529.96564 155.90312Q529.48126 155.2 528.73126 155.2Q528.0125 155.2 527.575 155.80937Q527.02814 156.59062 527.02814 158.71562ZM533.54376 162.95L533.54376 161.74687L534.7469 161.74687L534.7469 162.95L533.54376 162.95ZM536.0125 155.48125L536.0125 154.46562L541.575 154.46562L541.575 155.29375Q540.7625 156.16875 539.95 157.62187Q539.15314 159.05937 538.71564 160.59062Q538.3875 161.66875 538.3094 162.95L537.21564 162.95Q537.23126 161.93437 537.60626 160.49687Q537.9969 159.05937 538.7 157.73125Q539.41876 156.40312 540.23126 155.48125L536.0125 155.48125ZM542.95 160.7L544.0594 160.60625Q544.1844 161.41875 544.6219 161.825Q545.075 162.23125 545.71564 162.23125Q546.46564 162.23125 546.9969 161.65312Q547.52814 161.075 547.52814 160.1375Q547.52814 159.23125 547.0125 158.71562Q546.5125 158.18437 545.6844 158.18437Q545.1844 158.18437 544.7625 158.41875Q544.35626 158.65312 544.1219 159.0125L543.1375 158.8875L543.96564 154.48125L548.2469 154.48125L548.2469 155.48125L544.8094 155.48125L544.35626 157.79375Q545.1219 157.24687 545.96564 157.24687Q547.09064 157.24687 547.85626 158.02812Q548.6375 158.80937 548.6375 160.04375Q548.6375 161.2 547.96564 162.05937Q547.1375 163.09062 545.71564 163.09062Q544.54376 163.09062 543.79376 162.43437Q543.0594 161.77812 542.95 160.7Z" fill-rule="nonzero"/><path fill="#242f26" d="M529.91876 115.78333L528.8719 115.78333L528.8719 109.06458Q528.48126 109.42396 527.85626 109.79896Q527.2469 110.15833 526.7625 110.33021L526.7625 109.31458Q527.6375 108.89271 528.29376 108.31458Q528.96564 107.72083 529.2469 107.15833L529.91876 107.15833L529.91876 115.78333ZM533.54376 115.78333L533.54376 114.58021L534.7469 114.58021L534.7469 115.78333L533.54376 115.78333ZM535.95 111.54896Q535.95 110.01771 536.2625 109.09583Q536.575 108.15833 537.1844 107.65833Q537.8094 107.15833 538.7469 107.15833Q539.4344 107.15833 539.95 107.43958Q540.48126 107.72083 540.825 108.25208Q541.16876 108.76771 541.35626 109.51771Q541.54376 110.26771 541.54376 111.54896Q541.54376 113.06458 541.23126 113.98646Q540.9344 114.90833 540.3094 115.42396Q539.7 115.92396 538.7469 115.92396Q537.5125 115.92396 536.79376 115.03333Q535.95 113.97083 535.95 111.54896ZM537.02814 111.54896Q537.02814 113.65833 537.52814 114.36146Q538.02814 115.06458 538.7469 115.06458Q539.48126 115.06458 539.96564 114.36146Q540.46564 113.65833 540.46564 111.54896Q540.46564 109.42396 539.96564 108.73646Q539.48126 108.03333 538.73126 108.03333Q538.0125 108.03333 537.575 108.64271Q537.02814 109.42396 537.02814 111.54896ZM542.95 111.54896Q542.95 110.01771 543.2625 109.09583Q543.575 108.15833 544.1844 107.65833Q544.8094 107.15833 545.7469 107.15833Q546.4344 107.15833 546.95 107.43958Q547.48126 107.72083 547.825 108.25208Q548.16876 108.76771 548.35626 109.51771Q548.54376 110.26771 548.54376 111.54896Q548.54376 113.06458 548.23126 113.98646Q547.9344 114.90833 547.3094 115.42396Q546.7 115.92396 545.7469 115.92396Q544.5125 115.92396 543.79376 115.03333Q542.95 113.97083 542.95 111.54896ZM544.02814 111.54896Q544.02814 113.65833 544.52814 114.36146Q545.02814 115.06458 545.7469 115.06458Q546.48126 115.06458 546.96564 114.36146Q547.46564 113.65833 547.46564 111.54896Q547.46564 109.42396 546.96564 108.73646Q546.48126 108.03333 545.73126 108.03333Q545.0125 108.03333 544.575 108.64271Q544.02814 109.42396 544.02814 111.54896Z" fill-rule="nonzero"/><path fill="#242f26" d="M145.79688 316.4344L145.79688 317.45L140.10938 317.45Q140.10938 317.075 140.23438 316.71564Q140.45312 316.1375 140.92188 315.575Q141.40625 315.0125 142.3125 314.27814Q143.71875 313.1219 144.20312 312.45Q144.70312 311.77814 144.70312 311.1844Q144.70312 310.5594 144.25 310.1375Q143.79688 309.7 143.07812 309.7Q142.3125 309.7 141.85938 310.15314Q141.40625 310.60626 141.39062 311.41876L140.3125 311.3094Q140.42188 310.09064 141.14062 309.46564Q141.875 308.825 143.10938 308.825Q144.34375 308.825 145.0625 309.5125Q145.78125 310.2 145.78125 311.21564Q145.78125 311.73126 145.5625 312.23126Q145.35938 312.71564 144.85938 313.27814Q144.375 313.825 143.25 314.77814Q142.29688 315.575 142.01562 315.8719Q141.75 316.15314 141.57812 316.4344L145.79688 316.4344Z" fill-rule="nonzero"/><path fill="#242f26" d="M269.025 317.45L269.025 315.3875L265.30624 315.3875L265.30624 314.41876L269.22812 308.85626L270.0875 308.85626L270.0875 314.41876L271.24374 314.41876L271.24374 315.3875L270.0875 315.3875L270.0875 317.45L269.025 317.45ZM269.025 314.41876L269.025 310.5594L266.3375 314.41876L269.025 314.41876Z" fill-rule="nonzero"/><path fill="#242f26" d="M396.51874 310.96564L395.47186 311.04376Q395.33124 310.41876 395.08124 310.1375Q394.64374 309.6844 394.01874 309.6844Q393.51874 309.6844 393.1281 309.96564Q392.64374 310.34064 392.34686 311.04376Q392.0656 311.73126 392.05 313.0125Q392.425 312.4344 392.97186 312.15314Q393.53436 311.8719 394.14374 311.8719Q395.1906 311.8719 395.925 312.65314Q396.675 313.4344 396.675 314.65314Q396.675 315.46564 396.3156 316.16876Q395.97186 316.85626 395.3625 317.23126Q394.7531 317.59064 393.9875 317.59064Q392.65936 317.59064 391.83124 316.6219Q391.0031 315.65314 391.0031 313.4344Q391.0031 310.9344 391.925 309.8094Q392.72186 308.825 394.08124 308.825Q395.09686 308.825 395.7375 309.40314Q396.39374 309.96564 396.51874 310.96564ZM392.22186 314.66876Q392.22186 315.21564 392.4406 315.71564Q392.675 316.2 393.08124 316.46564Q393.5031 316.73126 393.97186 316.73126Q394.6281 316.73126 395.1125 316.2Q395.59686 315.65314 395.59686 314.73126Q395.59686 313.84064 395.1125 313.325Q394.64374 312.8094 393.925 312.8094Q393.20624 312.8094 392.70624 313.325Q392.22186 313.84064 392.22186 314.66876Z" fill-rule="nonzero"/><path fill="#242f26" d="M518.075 312.79376Q517.41876 312.54376 517.09064 312.10626Q516.77814 311.65314 516.77814 311.04376Q516.77814 310.10626 517.45 309.46564Q518.1375 308.825 519.2469 308.825Q520.3719 308.825 521.0594 309.48126Q521.7469 310.1375 521.7469 311.075Q521.7469 311.66876 521.4344 312.10626Q521.1219 312.54376 520.48126 312.79376Q521.27814 313.04376 521.6844 313.6219Q522.09064 314.2 522.09064 314.9969Q522.09064 316.09064 521.3094 316.84064Q520.54376 317.59064 519.2625 317.59064Q517.9969 317.59064 517.21564 316.84064Q516.4344 316.09064 516.4344 314.96564Q516.4344 314.1219 516.85626 313.5594Q517.29376 312.9969 518.075 312.79376ZM517.85626 310.9969Q517.85626 311.60626 518.2469 311.9969Q518.65314 312.3875 519.27814 312.3875Q519.8875 312.3875 520.27814 312.0125Q520.66876 311.6219 520.66876 311.0594Q520.66876 310.48126 520.2625 310.09064Q519.85626 309.6844 519.2625 309.6844Q518.65314 309.6844 518.2469 310.075Q517.85626 310.46564 517.85626 310.9969ZM517.52814 314.96564Q517.52814 315.41876 517.73126 315.84064Q517.95 316.2625 518.3719 316.4969Q518.79376 316.73126 519.27814 316.73126Q520.02814 316.73126 520.5125 316.2469Q521.0125 315.7625 521.0125 315.0125Q521.0125 314.2469 520.5125 313.7469Q520.0125 313.2469 519.2469 313.2469Q518.4969 313.2469 518.0125 313.7469Q517.52814 314.23126 517.52814 314.96564Z" fill-rule="nonzero"/><path stroke="#608f66" stroke-width="4.0" stroke-linecap="butt" d="M223.0 85.416664L235.0 85.416664" fill-rule="nonzero"/><path fill="#3a443c" d="M243.54688 86.65104L244.60938 86.55729Q244.6875 87.21354 244.96875 87.61979Q245.25 88.02604 245.82812 88.291664Q246.42188 88.541664 247.15625 88.541664Q247.79688 88.541664 248.29688 88.354164Q248.79688 88.15104 249.03125 87.822914Q249.28125 87.479164 249.28125 87.08854Q249.28125 86.68229 249.04688 86.385414Q248.8125 86.072914 248.28125 85.86979Q247.92188 85.729164 246.73438 85.447914Q245.5625 85.166664 245.09375 84.916664Q244.46875 84.58854 244.17188 84.11979Q243.875 83.635414 243.875 83.041664Q243.875 82.40104 244.23438 81.83854Q244.60938 81.260414 245.3125 80.979164Q246.03125 80.68229 246.89062 80.68229Q247.84375 80.68229 248.57812 80.99479Q249.3125 81.291664 249.70312 81.90104Q250.09375 82.49479 250.125 83.24479L249.03125 83.322914Q248.9375 82.510414 248.42188 82.104164Q247.92188 81.68229 246.9375 81.68229Q245.90625 81.68229 245.4375 82.05729Q244.96875 82.43229 244.96875 82.96354Q244.96875 83.43229 245.29688 83.729164Q245.625 84.02604 247.0 84.33854Q248.39062 84.65104 248.90625 84.885414Q249.65625 85.24479 250.01562 85.77604Q250.375 86.291664 250.375 86.99479Q250.375 87.68229 249.98438 88.291664Q249.59375 88.885414 248.85938 89.229164Q248.125 89.55729 247.20312 89.55729Q246.03125 89.55729 245.23438 89.229164Q244.45312 88.885414 244.0 88.197914Q243.5625 87.510414 243.54688 86.65104ZM251.79688 91.80729L251.79688 83.197914L252.75 83.197914L252.75 83.99479Q253.09375 83.52604 253.51562 83.291664Q253.95312 83.05729 254.5625 83.05729Q255.35938 83.05729 255.96875 83.46354Q256.57812 83.86979 256.875 84.61979Q257.1875 85.36979 257.1875 86.260414Q257.1875 87.21354 256.84375 87.979164Q256.51562 88.74479 255.85938 89.15104Q255.20312 89.55729 254.48438 89.55729Q253.95312 89.55729 253.53125 89.33854Q253.10938 89.104164 252.84375 88.77604L252.84375 91.80729L251.79688 91.80729ZM252.75 86.33854Q252.75 87.541664 253.23438 88.11979Q253.71875 88.68229 254.40625 88.68229Q255.10938 88.68229 255.60938 88.08854Q256.10938 87.49479 256.10938 86.24479Q256.10938 85.05729 255.625 84.479164Q255.14062 83.885414 254.45312 83.885414Q253.78125 83.885414 253.26562 84.510414Q252.75 85.135414 252.75 86.33854ZM263.04688 87.416664L264.14062 87.541664Q263.89062 88.49479 263.1875 89.02604Q262.48438 89.55729 261.40625 89.55729Q260.04688 89.55729 259.23438 88.71354Q258.4375 87.86979 258.4375 86.354164Q258.4375 84.791664 259.25 83.93229Q260.0625 83.05729 261.34375 83.05729Q262.59375 83.05729 263.375 83.90104Q264.17188 84.74479 264.17188 86.291664Q264.17188 86.385414 264.17188 86.572914L259.53125 86.572914Q259.59375 87.604164 260.10938 88.15104Q260.625 88.68229 261.40625 88.68229Q261.98438 88.68229 262.39062 88.385414Q262.8125 88.072914 263.04688 87.416664ZM259.59375 85.71354L263.0625 85.71354Q263.0 84.916664 262.67188 84.52604Q262.15625 83.916664 261.35938 83.916664Q260.625 83.916664 260.125 84.40104Q259.64062 84.885414 259.59375 85.71354ZM270.04688 87.416664L271.14062 87.541664Q270.89062 88.49479 270.1875 89.02604Q269.48438 89.55729 268.40625 89.55729Q267.04688 89.55729 266.23438 88.71354Q265.4375 87.86979 265.4375 86.354164Q265.4375 84.791664 266.25 83.93229Q267.0625 83.05729 268.34375 83.05729Q269.59375 83.05729 270.375 83.90104Q271.17188 84.74479 271.17188 86.291664Q271.17188 86.385414 271.17188 86.572914L266.53125 86.572914Q266.59375 87.604164 267.10938 88.15104Q267.625 88.68229 268.40625 88.68229Q268.98438 88.68229 269.39062 88.385414Q269.8125 88.072914 270.04688 87.416664ZM266.59375 85.71354L270.0625 85.71354Q270.0 84.916664 269.67188 84.52604Q269.15625 83.916664 268.35938 83.916664Q267.625 83.916664 267.125 84.40104Q266.64062 84.885414 266.59375 85.71354ZM276.82812 89.416664L276.82812 88.635414Q276.23438 89.55729 275.09375 89.55729Q274.34375 89.55729 273.71875 89.15104Q273.09375 88.729164 272.75 87.99479Q272.40625 87.260414 272.40625 86.30729Q272.40625 85.385414 272.71875 84.61979Q273.03125 83.854164 273.65625 83.46354Q274.28125 83.05729 275.04688 83.05729Q275.60938 83.05729 276.04688 83.291664Q276.48438 83.52604 276.76562 83.90104L276.76562 80.822914L277.8125 80.822914L277.8125 89.416664L276.82812 89.416664ZM273.5 86.30729Q273.5 87.510414 274.0 88.104164Q274.5 88.68229 275.1875 88.68229Q275.875 88.68229 276.35938 88.11979Q276.84375 87.55729 276.84375 86.40104Q276.84375 85.11979 276.34375 84.52604Q275.85938 83.93229 275.14062 83.93229Q274.4375 83.93229 273.96875 84.510414Q273.5 85.072914 273.5 86.30729ZM283.875 89.416664L283.875 88.49479Q283.14062 89.55729 281.89062 89.55729Q281.34375 89.55729 280.85938 89.354164Q280.39062 89.135414 280.15625 88.822914Q279.92188 88.49479 279.82812 88.02604Q279.76562 87.729164 279.76562 87.041664L279.76562 83.197914L280.82812 83.197914L280.82812 86.65104Q280.82812 87.46354 280.89062 87.760414Q280.98438 88.166664 281.29688 88.416664Q281.625 88.65104 282.10938 88.65104Q282.57812 88.65104 282.98438 88.416664Q283.40625 88.166664 283.57812 87.74479Q283.76562 87.322914 283.76562 86.52604L283.76562 83.197914L284.8125 83.197914L284.8125 89.416664L283.875 89.416664ZM286.79688 91.80729L286.79688 83.197914L287.75 83.197914L287.75 83.99479Q288.09375 83.52604 288.51562 83.291664Q288.95312 83.05729 289.5625 83.05729Q290.35938 83.05729 290.96875 83.46354Q291.57812 83.86979 291.875 84.61979Q292.1875 85.36979 292.1875 86.260414Q292.1875 87.21354 291.84375 87.979164Q291.51562 88.74479 290.85938 89.15104Q290.20312 89.55729 289.48438 89.55729Q288.95312 89.55729 288.53125 89.33854Q288.10938 89.104164 287.84375 88.77604L287.84375 91.80729L286.79688 91.80729ZM287.75 86.33854Q287.75 87.541664 288.23438 88.11979Q288.71875 88.68229 289.40625 88.68229Q290.10938 88.68229 290.60938 88.08854Q291.10938 87.49479 291.10938 86.24479Q291.10938 85.05729 290.625 84.479164Q290.14062 83.885414 289.45312 83.885414Q288.78125 83.885414 288.26562 84.510414Q287.75 85.135414 287.75 86.33854Z" fill-rule="nonzero"/><path stroke="#274766" stroke-width="4.0" stroke-linecap="butt" d="M309.0 85.416664L321.0 85.416664" fill-rule="nonzero"/><path fill="#3a443c" d="M329.95312 89.416664L329.95312 80.822914L336.15625 80.822914L336.15625 81.83854L331.09375 81.83854L331.09375 84.46354L335.84375 84.46354L335.84375 85.479164L331.09375 85.479164L331.09375 88.40104L336.35938 88.40104L336.35938 89.416664L329.95312 89.416664ZM338.04688 89.416664L338.04688 84.010414L337.10938 84.010414L337.10938 83.197914L338.04688 83.197914L338.04688 82.52604Q338.04688 81.90104 338.15625 81.604164Q338.3125 81.18229 338.6875 80.93229Q339.07812 80.68229 339.76562 80.68229Q340.21875 80.68229 340.75 80.791664L340.59375 81.697914Q340.26562 81.65104 339.96875 81.65104Q339.48438 81.65104 339.28125 81.854164Q339.09375 82.05729 339.09375 82.61979L339.09375 83.197914L340.3125 83.197914L340.3125 84.010414L339.09375 84.010414L339.09375 89.416664L338.04688 89.416664ZM341.04688 89.416664L341.04688 84.010414L340.10938 84.010414L340.10938 83.197914L341.04688 83.197914L341.04688 82.52604Q341.04688 81.90104 341.15625 81.604164Q341.3125 81.18229 341.6875 80.93229Q342.07812 80.68229 342.76562 80.68229Q343.21875 80.68229 343.75 80.791664L343.59375 81.697914Q343.26562 81.65104 342.96875 81.65104Q342.48438 81.65104 342.28125 81.854164Q342.09375 82.05729 342.09375 82.61979L342.09375 83.197914L343.3125 83.197914L343.3125 84.010414L342.09375 84.010414L342.09375 89.416664L341.04688 89.416664ZM343.79688 82.041664L343.79688 80.822914L344.85938 80.822914L344.85938 82.041664L343.79688 82.041664ZM343.79688 89.416664L343.79688 83.197914L344.85938 83.197914L344.85938 89.416664L343.79688 89.416664ZM350.85938 87.135414L351.89062 87.27604Q351.71875 88.33854 351.01562 88.947914Q350.3125 89.55729 349.29688 89.55729Q348.01562 89.55729 347.23438 88.729164Q346.46875 87.885414 346.46875 86.322914Q346.46875 85.322914 346.79688 84.572914Q347.14062 83.80729 347.8125 83.43229Q348.5 83.05729 349.3125 83.05729Q350.3125 83.05729 350.95312 83.572914Q351.60938 84.072914 351.79688 85.02604L350.76562 85.18229Q350.625 84.55729 350.25 84.24479Q349.875 83.916664 349.34375 83.916664Q348.54688 83.916664 348.04688 84.49479Q347.54688 85.05729 347.54688 86.291664Q347.54688 87.55729 348.03125 88.11979Q348.51562 88.68229 349.28125 88.68229Q349.90625 88.68229 350.3125 88.30729Q350.73438 87.93229 350.85938 87.135414ZM357.04688 87.416664L358.14062 87.541664Q357.89062 88.49479 357.1875 89.02604Q356.48438 89.55729 355.40625 89.55729Q354.04688 89.55729 353.23438 88.71354Q352.4375 87.86979 352.4375 86.354164Q352.4375 84.791664 353.25 83.93229Q354.0625 83.05729 355.34375 83.05729Q356.59375 83.05729 357.375 83.90104Q358.17188 84.74479 358.17188 86.291664Q358.17188 86.385414 358.17188 86.572914L353.53125 86.572914Q353.59375 87.604164 354.10938 88.15104Q354.625 88.68229 355.40625 88.68229Q355.98438 88.68229 356.39062 88.385414Q356.8125 88.072914 357.04688 87.416664ZM353.59375 85.71354L357.0625 85.71354Q357.0 84.916664 356.67188 84.52604Q356.15625 83.916664 355.35938 83.916664Q354.625 83.916664 354.125 84.40104Q353.64062 84.885414 353.59375 85.71354ZM359.79688 89.416664L359.79688 83.197914L360.73438 83.197914L360.73438 84.072914Q361.42188 83.05729 362.71875 83.05729Q363.28125 83.05729 363.75 83.260414Q364.23438 83.46354 364.46875 83.791664Q364.70312 84.11979 364.79688 84.55729Q364.84375 84.854164 364.84375 85.58854L364.84375 89.416664L363.79688 89.416664L363.79688 85.635414Q363.79688 84.979164 363.67188 84.666664Q363.54688 84.354164 363.23438 84.166664Q362.92188 83.96354 362.5 83.96354Q361.82812 83.96354 361.32812 84.40104Q360.84375 84.822914 360.84375 86.010414L360.84375 89.416664L359.79688 89.416664ZM370.85938 87.135414L371.89062 87.27604Q371.71875 88.33854 371.01562 88.947914Q370.3125 89.55729 369.29688 89.55729Q368.01562 89.55729 367.23438 88.729164Q366.46875 87.885414 366.46875 86.322914Q366.46875 85.322914 366.79688 84.572914Q367.14062 83.80729 367.8125 83.43229Q368.5 83.05729 369.3125 83.05729Q370.3125 83.05729 370.95312 83.572914Q371.60938 84.072914 371.79688 85.02604L370.76562 85.18229Q370.625 84.55729 370.25 84.24479Q369.875 83.916664 369.34375 83.916664Q368.54688 83.916664 368.04688 84.49479Q367.54688 85.05729 367.54688 86.291664Q367.54688 87.55729 368.03125 88.11979Q368.51562 88.68229 369.28125 88.68229Q369.90625 88.68229 370.3125 88.30729Q370.73438 87.93229 370.85938 87.135414ZM372.75 91.80729L372.625 90.822914Q372.96875 90.916664 373.23438 90.916664Q373.57812 90.916664 373.78125 90.791664Q374.0 90.68229 374.14062 90.479164Q374.23438 90.30729 374.46875 89.68229Q374.48438 89.604164 374.5625 89.43229L372.1875 83.197914L373.32812 83.197914L374.625 86.791664Q374.875 87.479164 375.07812 88.24479Q375.26562 87.510414 375.51562 86.822914L376.84375 83.197914L377.89062 83.197914L375.53125 89.52604Q375.14062 90.541664 374.9375 90.93229Q374.65625 91.46354 374.28125 91.697914Q373.92188 91.947914 373.42188 91.947914Q373.125 91.947914 372.75 91.80729Z" fill-rule="nonzero"/><path fill="#a7aca8" d="M279.64062 53.034374L281.65625 53.034374L281.65625 59.378124Q281.65625 60.6125 281.4375 61.284374Q281.14062 62.159374 280.35938 62.690624Q279.59375 63.221874 278.32812 63.221874Q276.84375 63.221874 276.04688 62.39375Q275.25 61.565624 275.23438 59.95625L277.14062 59.7375Q277.1875 60.596874 277.40625 60.95625Q277.73438 61.4875 278.39062 61.4875Q279.07812 61.4875 279.35938 61.1125Q279.64062 60.721874 279.64062 59.503124L279.64062 53.034374ZM283.5625 59.315624Q283.5625 58.3625 284.03125 57.471874Q284.5 56.565624 285.35938 56.096874Q286.23438 55.628124 287.29688 55.628124Q288.95312 55.628124 290.0 56.70625Q291.04688 57.76875 291.04688 59.39375Q291.04688 61.05 289.98438 62.14375Q288.92188 63.221874 287.3125 63.221874Q286.3125 63.221874 285.40625 62.76875Q284.5 62.315624 284.03125 61.440624Q283.5625 60.565624 283.5625 59.315624ZM285.53125 59.425Q285.53125 60.503124 286.04688 61.08125Q286.5625 61.64375 287.3125 61.64375Q288.0625 61.64375 288.5625 61.08125Q289.07812 60.503124 289.07812 59.409374Q289.07812 58.346874 288.5625 57.76875Q288.0625 57.190624 287.3125 57.190624Q286.5625 57.190624 286.04688 57.76875Q285.53125 58.346874 285.53125 59.425ZM292.92188 63.05L292.92188 53.034374L294.84375 53.034374L294.84375 56.64375Q295.73438 55.628124 296.95312 55.628124Q298.28125 55.628124 299.14062 56.596874Q300.01562 57.55 300.01562 59.346874Q300.01562 61.20625 299.125 62.221874Q298.23438 63.221874 296.98438 63.221874Q296.35938 63.221874 295.75 62.909374Q295.14062 62.596874 294.70312 61.9875L294.70312 63.05L292.92188 63.05ZM294.82812 59.26875Q294.82812 60.39375 295.1875 60.925Q295.6875 61.690624 296.51562 61.690624Q297.14062 61.690624 297.59375 61.159374Q298.04688 60.6125 298.04688 59.440624Q298.04688 58.190624 297.59375 57.64375Q297.14062 57.096874 296.4375 57.096874Q295.75 57.096874 295.28125 57.64375Q294.82812 58.175 294.82812 59.26875ZM304.84375 52.9875Q306.29688 52.9875 307.125 54.01875Q308.09375 55.253124 308.09375 58.1125Q308.09375 60.95625 307.10938 62.190624Q306.29688 63.221874 304.84375 63.221874Q303.375 63.221874 302.48438 62.096874Q301.59375 60.971874 301.59375 58.08125Q301.59375 55.253124 302.57812 54.01875Q303.39062 52.9875 304.84375 52.9875ZM304.84375 54.58125Q304.5 54.58125 304.21875 54.8Q303.95312 55.01875 303.79688 55.596874Q303.59375 56.346874 303.59375 58.1125Q303.59375 59.878124 303.76562 60.534374Q303.95312 61.190624 304.21875 61.409374Q304.5 61.628124 304.84375 61.628124Q305.1875 61.628124 305.45312 61.409374Q305.73438 61.190624 305.89062 60.6125Q306.09375 59.878124 306.09375 58.1125Q306.09375 56.346874 305.90625 55.690624Q305.73438 55.01875 305.45312 54.8Q305.1875 54.58125 304.84375 54.58125ZM314.51562 63.05L312.59375 63.05L312.59375 55.815624Q311.53125 56.8 310.10938 57.26875L310.10938 55.51875Q310.85938 55.284374 311.73438 54.596874Q312.625 53.909374 312.95312 52.9875L314.51562 52.9875L314.51562 63.05ZM320.84375 52.9875Q322.29688 52.9875 323.125 54.01875Q324.09375 55.253124 324.09375 58.1125Q324.09375 60.95625 323.10938 62.190624Q322.29688 63.221874 320.84375 63.221874Q319.375 63.221874 318.48438 62.096874Q317.59375 60.971874 317.59375 58.08125Q317.59375 55.253124 318.57812 54.01875Q319.39062 52.9875 320.84375 52.9875ZM320.84375 54.58125Q320.5 54.58125 320.21875 54.8Q319.95312 55.01875 319.79688 55.596874Q319.59375 56.346874 319.59375 58.1125Q319.59375 59.878124 319.76562 60.534374Q319.95312 61.190624 320.21875 61.409374Q320.5 61.628124 320.84375 61.628124Q321.1875 61.628124 321.45312 61.409374Q321.73438 61.190624 321.89062 60.6125Q322.09375 59.878124 322.09375 58.1125Q322.09375 56.346874 321.90625 55.690624Q321.73438 55.01875 321.45312 54.8Q321.1875 54.58125 320.84375 54.58125Z" fill-rule="nonzero"/><path fill="#898f8a" d="M178.96875 37.55L178.96875 23.2375L185.04688 23.2375Q187.34375 23.2375 188.375 23.628124Q189.42188 24.003124 190.04688 24.9875Q190.67188 25.971874 190.67188 27.253124Q190.67188 28.8625 189.71875 29.909374Q188.78125 30.95625 186.89062 31.2375Q187.82812 31.784374 188.4375 32.440624Q189.04688 33.08125 190.09375 34.753124L191.84375 37.55L188.375 37.55L186.29688 34.440624Q185.17188 32.76875 184.76562 32.33125Q184.35938 31.89375 183.89062 31.7375Q183.4375 31.565624 182.4375 31.565624L181.85938 31.565624L181.85938 37.55L178.96875 37.55ZM181.85938 29.284374L184.0 29.284374Q186.07812 29.284374 186.59375 29.1125Q187.10938 28.940624 187.40625 28.51875Q187.70312 28.08125 187.70312 27.425Q187.70312 26.70625 187.3125 26.26875Q186.92188 25.815624 186.21875 25.70625Q185.875 25.659374 184.10938 25.659374L181.85938 25.659374L181.85938 29.284374ZM198.9375 34.253124L201.67188 34.70625Q201.15625 36.20625 200.01562 37.003124Q198.875 37.784374 197.17188 37.784374Q194.45312 37.784374 193.15625 36.01875Q192.14062 34.596874 192.14062 32.440624Q192.14062 29.8625 193.48438 28.409374Q194.82812 26.940624 196.89062 26.940624Q199.20312 26.940624 200.53125 28.471874Q201.875 30.003124 201.82812 33.159374L194.95312 33.159374Q194.98438 34.378124 195.60938 35.065624Q196.25 35.7375 197.1875 35.7375Q197.84375 35.7375 198.28125 35.39375Q198.71875 35.034374 198.9375 34.253124ZM199.09375 31.471874Q199.0625 30.284374 198.46875 29.675Q197.89062 29.05 197.0625 29.05Q196.15625 29.05 195.57812 29.690624Q194.98438 30.346874 195.0 31.471874L199.09375 31.471874ZM213.375 37.55L210.625 37.55L210.625 32.253124Q210.625 30.58125 210.45312 30.096874Q210.28125 29.596874 209.875 29.33125Q209.48438 29.05 208.92188 29.05Q208.21875 29.05 207.64062 29.440624Q207.07812 29.83125 206.85938 30.471874Q206.65625 31.1125 206.65625 32.846874L206.65625 37.55L203.92188 37.55L203.92188 27.175L206.46875 27.175L206.46875 28.70625Q207.82812 26.940624 209.89062 26.940624Q210.79688 26.940624 211.54688 27.26875Q212.29688 27.596874 212.67188 28.1125Q213.0625 28.6125 213.21875 29.26875Q213.375 29.909374 213.375 31.096874L213.375 37.55ZM225.45312 37.55L222.90625 37.55L222.90625 36.01875Q222.26562 36.909374 221.39062 37.346874Q220.53125 37.784374 219.65625 37.784374Q217.875 37.784374 216.59375 36.346874Q215.32812 34.909374 215.32812 32.33125Q215.32812 29.690624 216.5625 28.315624Q217.79688 26.940624 219.70312 26.940624Q221.4375 26.940624 222.70312 28.39375L222.70312 23.2375L225.45312 23.2375L225.45312 37.55ZM218.125 32.14375Q218.125 33.8 218.57812 34.534374Q219.25 35.6125 220.4375 35.6125Q221.39062 35.6125 222.04688 34.815624Q222.71875 34.003124 222.71875 32.409374Q222.71875 30.6125 222.0625 29.83125Q221.42188 29.05 220.42188 29.05Q219.4375 29.05 218.78125 29.83125Q218.125 30.596874 218.125 32.14375ZM227.9375 25.76875L227.9375 23.2375L230.6875 23.2375L230.6875 25.76875L227.9375 25.76875ZM227.9375 37.55L227.9375 27.175L230.6875 27.175L230.6875 37.55L227.9375 37.55ZM232.73438 27.175L235.26562 27.175L235.26562 28.596874Q236.625 26.940624 238.5 26.940624Q239.48438 26.940624 240.21875 27.3625Q240.95312 27.76875 241.42188 28.596874Q242.10938 27.76875 242.89062 27.3625Q243.6875 26.940624 244.59375 26.940624Q245.73438 26.940624 246.51562 27.409374Q247.3125 27.878124 247.70312 28.76875Q247.98438 29.440624 247.98438 30.925L247.98438 37.55L245.23438 37.55L245.23438 31.628124Q245.23438 30.08125 244.95312 29.628124Q244.57812 29.05 243.78125 29.05Q243.20312 29.05 242.6875 29.409374Q242.1875 29.753124 241.96875 30.425Q241.75 31.096874 241.75 32.565624L241.75 37.55L239.0 37.55L239.0 31.8625Q239.0 30.346874 238.84375 29.909374Q238.70312 29.471874 238.39062 29.26875Q238.09375 29.05 237.5625 29.05Q236.9375 29.05 236.42188 29.39375Q235.92188 29.721874 235.6875 30.378124Q235.46875 31.01875 235.46875 32.503124L235.46875 37.55L232.73438 37.55L232.73438 27.175ZM249.9375 25.76875L249.9375 23.2375L252.6875 23.2375L252.6875 25.76875L249.9375 25.76875ZM249.9375 37.55L249.9375 27.175L252.6875 27.175L252.6875 37.55L249.9375 37.55ZM260.9375 34.253124L263.67188 34.70625Q263.15625 36.20625 262.01562 37.003124Q260.875 37.784374 259.17188 37.784374Q256.45312 37.784374 255.15625 36.01875Q254.14062 34.596874 254.14062 32.440624Q254.14062 29.8625 255.48438 28.409374Q256.82812 26.940624 258.89062 26.940624Q261.20312 26.940624 262.53125 28.471874Q263.875 30.003124 263.82812 33.159374L256.95312 33.159374Q256.98438 34.378124 257.60938 35.065624Q258.25 35.7375 259.1875 35.7375Q259.84375 35.7375 260.28125 35.39375Q260.71875 35.034374 260.9375 34.253124ZM261.09375 31.471874Q261.0625 30.284374 260.46875 29.675Q259.89062 29.05 259.0625 29.05Q258.15625 29.05 257.57812 29.690624Q256.98438 30.346874 257.0 31.471874L261.09375 31.471874ZM275.375 37.55L272.625 37.55L272.625 32.253124Q272.625 30.58125 272.45312 30.096874Q272.28125 29.596874 271.875 29.33125Q271.48438 29.05 270.92188 29.05Q270.21875 29.05 269.64062 29.440624Q269.07812 29.83125 268.85938 30.471874Q268.65625 31.1125 268.65625 32.846874L268.65625 37.55L265.92188 37.55L265.92188 27.175L268.46875 27.175L268.46875 28.70625Q269.82812 26.940624 271.89062 26.940624Q272.79688 26.940624 273.54688 27.26875Q274.29688 27.596874 274.67188 28.1125Q275.0625 28.6125 275.21875 29.26875Q275.375 29.909374 275.375 31.096874L275.375 37.55ZM282.6875 27.175L282.6875 29.3625L280.8125 29.3625L280.8125 33.55Q280.8125 34.815624 280.85938 35.034374Q280.92188 35.2375 281.10938 35.378124Q281.3125 35.503124 281.57812 35.503124Q281.95312 35.503124 282.6875 35.2375L282.92188 37.378124Q281.95312 37.784374 280.75 37.784374Q280.0 37.784374 279.40625 37.534374Q278.8125 37.284374 278.53125 36.89375Q278.26562 36.4875 278.15625 35.815624Q278.0625 35.346874 278.0625 33.89375L278.0625 29.3625L276.79688 29.3625L276.79688 27.175L278.0625 27.175L278.0625 25.1125L280.8125 23.51875L280.8125 27.175L282.6875 27.175ZM284.29688 32.221874Q284.29688 30.846874 284.96875 29.565624Q285.65625 28.284374 286.89062 27.6125Q288.125 26.940624 289.64062 26.940624Q292.0 26.940624 293.5 28.471874Q295.0 30.003124 295.0 32.33125Q295.0 34.690624 293.48438 36.2375Q291.96875 37.784374 289.65625 37.784374Q288.23438 37.784374 286.9375 37.14375Q285.65625 36.4875 284.96875 35.253124Q284.29688 34.003124 284.29688 32.221874ZM287.10938 32.3625Q287.10938 33.909374 287.84375 34.7375Q288.57812 35.55 289.65625 35.55Q290.73438 35.55 291.45312 34.7375Q292.1875 33.909374 292.1875 32.346874Q292.1875 30.815624 291.45312 30.003124Q290.73438 29.175 289.65625 29.175Q288.57812 29.175 287.84375 30.003124Q287.10938 30.815624 287.10938 32.3625ZM312.45312 37.55L309.90625 37.55L309.90625 36.01875Q309.26562 36.909374 308.39062 37.346874Q307.53125 37.784374 306.65625 37.784374Q304.875 37.784374 303.59375 36.346874Q302.32812 34.909374 302.32812 32.33125Q302.32812 29.690624 303.5625 28.315624Q304.79688 26.940624 306.70312 26.940624Q308.4375 26.940624 309.70312 28.39375L309.70312 23.2375L312.45312 23.2375L312.45312 37.55ZM305.125 32.14375Q305.125 33.8 305.57812 34.534374Q306.25 35.6125 307.4375 35.6125Q308.39062 35.6125 309.04688 34.815624Q309.71875 34.003124 309.71875 32.409374Q309.71875 30.6125 309.0625 29.83125Q308.42188 29.05 307.42188 29.05Q306.4375 29.05 305.78125 29.83125Q305.125 30.596874 305.125 32.14375ZM320.9375 34.253124L323.67188 34.70625Q323.15625 36.20625 322.01562 37.003124Q320.875 37.784374 319.17188 37.784374Q316.45312 37.784374 315.15625 36.01875Q314.14062 34.596874 314.14062 32.440624Q314.14062 29.8625 315.48438 28.409374Q316.82812 26.940624 318.89062 26.940624Q321.20312 26.940624 322.53125 28.471874Q323.875 30.003124 323.82812 33.159374L316.95312 33.159374Q316.98438 34.378124 317.60938 35.065624Q318.25 35.7375 319.1875 35.7375Q319.84375 35.7375 320.28125 35.39375Q320.71875 35.034374 320.9375 34.253124ZM321.09375 31.471874Q321.0625 30.284374 320.46875 29.675Q319.89062 29.05 319.0625 29.05Q318.15625 29.05 317.57812 29.690624Q316.98438 30.346874 317.0 31.471874L321.09375 31.471874ZM331.95312 37.55L331.95312 23.2375L336.59375 23.2375Q339.23438 23.2375 340.03125 23.440624Q341.26562 23.76875 342.09375 24.846874Q342.92188 25.925 342.92188 27.64375Q342.92188 28.95625 342.4375 29.8625Q341.96875 30.753124 341.21875 31.26875Q340.48438 31.784374 339.73438 31.940624Q338.6875 32.14375 336.73438 32.14375L334.84375 32.14375L334.84375 37.55L331.95312 37.55ZM334.84375 25.659374L334.84375 29.721874L336.42188 29.721874Q338.14062 29.721874 338.71875 29.503124Q339.29688 29.26875 339.60938 28.8Q339.9375 28.315624 339.9375 27.675Q339.9375 26.89375 339.48438 26.39375Q339.03125 25.878124 338.32812 25.753124Q337.8125 25.659374 336.25 25.659374L334.84375 25.659374ZM347.5625 37.55L344.8125 37.55L344.8125 27.175L347.375 27.175L347.375 28.659374Q348.01562 27.6125 348.53125 27.284374Q349.0625 26.940624 349.73438 26.940624Q350.67188 26.940624 351.53125 27.45625L350.6875 29.846874Q350.0 29.409374 349.40625 29.409374Q348.82812 29.409374 348.42188 29.721874Q348.01562 30.034374 347.78125 30.878124Q347.5625 31.70625 347.5625 34.346874L347.5625 37.55ZM352.29688 32.221874Q352.29688 30.846874 352.96875 29.565624Q353.65625 28.284374 354.89062 27.6125Q356.125 26.940624 357.64062 26.940624Q360.0 26.940624 361.5 28.471874Q363.0 30.003124 363.0 32.33125Q363.0 34.690624 361.48438 36.2375Q359.96875 37.784374 357.65625 37.784374Q356.23438 37.784374 354.9375 37.14375Q353.65625 36.4875 352.96875 35.253124Q352.29688 34.003124 352.29688 32.221874ZM355.10938 32.3625Q355.10938 33.909374 355.84375 34.7375Q356.57812 35.55 357.65625 35.55Q358.73438 35.55 359.45312 34.7375Q360.1875 33.909374 360.1875 32.346874Q360.1875 30.815624 359.45312 30.003124Q358.73438 29.175 357.65625 29.175Q356.57812 29.175 355.84375 30.003124Q355.10938 30.815624 355.10938 32.3625ZM364.6875 38.2375L367.8125 38.6125Q367.89062 39.159374 368.17188 39.3625Q368.5625 39.659374 369.40625 39.659374Q370.48438 39.659374 371.01562 39.33125Q371.375 39.128124 371.5625 38.64375Q371.6875 38.3 371.6875 37.378124L371.6875 35.8625Q370.46875 37.55 368.59375 37.55Q366.5 37.55 365.28125 35.784374Q364.32812 34.378124 364.32812 32.3Q364.32812 29.690624 365.57812 28.315624Q366.82812 26.940624 368.70312 26.940624Q370.625 26.940624 371.875 28.628124L371.875 27.175L374.4375 27.175L374.4375 36.4875Q374.4375 38.315624 374.125 39.221874Q373.82812 40.14375 373.28125 40.659374Q372.73438 41.175 371.8125 41.45625Q370.90625 41.753124 369.51562 41.753124Q366.875 41.753124 365.76562 40.846874Q364.67188 39.95625 364.67188 38.565624Q364.67188 38.425 364.6875 38.2375ZM367.14062 32.14375Q367.14062 33.8 367.76562 34.565624Q368.40625 35.33125 369.34375 35.33125Q370.35938 35.33125 371.04688 34.55Q371.75 33.753124 371.75 32.221874Q371.75 30.6125 371.07812 29.83125Q370.42188 29.05 369.40625 29.05Q368.40625 29.05 367.76562 29.815624Q367.14062 30.58125 367.14062 32.14375ZM379.5625 37.55L376.8125 37.55L376.8125 27.175L379.375 27.175L379.375 28.659374Q380.01562 27.6125 380.53125 27.284374Q381.0625 26.940624 381.73438 26.940624Q382.67188 26.940624 383.53125 27.45625L382.6875 29.846874Q382.0 29.409374 381.40625 29.409374Q380.82812 29.409374 380.42188 29.721874Q380.01562 30.034374 379.78125 30.878124Q379.5625 31.70625 379.5625 34.346874L379.5625 37.55ZM386.98438 30.346874L384.5 29.89375Q384.92188 28.39375 385.9375 27.675Q386.96875 26.940624 388.98438 26.940624Q390.82812 26.940624 391.71875 27.378124Q392.625 27.815624 392.98438 28.4875Q393.35938 29.14375 393.35938 30.940624L393.32812 34.14375Q393.32812 35.503124 393.45312 36.159374Q393.59375 36.8 393.95312 37.55L391.23438 37.55Q391.125 37.26875 390.96875 36.7375Q390.90625 36.4875 390.875 36.409374Q390.17188 37.096874 389.35938 37.440624Q388.5625 37.784374 387.65625 37.784374Q386.0625 37.784374 385.14062 36.925Q384.21875 36.05 384.21875 34.721874Q384.21875 33.83125 384.625 33.14375Q385.04688 32.45625 385.79688 32.096874Q386.5625 31.721874 388.0 31.45625Q389.92188 31.096874 390.65625 30.784374L390.65625 30.503124Q390.65625 29.721874 390.26562 29.39375Q389.875 29.05 388.79688 29.05Q388.0625 29.05 387.64062 29.33125Q387.23438 29.6125 386.98438 30.346874ZM390.65625 32.565624Q390.125 32.7375 388.98438 32.9875Q387.84375 33.2375 387.5 33.471874Q386.95312 33.846874 386.95312 34.440624Q386.95312 35.003124 387.375 35.425Q387.8125 35.846874 388.48438 35.846874Q389.21875 35.846874 389.89062 35.3625Q390.39062 34.9875 390.54688 34.45625Q390.65625 34.096874 390.65625 33.1125L390.65625 32.565624ZM395.73438 27.175L398.26562 27.175L398.26562 28.596874Q399.625 26.940624 401.5 26.940624Q402.48438 26.940624 403.21875 27.3625Q403.95312 27.76875 404.42188 28.596874Q405.10938 27.76875 405.89062 27.3625Q406.6875 26.940624 407.59375 26.940624Q408.73438 26.940624 409.51562 27.409374Q410.3125 27.878124 410.70312 28.76875Q410.98438 29.440624 410.98438 30.925L410.98438 37.55L408.23438 37.55L408.23438 31.628124Q408.23438 30.08125 407.95312 29.628124Q407.57812 29.05 406.78125 29.05Q406.20312 29.05 405.6875 29.409374Q405.1875 29.753124 404.96875 30.425Q404.75 31.096874 404.75 32.565624L404.75 37.55L402.0 37.55L402.0 31.8625Q402.0 30.346874 401.84375 29.909374Q401.70312 29.471874 401.39062 29.26875Q401.09375 29.05 400.5625 29.05Q399.9375 29.05 399.42188 29.39375Q398.92188 29.721874 398.6875 30.378124Q398.46875 31.01875 398.46875 32.503124L398.46875 37.55L395.73438 37.55L395.73438 27.175ZM414.98438 30.346874L412.5 29.89375Q412.92188 28.39375 413.9375 27.675Q414.96875 26.940624 416.98438 26.940624Q418.82812 26.940624 419.71875 27.378124Q420.625 27.815624 420.98438 28.4875Q421.35938 29.14375 421.35938 30.940624L421.32812 34.14375Q421.32812 35.503124 421.45312 36.159374Q421.59375 36.8 421.95312 37.55L419.23438 37.55Q419.125 37.26875 418.96875 36.7375Q418.90625 36.4875 418.875 36.409374Q418.17188 37.096874 417.35938 37.440624Q416.5625 37.784374 415.65625 37.784374Q414.0625 37.784374 413.14062 36.925Q412.21875 36.05 412.21875 34.721874Q412.21875 33.83125 412.625 33.14375Q413.04688 32.45625 413.79688 32.096874Q414.5625 31.721874 416.0 31.45625Q417.92188 31.096874 418.65625 30.784374L418.65625 30.503124Q418.65625 29.721874 418.26562 29.39375Q417.875 29.05 416.79688 29.05Q416.0625 29.05 415.64062 29.33125Q415.23438 29.6125 414.98438 30.346874ZM418.65625 32.565624Q418.125 32.7375 416.98438 32.9875Q415.84375 33.2375 415.5 33.471874Q414.95312 33.846874 414.95312 34.440624Q414.95312 35.003124 415.375 35.425Q415.8125 35.846874 416.48438 35.846874Q417.21875 35.846874 417.89062 35.3625Q418.39062 34.9875 418.54688 34.45625Q418.65625 34.096874 418.65625 33.1125L418.65625 32.565624Z" fill-rule="nonzero"/></svg>