<svg version="1.1" viewBox="0.0 0.0 600.0 371.0" fill="none" stroke="none" stroke-linecap="square" stroke-miterlimit="10" width="600" height="371" xmlns:xlink="http://www.w3.org/1999/xlink" xmlns="http://www.w3.org/2000/svg"><path fill="#ffffff" d="M0 0L600.0 0L600.0 371.0L0 371.0L0 0Z" fill-rule="nonzero"/><path stroke="#333333" stroke-width="1.0" stroke-linecap="butt" d="M101.5 300.5L581.5 300.5" fill-rule="nonzero"/><path stroke="#cccccc" stroke-width="1.0" stroke-linecap="butt" d="M101.5 257.5L581.5 257.5" fill-rule="nonzero"/><path stroke="#cccccc" stroke-width="1.0" stroke-linecap="butt" d="M101.5 214.5L581.5 214.5" fill-rule="nonzero"/><path stroke="#cccccc" stroke-width="1.0" stroke-linecap="butt" d="M101.5 171.5L581.5 171.5" fill-rule="nonzero"/><path stroke="#cccccc" stroke-width="1.0" stroke-linecap="butt" d="M101.5 128.5L581.5 128.5" fill-rule="nonzero"/><path stroke="#cccccc" stroke-width="1.0" stroke-linecap="butt" d="M101.5 85.5L581.5 85.5" fill-rule="nonzero"/><clipPath id="id_0"><path d="M101.55 85.416664L581.45 85.416664L581.45 300.45L101.55 300.45L101.55 85.416664Z" clip-rule="nonzero"/></clipPath><path stroke="#000000" stroke-width="2.0" stroke-linecap="butt" stroke-opacity="0.0" clip-path="url(#id_0)" d="M245.0 300.0L152.0 300.0L152.0 116.0C152.0 114.89543 152.89543 114.0 154.0 114.0L243.0 114.0C244.10457 114.0 245.0 114.89543 245.0 116.0Z" fill-rule="nonzero"/><path fill="#608f66" clip-path="url(#id_0)" d="M245.0 300.0L152.0 300.0L152.0 116.0C152.0 114.89543 152.89543 114.0 154.0 114.0L243.0 114.0C244.10457 114.0 245.0 114.89543 245.0 116.0Z" fill-rule="nonzero"/><path stroke="#000000" stroke-width="2.0" stroke-linecap="butt" stroke-opacity="0.0" clip-path="url(#id_0)" d="M389.0 300.0L296.0 300.0L296.0 239.0C296.0 237.89543 296.89542 237.0 298.0 237.0L387.0 237.0C388.10458 237.0 389.0 237.89543 389.0 239.0Z" fill-rule="nonzero"/><path fill="#608f66" clip-path="url(#id_0)" d="M389.0 300.0L296.0 300.0L296.0 239.0C296.0 237.89543 296.89542 237.0 298.0 237.0L387.0 237.0C388.10458 237.0 389.0 237.89543 389.0 239.0Z" fill-rule="nonzero"/><path stroke="#000000" stroke-width="2.0" stroke-linecap="butt" stroke-opacity="0.0" clip-path="url(#id_0)" d="M532.0 300.0L439.0 300.0L439.0 267.0C439.0 265.89542 439.89542 265.0 441.0 265.0L530.0 265.0C531.10455 265.0 532.0 265.89542 532.0 267.0Z" fill-rule="nonzero"/><path fill="#608f66" clip-path="url(#id_0)" d="M532.0 300.0L439.0 300.0L439.0 267.0C439.0 265.89542 439.89542 265.0 441.0 265.0L530.0 265.0C531.10455 265.0 532.0 265.89542 532.0 267.0Z" fill-rule="nonzero"/><path fill="#242f26" d="M320.8125 349.45L320.8125 342.3094L318.26562 342.3094L318.26562 340.85626L325.07812 340.85626L325.07812 342.3094L322.54688 342.3094L322.54688 349.45L320.8125 349.45ZM327.5 340.85626L327.5 344.0125Q328.29688 343.09064 329.40625 343.09064Q329.96875 343.09064 330.42188 343.3094Q330.89062 343.5125 331.125 343.84064Q331.35938 344.16876 331.4375 344.575Q331.51562 344.96564 331.51562 345.79376L331.51562 349.45L329.875 349.45L329.875 346.16876Q329.875 345.1844 329.78125 344.91876Q329.6875 344.65314 329.45312 344.4969Q329.21875 344.34064 328.85938 344.34064Q328.45312 344.34064 328.125 344.54376Q327.79688 344.7469 327.64062 345.15314Q327.5 345.54376 327.5 346.325L327.5 349.45L325.85938 349.45L325.85938 340.85626L327.5 340.85626ZM334.4375 349.45L332.79688 349.45L332.79688 343.23126L334.32812 343.23126L334.32812 344.10626Q334.71875 343.48126 335.03125 343.29376Q335.34375 343.09064 335.73438 343.09064Q336.29688 343.09064 336.82812 343.40314L336.3125 344.825Q335.89062 344.5594 335.54688 344.5594Q335.1875 344.5594 334.95312 344.7625Q334.71875 344.95 334.57812 345.45Q334.4375 345.9344 334.4375 347.52814L334.4375 349.45ZM341.46875 347.46564L343.10938 347.7469Q342.79688 348.65314 342.10938 349.1219Q341.42188 349.59064 340.40625 349.59064Q338.78125 349.59064 338.0 348.52814Q337.375 347.6844 337.375 346.3875Q337.375 344.84064 338.1875 343.96564Q339.0 343.09064 340.23438 343.09064Q341.625 343.09064 342.42188 344.0125Q343.23438 344.91876 343.1875 346.8094L339.0625 346.8094Q339.09375 347.54376 339.46875 347.95Q339.84375 348.35626 340.42188 348.35626Q340.79688 348.35626 341.0625 348.15314Q341.32812 347.9344 341.46875 347.46564ZM341.5625 345.8094Q341.54688 345.09064 341.1875 344.71564Q340.84375 344.34064 340.32812 344.34064Q339.79688 344.34064 339.4375 344.73126Q339.09375 345.1375 339.09375 345.8094L341.5625 345.8094ZM346.09375 345.1219L344.59375 344.85626Q344.84375 343.95 345.45312 343.52814Q346.07812 343.09064 347.29688 343.09064Q348.39062 343.09064 348.92188 343.35626Q349.46875 343.60626 349.6875 344.0125Q349.90625 344.40314 349.90625 345.48126L349.89062 347.40314Q349.89062 348.23126 349.96875 348.6219Q350.04688 348.9969 350.26562 349.45L348.64062 349.45Q348.57812 349.27814 348.48438 348.96564Q348.4375 348.8094 348.42188 348.7625Q348.0 349.1844 347.51562 349.3875Q347.04688 349.59064 346.5 349.59064Q345.53125 349.59064 344.96875 349.075Q344.42188 348.54376 344.42188 347.7469Q344.42188 347.21564 344.67188 346.8094Q344.9375 346.40314 345.39062 346.1844Q345.84375 345.95 346.70312 345.79376Q347.84375 345.575 348.29688 345.3875L348.29688 345.23126Q348.29688 344.7469 348.0625 344.54376Q347.82812 344.34064 347.17188 344.34064Q346.73438 344.34064 346.48438 344.5125Q346.25 344.6844 346.09375 345.1219ZM348.29688 346.46564Q347.98438 346.5594 347.29688 346.71564Q346.60938 346.85626 346.39062 346.9969Q346.07812 347.23126 346.07812 347.575Q346.07812 347.91876 346.32812 348.1844Q346.59375 348.4344 346.98438 348.4344Q347.4375 348.4344 347.84375 348.1375Q348.14062 347.91876 348.23438 347.59064Q348.29688 347.3875 348.29688 346.79376L348.29688 346.46564ZM357.5625 349.45L356.04688 349.45L356.04688 348.52814Q355.65625 349.075 355.14062 349.34064Q354.625 349.59064 354.09375 349.59064Q353.01562 349.59064 352.25 348.73126Q351.5 347.85626 351.5 346.3094Q351.5 344.73126 352.23438 343.91876Q352.98438 343.09064 354.125 343.09064Q355.15625 343.09064 355.92188 343.95L355.92188 340.85626L357.5625 340.85626L357.5625 349.45ZM353.17188 346.2Q353.17188 347.2 353.45312 347.6375Q353.84375 348.29376 354.5625 348.29376Q355.125 348.29376 355.51562 347.8094Q355.92188 347.325 355.92188 346.35626Q355.92188 345.29376 355.53125 344.825Q355.15625 344.34064 354.54688 344.34064Q353.96875 344.34064 353.5625 344.8094Q353.17188 345.27814 353.17188 346.2ZM358.28125 347.66876L359.9375 347.41876Q360.04688 347.90314 360.35938 348.15314Q360.6875 348.40314 361.26562 348.40314Q361.90625 348.40314 362.21875 348.16876Q362.4375 347.9969 362.4375 347.73126Q362.4375 347.54376 362.32812 347.41876Q362.20312 347.29376 361.78125 347.2Q359.78125 346.7625 359.25 346.40314Q358.51562 345.8875 358.51562 344.9969Q358.51562 344.1844 359.14062 343.6375Q359.78125 343.09064 361.125 343.09064Q362.40625 343.09064 363.03125 343.5125Q363.65625 343.91876 363.89062 344.73126L362.32812 345.0125Q362.23438 344.65314 361.95312 344.46564Q361.67188 344.2625 361.15625 344.2625Q360.51562 344.2625 360.23438 344.45Q360.04688 344.575 360.04688 344.77814Q360.04688 344.96564 360.20312 345.09064Q360.42188 345.2469 361.73438 345.54376Q363.0625 345.84064 363.57812 346.27814Q364.09375 346.71564 364.09375 347.4969Q364.09375 348.35626 363.375 348.98126Q362.67188 349.59064 361.26562 349.59064Q360.0 349.59064 359.25 349.075Q358.51562 348.5594 358.28125 347.66876Z" fill-rule="nonzero"/><path fill="#242f26" d="M26.753138 227.49583L26.596888 225.80833Q27.440638 225.65208 27.846888 225.19896Q28.237513 224.73021 28.237513 223.93333Q28.237513 223.10521 27.893763 222.68333Q27.534388 222.24583 27.050013 222.24583Q26.753138 222.24583 26.534388 222.43333Q26.315638 222.60521 26.159388 223.05833Q26.050013 223.35521 25.784388 224.43333Q25.440638 225.83958 24.940638 226.40208Q24.221888 227.18333 23.206263 227.18333Q22.550013 227.18333 21.987513 226.82396Q21.409388 226.44896 21.112513 225.74583Q20.815638 225.04271 20.815638 224.05833Q20.815638 222.43333 21.534388 221.62083Q22.237513 220.80833 23.409388 220.76146L23.487513 222.49583Q22.831263 222.60521 22.550013 222.98021Q22.253138 223.33958 22.253138 224.07396Q22.253138 224.82396 22.565638 225.26146Q22.753138 225.52708 23.096888 225.52708Q23.393763 225.52708 23.612513 225.27708Q23.893763 224.94896 24.190638 223.68333Q24.487513 222.41771 24.815638 221.80833Q25.128138 221.19896 25.690638 220.85521Q26.237513 220.51146 27.050013 220.51146Q27.784388 220.51146 28.440638 220.93333Q29.081263 221.33958 29.393763 222.08958Q29.706263 222.83958 29.706263 223.94896Q29.706263 225.58958 28.956263 226.46458Q28.190638 227.32396 26.753138 227.49583ZM27.565638 215.46458L27.846888 213.82396Q28.753138 214.13646 29.221888 214.82396Q29.690638 215.51146 29.690638 216.52708Q29.690638 218.15208 28.628138 218.93333Q27.784388 219.55833 26.487513 219.55833Q24.940638 219.55833 24.065638 218.74583Q23.190638 217.93333 23.190638 216.69896Q23.190638 215.30833 24.112513 214.51146Q25.018763 213.69896 26.909388 213.74583L26.909388 217.87083Q27.643763 217.83958 28.050013 217.46458Q28.456263 217.08958 28.456263 216.51146Q28.456263 216.13646 28.253138 215.87083Q28.034388 215.60521 27.565638 215.46458ZM25.909388 215.37083Q25.190638 215.38646 24.815638 215.74583Q24.440638 216.08958 24.440638 216.60521Q24.440638 217.13646 24.831263 217.49583Q25.237513 217.83958 25.909388 217.83958L25.909388 215.37083ZM29.956263 212.23021L30.190638 210.33958Q30.518763 210.29271 30.643763 210.12083Q30.815638 209.88646 30.815638 209.38646Q30.815638 208.74583 30.628138 208.41771Q30.487513 208.19896 30.206263 208.08958Q30.003138 208.01146 29.456263 208.01146L28.534388 208.01146Q29.550013 208.76146 29.550013 209.88646Q29.550013 211.13646 28.487513 211.87083Q27.643763 212.43333 26.409388 212.43333Q24.831263 212.43333 24.018763 211.68333Q23.190638 210.93333 23.190638 209.80833Q23.190638 208.66771 24.206263 207.91771L23.331263 207.91771L23.331263 206.37083L28.909388 206.37083Q30.018763 206.37083 30.550013 206.55833Q31.096888 206.73021 31.409388 207.05833Q31.721888 207.38646 31.893763 207.93333Q32.08126 208.48021 32.08126 209.32396Q32.08126 210.90208 31.534388 211.57396Q30.987513 212.23021 30.159388 212.23021Q30.081263 212.23021 29.956263 212.23021ZM26.315638 210.74583Q27.300013 210.74583 27.768763 210.37083Q28.221888 209.98021 28.221888 209.41771Q28.221888 208.82396 27.753138 208.40208Q27.268763 207.98021 26.346888 207.98021Q25.378138 207.98021 24.909388 208.38646Q24.440638 208.77708 24.440638 209.38646Q24.440638 209.98021 24.909388 210.37083Q25.362513 210.74583 26.315638 210.74583ZM29.550013 200.98021L28.612513 200.98021Q29.112513 201.30833 29.409388 201.87083Q29.690638 202.41771 29.690638 203.04271Q29.690638 203.66771 29.425013 204.16771Q29.143763 204.66771 28.643763 204.88646Q28.143763 205.10521 27.268763 205.10521L23.331263 205.10521L23.331263 203.46458L26.190638 203.46458Q27.503138 203.46458 27.800013 203.37083Q28.096888 203.27708 28.268763 203.04271Q28.440638 202.79271 28.440638 202.43333Q28.440638 202.01146 28.206263 201.68333Q27.971888 201.33958 27.628138 201.21458Q27.284388 201.08958 25.956263 201.08958L23.331263 201.08958L23.331263 199.44896L29.550013 199.44896L29.550013 200.98021ZM29.550013 192.41771L29.550013 194.05833L26.378138 194.05833Q25.362513 194.05833 25.065638 194.16771Q24.768763 194.26146 24.612513 194.51146Q24.440638 194.74583 24.440638 195.07396Q24.440638 195.51146 24.675013 195.85521Q24.909388 196.18333 25.300013 196.30833Q25.690638 196.43333 26.737513 196.43333L29.550013 196.43333L29.550013 198.08958L23.331263 198.08958L23.331263 196.55833L24.237513 196.55833Q23.190638 195.74583 23.190638 194.49583Q23.190638 193.96458 23.393763 193.51146Q23.581263 193.05833 23.893763 192.82396Q24.190638 192.58958 24.581263 192.51146Q24.956263 192.41771 25.675013 192.41771L29.550013 192.41771ZM29.550013 185.37083L29.550013 186.88646L28.628138 186.88646Q29.175013 187.27708 29.440638 187.79271Q29.690638 188.30833 29.690638 188.83958Q29.690638 189.91771 28.831263 190.68333Q27.956263 191.43333 26.409388 191.43333Q24.831263 191.43333 24.018763 190.69896Q23.190638 189.94896 23.190638 188.80833Q23.190638 187.77708 24.050013 187.01146L20.956263 187.01146L20.956263 185.37083L29.550013 185.37083ZM26.300013 189.76146Q27.300013 189.76146 27.737513 189.48021Q28.393763 189.08958 28.393763 188.37083Q28.393763 187.80833 27.909388 187.41771Q27.425013 187.01146 26.456263 187.01146Q25.393763 187.01146 24.925013 187.40208Q24.440638 187.77708 24.440638 188.38646Q24.440638 188.96458 24.909388 189.37083Q25.378138 189.76146 26.300013 189.76146ZM26.346888 184.44896Q25.534388 184.44896 24.768763 184.04271Q23.987513 183.63646 23.596888 182.90208Q23.190638 182.16771 23.190638 181.24583Q23.190638 179.83958 24.112513 178.93333Q25.018763 178.02708 26.425013 178.02708Q27.831263 178.02708 28.768763 178.94896Q29.690638 179.85521 29.690638 181.23021Q29.690638 182.08958 29.300013 182.87083Q28.909388 183.63646 28.175013 184.04271Q27.425013 184.44896 26.346888 184.44896ZM26.440638 182.76146Q27.362513 182.76146 27.862513 182.32396Q28.346888 181.88646 28.346888 181.24583Q28.346888 180.58958 27.862513 180.16771Q27.362513 179.73021 26.425013 179.73021Q25.518763 179.73021 25.034388 180.16771Q24.534388 180.58958 24.534388 181.24583Q24.534388 181.88646 25.034388 182.32396Q25.518763 182.76146 26.440638 182.76146ZM27.768763 177.65208L27.518763 175.99583Q28.003138 175.88646 28.253138 175.57396Q28.503138 175.24583 28.503138 174.66771Q28.503138 174.02708 28.268763 173.71458Q28.096888 173.49583 27.831263 173.49583Q27.643763 173.49583 27.518763 173.60521Q27.393763 173.73021 27.300013 174.15208Q26.862513 176.15208 26.503138 176.68333Q25.987513 177.41771 25.096888 177.41771Q24.284388 177.41771 23.737513 176.79271Q23.190638 176.15208 23.190638 174.80833Q23.190638 173.52708 23.612513 172.90208Q24.018763 172.27708 24.831263 172.04271L25.112513 173.60521Q24.753138 173.69896 24.565638 173.98021Q24.362513 174.26146 24.362513 174.77708Q24.362513 175.41771 24.550013 175.69896Q24.675013 175.88646 24.878138 175.88646Q25.065638 175.88646 25.190638 175.73021Q25.346888 175.51146 25.643763 174.19896Q25.940638 172.87083 26.378138 172.35521Q26.815638 171.83958 27.596888 171.83958Q28.456263 171.83958 29.081263 172.55833Q29.690638 173.26146 29.690638 174.66771Q29.690638 175.93333 29.175013 176.68333Q28.659388 177.41771 27.768763 177.65208Z" fill-rule="nonzero"/><path fill="#242f26" d="M72.05 300.21564Q72.05 298.6844 72.3625 297.7625Q72.675 296.825 73.28438 296.325Q73.90938 295.825 74.84688 295.825Q75.53438 295.825 76.05 296.10626Q76.58125 296.3875 76.925 296.91876Q77.26875 297.4344 77.45625 298.1844Q77.64375 298.9344 77.64375 300.21564Q77.64375 301.73126 77.33125 302.65314Q77.03438 303.575 76.40938 304.09064Q75.8 304.59064 74.84688 304.59064Q73.6125 304.59064 72.89375 303.7Q72.05 302.6375 72.05 300.21564ZM73.12813 300.21564Q73.12813 302.325 73.62813 303.02814Q74.12813 303.73126 74.84688 303.73126Q75.58125 303.73126 76.06563 303.02814Q76.56563 302.325 76.56563 300.21564Q76.56563 298.09064 76.06563 297.40314Q75.58125 296.7 74.83125 296.7Q74.1125 296.7 73.675 297.3094Q73.12813 298.09064 73.12813 300.21564ZM79.64375 304.45L79.64375 303.2469L80.84688 303.2469L80.84688 304.45L79.64375 304.45ZM82.05 300.21564Q82.05 298.6844 82.3625 297.7625Q82.675 296.825 83.28438 296.325Q83.90938 295.825 84.84688 295.825Q85.53438 295.825 86.05 296.10626Q86.58125 296.3875 86.925 296.91876Q87.26875 297.4344 87.45625 298.1844Q87.64375 298.9344 87.64375 300.21564Q87.64375 301.73126 87.33125 302.65314Q87.03438 303.575 86.40938 304.09064Q85.8 304.59064 84.84688 304.59064Q83.6125 304.59064 82.89375 303.7Q82.05 302.6375 82.05 300.21564ZM83.12813 300.21564Q83.12813 302.325 83.62813 303.02814Q84.12813 303.73126 84.84688 303.73126Q85.58125 303.73126 86.06563 303.02814Q86.56563 302.325 86.56563 300.21564Q86.56563 298.09064 86.06563 297.40314Q85.58125 296.7 84.83125 296.7Q84.1125 296.7 83.675 297.3094Q83.12813 298.09064 83.12813 300.21564ZM89.05 300.21564Q89.05 298.6844 89.3625 297.7625Q89.675 296.825 90.28438 296.325Q90.90938 295.825 91.84688 295.825Q92.53438 295.825 93.05 296.10626Q93.58125 296.3875 93.925 296.91876Q94.26875 297.4344 94.45625 298.1844Q94.64375 298.9344 94.64375 300.21564Q94.64375 301.73126 94.33125 302.65314Q94.03438 303.575 93.40938 304.09064Q92.8 304.59064 91.84688 304.59064Q90.6125 304.59064 89.89375 303.7Q89.05 302.6375 89.05 300.21564ZM90.12813 300.21564Q90.12813 302.325 90.62813 303.02814Q91.12813 303.73126 91.84688 303.73126Q92.58125 303.73126 93.06563 303.02814Q93.56563 302.325 93.56563 300.21564Q93.56563 298.09064 93.06563 297.40314Q92.58125 296.7 91.83125 296.7Q91.1125 296.7 90.675 297.3094Q90.12813 298.09064 90.12813 300.21564Z" fill-rule="nonzero"/><path fill="#242f26" d="M55.01875 261.44333L53.971874 261.44333L53.971874 254.72458Q53.58125 255.08395 52.95625 255.45895Q52.346874 255.81833 51.8625 255.9902L51.8625 254.97458Q52.7375 254.5527 53.39375 253.97458Q54.065624 253.38083 54.346874 252.81833L55.01875 252.81833L55.01875 261.44333ZM58.05 257.20895Q58.05 255.6777 58.3625 254.75583Q58.675 253.81833 59.284374 253.31833Q59.909374 252.81833 60.846874 252.81833Q61.534374 252.81833 62.05 253.09958Q62.58125 253.38083 62.925 253.91208Q63.26875 254.4277 63.45625 255.1777Q63.64375 255.9277 63.64375 257.20895Q63.64375 258.72458 63.33125 259.64645Q63.034374 260.56833 62.409374 261.08395Q61.8 261.58395 60.846874 261.58395Q59.6125 261.58395 58.89375 260.69333Q58.05 259.63083 58.05 257.20895ZM59.128124 257.20895Q59.128124 259.31833 59.628124 260.02145Q60.128124 260.72458 60.846874 260.72458Q61.58125 260.72458 62.065624 260.02145Q62.565624 259.31833 62.565624 257.20895Q62.565624 255.08395 62.065624 254.39645Q61.58125 253.69333 60.83125 253.69333Q60.1125 253.69333 59.675 254.3027Q59.128124 255.08395 59.128124 257.20895ZM65.05 257.20895Q65.05 255.6777 65.3625 254.75583Q65.675 253.81833 66.28438 253.31833Q66.90938 252.81833 67.84688 252.81833Q68.53438 252.81833 69.05 253.09958Q69.58125 253.38083 69.925 253.91208Q70.26875 254.4277 70.45625 255.1777Q70.64375 255.9277 70.64375 257.20895Q70.64375 258.72458 70.33125 259.64645Q70.03438 260.56833 69.40938 261.08395Q68.8 261.58395 67.84688 261.58395Q66.6125 261.58395 65.89375 260.69333Q65.05 259.63083 65.05 257.20895ZM66.12813 257.20895Q66.12813 259.31833 66.62813 260.02145Q67.12813 260.72458 67.84688 260.72458Q68.58125 260.72458 69.06563 260.02145Q69.56563 259.31833 69.56563 257.20895Q69.56563 255.08395 69.06563 254.39645Q68.58125 253.69333 67.83125 253.69333Q67.1125 253.69333 66.675 254.3027Q66.12813 255.08395 66.12813 257.20895ZM72.05 257.20895Q72.05 255.6777 72.3625 254.75583Q72.675 253.81833 73.28438 253.31833Q73.90938 252.81833 74.84688 252.81833Q75.53438 252.81833 76.05 253.09958Q76.58125 253.38083 76.925 253.91208Q77.26875 254.4277 77.45625 255.1777Q77.64375 255.9277 77.64375 257.20895Q77.64375 258.72458 77.33125 259.64645Q77.03438 260.56833 76.40938 261.08395Q75.8 261.58395 74.84688 261.58395Q73.6125 261.58395 72.89375 260.69333Q72.05 259.63083 72.05 257.20895ZM73.12813 257.20895Q73.12813 259.31833 73.62813 260.02145Q74.12813 260.72458 74.84688 260.72458Q75.58125 260.72458 76.06563 260.02145Q76.56563 259.31833 76.56563 257.20895Q76.56563 255.08395 76.06563 254.39645Q75.58125 253.69333 74.83125 253.69333Q74.1125 253.69333 73.675 254.3027Q73.12813 255.08395 73.12813 257.20895ZM79.64375 261.44333L79.64375 260.2402L80.84688 260.2402L80.84688 261.44333L79.64375 261.44333ZM82.05 257.20895Q82.05 255.6777 82.3625 254.75583Q82.675 253.81833 83.28438 253.31833Q83.90938 252.81833 84.84688 252.81833Q85.53438 252.81833 86.05 253.09958Q86.58125 253.38083 86.925 253.91208Q87.26875 254.4277 87.45625 255.1777Q87.64375 255.9277 87.64375 257.20895Q87.64375 258.72458 87.33125 259.64645Q87.03438 260.56833 86.40938 261.08395Q85.8 261.58395 84.84688 261.58395Q83.6125 261.58395 82.89375 260.69333Q82.05 259.63083 82.05 257.20895ZM83.12813 257.20895Q83.12813 259.31833 83.62813 260.02145Q84.12813 260.72458 84.84688 260.72458Q85.58125 260.72458 86.06563 260.02145Q86.56563 259.31833 86.56563 257.20895Q86.56563 255.08395 86.06563 254.39645Q85.58125 253.69333 84.83125 253.69333Q84.1125 253.69333 83.675 254.3027Q83.12813 255.08395 83.12813 257.20895ZM89.05 257.20895Q89.05 255.6777 89.3625 254.75583Q89.675 253.81833 90.28438 253.31833Q90.90938 252.81833 91.84688 252.81833Q92.53438 252.81833 93.05 253.09958Q93.58125 253.38083 93.925 253.91208Q94.26875 254.4277 94.45625 255.1777Q94.64375 255.9277 94.64375 257.20895Q94.64375 258.72458 94.33125 259.64645Q94.03438 260.56833 93.40938 261.08395Q92.8 261.58395 91.84688 261.58395Q90.6125 261.58395 89.89375 260.69333Q89.05 259.63083 89.05 257.20895ZM90.12813 257.20895Q90.12813 259.31833 90.62813 260.02145Q91.12813 260.72458 91.84688 260.72458Q92.58125 260.72458 93.06563 260.02145Q93.56563 259.31833 93.56563 257.20895Q93.56563 255.08395 93.06563 254.39645Q92.58125 253.69333 91.83125 253.69333Q91.1125 253.69333 90.675 254.3027Q90.12813 255.08395 90.12813 257.20895Z" fill-rule="nonzero"/><path fill="#242f26" d="M56.596874 217.42104L56.596874 218.43666L50.909374 218.43666Q50.909374 218.06166 51.034374 217.70229Q51.253124 217.12416 51.721874 216.56166Q52.20625 215.99916 53.1125 215.26479Q54.51875 214.10854 55.003124 213.43666Q55.503124 212.76479 55.503124 212.17104Q55.503124 211.54604 55.05 211.12416Q54.596874 210.68666 53.878124 210.68666Q53.1125 210.68666 52.659374 211.13979Q52.20625 211.59291 52.190624 212.40541L51.1125 212.29604Q51.221874 211.07729 51.940624 210.45229Q52.675 209.81166 53.909374 209.81166Q55.14375 209.81166 55.8625 210.49916Q56.58125 211.18666 56.58125 212.20229Q56.58125 212.71791 56.3625 213.21791Q56.159374 213.70229 55.659374 214.26479Q55.175 214.81166 54.05 215.76479Q53.096874 216.56166 52.815624 216.85854Q52.55 217.13979 52.378124 217.42104L56.596874 217.42104ZM58.05 214.20229Q58.05 212.67104 58.3625 211.74916Q58.675 210.81166 59.284374 210.31166Q59.909374 209.81166 60.846874 209.81166Q61.534374 209.81166 62.05 210.09291Q62.58125 210.37416 62.925 210.90541Q63.26875 211.42104 63.45625 212.17104Q63.64375 212.92104 63.64375 214.20229Q63.64375 215.71791 63.33125 216.63979Q63.034374 217.56166 62.409374 218.07729Q61.8 218.57729 60.846874 218.57729Q59.6125 218.57729 58.89375 217.68666Q58.05 216.62416 58.05 214.20229ZM59.128124 214.20229Q59.128124 216.31166 59.628124 217.01479Q60.128124 217.71791 60.846874 217.71791Q61.58125 217.71791 62.065624 217.01479Q62.565624 216.31166 62.565624 214.20229Q62.565624 212.07729 62.065624 211.38979Q61.58125 210.68666 60.83125 210.68666Q60.1125 210.68666 59.675 211.29604Q59.128124 212.07729 59.128124 214.20229ZM65.05 214.20229Q65.05 212.67104 65.3625 211.74916Q65.675 210.81166 66.28438 210.31166Q66.90938 209.81166 67.84688 209.81166Q68.53438 209.81166 69.05 210.09291Q69.58125 210.37416 69.925 210.90541Q70.26875 211.42104 70.45625 212.17104Q70.64375 212.92104 70.64375 214.20229Q70.64375 215.71791 70.33125 216.63979Q70.03438 217.56166 69.40938 218.07729Q68.8 218.57729 67.84688 218.57729Q66.6125 218.57729 65.89375 217.68666Q65.05 216.62416 65.05 214.20229ZM66.12813 214.20229Q66.12813 216.31166 66.62813 217.01479Q67.12813 217.71791 67.84688 217.71791Q68.58125 217.71791 69.06563 217.01479Q69.56563 216.31166 69.56563 214.20229Q69.56563 212.07729 69.06563 211.38979Q68.58125 210.68666 67.83125 210.68666Q67.1125 210.68666 66.675 211.29604Q66.12813 212.07729 66.12813 214.20229ZM72.05 214.20229Q72.05 212.67104 72.3625 211.74916Q72.675 210.81166 73.28438 210.31166Q73.90938 209.81166 74.84688 209.81166Q75.53438 209.81166 76.05 210.09291Q76.58125 210.37416 76.925 210.90541Q77.26875 211.42104 77.45625 212.17104Q77.64375 212.92104 77.64375 214.20229Q77.64375 215.71791 77.33125 216.63979Q77.03438 217.56166 76.40938 218.07729Q75.8 218.57729 74.84688 218.57729Q73.6125 218.57729 72.89375 217.68666Q72.05 216.62416 72.05 214.20229ZM73.12813 214.20229Q73.12813 216.31166 73.62813 217.01479Q74.12813 217.71791 74.84688 217.71791Q75.58125 217.71791 76.06563 217.01479Q76.56563 216.31166 76.56563 214.20229Q76.56563 212.07729 76.06563 211.38979Q75.58125 210.68666 74.83125 210.68666Q74.1125 210.68666 73.675 211.29604Q73.12813 212.07729 73.12813 214.20229ZM79.64375 218.43666L79.64375 217.23354L80.84688 217.23354L80.84688 218.43666L79.64375 218.43666ZM82.05 214.20229Q82.05 212.67104 82.3625 211.74916Q82.675 210.81166 83.28438 210.31166Q83.90938 209.81166 84.84688 209.81166Q85.53438 209.81166 86.05 210.09291Q86.58125 210.37416 86.925 210.90541Q87.26875 211.42104 87.45625 212.17104Q87.64375 212.92104 87.64375 214.20229Q87.64375 215.71791 87.33125 216.63979Q87.03438 217.56166 86.40938 218.07729Q85.8 218.57729 84.84688 218.57729Q83.6125 218.57729 82.89375 217.68666Q82.05 216.62416 82.05 214.20229ZM83.12813 214.20229Q83.12813 216.31166 83.62813 217.01479Q84.12813 217.71791 84.84688 217.71791Q85.58125 217.71791 86.06563 217.01479Q86.56563 216.31166 86.56563 214.20229Q86.56563 212.07729 86.06563 211.38979Q85.58125 210.68666 84.83125 210.68666Q84.1125 210.68666 83.675 211.29604Q83.12813 212.07729 83.12813 214.20229ZM89.05 214.20229Q89.05 212.67104 89.3625 211.74916Q89.675 210.81166 90.28438 210.31166Q90.90938 209.81166 91.84688 209.81166Q92.53438 209.81166 93.05 210.09291Q93.58125 210.37416 93.925 210.90541Q94.26875 211.42104 94.45625 212.17104Q94.64375 212.92104 94.64375 214.20229Q94.64375 215.71791 94.33125 216.63979Q94.03438 217.56166 93.40938 218.07729Q92.8 218.57729 91.84688 218.57729Q90.6125 218.57729 89.89375 217.68666Q89.05 216.62416 89.05 214.20229ZM90.12813 214.20229Q90.12813 216.31166 90.62813 217.01479Q91.12813 217.71791 91.84688 217.71791Q92.58125 217.71791 93.06563 217.01479Q93.56563 216.31166 93.56563 214.20229Q93.56563 212.07729 93.06563 211.38979Q92.58125 210.68666 91.83125 210.68666Q91.1125 210.68666 90.675 211.29604Q90.12813 212.07729 90.12813 214.20229Z" fill-rule="nonzero"/><path fill="#242f26" d="M51.05 173.16437L52.1125 173.02374Q52.284374 173.91437 52.721874 174.32062Q53.159374 174.71124 53.784374 174.71124Q54.534374 174.71124 55.05 174.19562Q55.565624 173.68 55.565624 172.91437Q55.565624 172.19562 55.08125 171.72687Q54.6125 171.2425 53.878124 171.2425Q53.58125 171.2425 53.128124 171.3675L53.253124 170.43Q53.3625 170.44562 53.425 170.44562Q54.096874 170.44562 54.628124 170.10187Q55.175 169.7425 55.175 169.00812Q55.175 168.43 54.784374 168.055Q54.39375 167.66437 53.76875 167.66437Q53.159374 167.66437 52.7375 168.055Q52.33125 168.44562 52.221874 169.21124L51.159374 169.02374Q51.346874 167.97687 52.034374 167.39874Q52.721874 166.805 53.7375 166.805Q54.440624 166.805 55.034374 167.1175Q55.628124 167.41437 55.940624 167.93Q56.253124 168.44562 56.253124 169.03937Q56.253124 169.58624 55.95625 170.055Q55.659374 170.50812 55.08125 170.77374Q55.83125 170.94562 56.253124 171.50812Q56.675 172.055 56.675 172.89874Q56.675 174.02374 55.846874 174.805Q55.034374 175.58624 53.784374 175.58624Q52.659374 175.58624 51.909374 174.91437Q51.159374 174.22687 51.05 173.16437ZM58.05 171.19562Q58.05 169.66437 58.3625 168.7425Q58.675 167.805 59.284374 167.305Q59.909374 166.805 60.846874 166.805Q61.534374 166.805 62.05 167.08624Q62.58125 167.3675 62.925 167.89874Q63.26875 168.41437 63.45625 169.16437Q63.64375 169.91437 63.64375 171.19562Q63.64375 172.71124 63.33125 173.63312Q63.034374 174.555 62.409374 175.07062Q61.8 175.57062 60.846874 175.57062Q59.6125 175.57062 58.89375 174.68Q58.05 173.6175 58.05 171.19562ZM59.128124 171.19562Q59.128124 173.305 59.628124 174.00812Q60.128124 174.71124 60.846874 174.71124Q61.58125 174.71124 62.065624 174.00812Q62.565624 173.305 62.565624 171.19562Q62.565624 169.07062 62.065624 168.38312Q61.58125 167.68 60.83125 167.68Q60.1125 167.68 59.675 168.28937Q59.128124 169.07062 59.128124 171.19562ZM65.05 171.19562Q65.05 169.66437 65.3625 168.7425Q65.675 167.805 66.28438 167.305Q66.90938 166.805 67.84688 166.805Q68.53438 166.805 69.05 167.08624Q69.58125 167.3675 69.925 167.89874Q70.26875 168.41437 70.45625 169.16437Q70.64375 169.91437 70.64375 171.19562Q70.64375 172.71124 70.33125 173.63312Q70.03438 174.555 69.40938 175.07062Q68.8 175.57062 67.84688 175.57062Q66.6125 175.57062 65.89375 174.68Q65.05 173.6175 65.05 171.19562ZM66.12813 171.19562Q66.12813 173.305 66.62813 174.00812Q67.12813 174.71124 67.84688 174.71124Q68.58125 174.71124 69.06563 174.00812Q69.56563 173.305 69.56563 171.19562Q69.56563 169.07062 69.06563 168.38312Q68.58125 167.68 67.83125 167.68Q67.1125 167.68 66.675 168.28937Q66.12813 169.07062 66.12813 171.19562ZM72.05 171.19562Q72.05 169.66437 72.3625 168.7425Q72.675 167.805 73.28438 167.305Q73.90938 166.805 74.84688 166.805Q75.53438 166.805 76.05 167.08624Q76.58125 167.3675 76.925 167.89874Q77.26875 168.41437 77.45625 169.16437Q77.64375 169.91437 77.64375 171.19562Q77.64375 172.71124 77.33125 173.63312Q77.03438 174.555 76.40938 175.07062Q75.8 175.57062 74.84688 175.57062Q73.6125 175.57062 72.89375 174.68Q72.05 173.6175 72.05 171.19562ZM73.12813 171.19562Q73.12813 173.305 73.62813 174.00812Q74.12813 174.71124 74.84688 174.71124Q75.58125 174.71124 76.06563 174.00812Q76.56563 173.305 76.56563 171.19562Q76.56563 169.07062 76.06563 168.38312Q75.58125 167.68 74.83125 167.68Q74.1125 167.68 73.675 168.28937Q73.12813 169.07062 73.12813 171.19562ZM79.64375 175.43L79.64375 174.22687L80.84688 174.22687L80.84688 175.43L79.64375 175.43ZM82.05 171.19562Q82.05 169.66437 82.3625 168.7425Q82.675 167.805 83.28438 167.305Q83.90938 166.805 84.84688 166.805Q85.53438 166.805 86.05 167.08624Q86.58125 167.3675 86.925 167.89874Q87.26875 168.41437 87.45625 169.16437Q87.64375 169.91437 87.64375 171.19562Q87.64375 172.71124 87.33125 173.63312Q87.03438 174.555 86.40938 175.07062Q85.8 175.57062 84.84688 175.57062Q83.6125 175.57062 82.89375 174.68Q82.05 173.6175 82.05 171.19562ZM83.12813 171.19562Q83.12813 173.305 83.62813 174.00812Q84.12813 174.71124 84.84688 174.71124Q85.58125 174.71124 86.06563 174.00812Q86.56563 173.305 86.56563 171.19562Q86.56563 169.07062 86.06563 168.38312Q85.58125 167.68 84.83125 167.68Q84.1125 167.68 83.675 168.28937Q83.12813 169.07062 83.12813 171.19562ZM89.05 171.19562Q89.05 169.66437 89.3625 168.7425Q89.675 167.805 90.28438 167.305Q90.90938 166.805 91.84688 166.805Q92.53438 166.805 93.05 167.08624Q93.58125 167.3675 93.925 167.89874Q94.26875 168.41437 94.45625 169.16437Q94.64375 169.91437 94.64375 171.19562Q94.64375 172.71124 94.33125 173.63312Q94.03438 174.555 93.40938 175.07062Q92.8 175.57062 91.84688 175.57062Q90.6125 175.57062 89.89375 174.68Q89.05 173.6175 89.05 171.19562ZM90.12813 171.19562Q90.12813 173.305 90.62813 174.00812Q91.12813 174.71124 91.84688 174.71124Q92.58125 174.71124 93.06563 174.00812Q93.56563 173.305 93.56563 171.19562Q93.56563 169.07062 93.06563 168.38312Q92.58125 167.68 91.83125 167.68Q91.1125 167.68 90.675 168.28937Q90.12813 169.07062 90.12813 171.19562Z" fill-rule="nonzero"/><path fill="#242f26" d="M54.425 132.42334L54.425 130.36084L50.70625 130.36084L50.70625 129.39209L54.628124 123.82959L55.4875 123.82959L55.4875 129.39209L56.64375 129.39209L56.64375 130.36084L55.4875 130.36084L55.4875 132.42334L54.425 132.42334ZM54.425 129.39209L54.425 125.532715L51.7375 129.39209L54.425 129.39209ZM58.05 128.18896Q58.05 126.657715 58.3625 125.73584Q58.675 124.79834 59.284374 124.29834Q59.909374 123.79834 60.846874 123.79834Q61.534374 123.79834 62.05 124.07959Q62.58125 124.36084 62.925 124.89209Q63.26875 125.407715 63.45625 126.157715Q63.64375 126.907715 63.64375 128.18896Q63.64375 129.70459 63.33125 130.62646Q63.034374 131.54834 62.409374 132.06396Q61.8 132.56396 60.846874 132.56396Q59.6125 132.56396 58.89375 131.67334Q58.05 130.61084 58.05 128.18896ZM59.128124 128.18896Q59.128124 130.29834 59.628124 131.00146Q60.128124 131.70459 60.846874 131.70459Q61.58125 131.70459 62.065624 131.00146Q62.565624 130.29834 62.565624 128.18896Q62.565624 126.063965 62.065624 125.376465Q61.58125 124.67334 60.83125 124.67334Q60.1125 124.67334 59.675 125.282715Q59.128124 126.063965 59.128124 128.18896ZM65.05 128.18896Q65.05 126.657715 65.3625 125.73584Q65.675 124.79834 66.28438 124.29834Q66.90938 123.79834 67.84688 123.79834Q68.53438 123.79834 69.05 124.07959Q69.58125 124.36084 69.925 124.89209Q70.26875 125.407715 70.45625 126.157715Q70.64375 126.907715 70.64375 128.18896Q70.64375 129.70459 70.33125 130.62646Q70.03438 131.54834 69.40938 132.06396Q68.8 132.56396 67.84688 132.56396Q66.6125 132.56396 65.89375 131.67334Q65.05 130.61084 65.05 128.18896ZM66.12813 128.18896Q66.12813 130.29834 66.62813 131.00146Q67.12813 131.70459 67.84688 131.70459Q68.58125 131.70459 69.06563 131.00146Q69.56563 130.29834 69.56563 128.18896Q69.56563 126.063965 69.06563 125.376465Q68.58125 124.67334 67.83125 124.67334Q67.1125 124.67334 66.675 125.282715Q66.12813 126.063965 66.12813 128.18896ZM72.05 128.18896Q72.05 126.657715 72.3625 125.73584Q72.675 124.79834 73.28438 124.29834Q73.90938 123.79834 74.84688 123.79834Q75.53438 123.79834 76.05 124.07959Q76.58125 124.36084 76.925 124.89209Q77.26875 125.407715 77.45625 126.157715Q77.64375 126.907715 77.64375 128.18896Q77.64375 129.70459 77.33125 130.62646Q77.03438 131.54834 76.40938 132.06396Q75.8 132.56396 74.84688 132.56396Q73.6125 132.56396 72.89375 131.67334Q72.05 130.61084 72.05 128.18896ZM73.12813 128.18896Q73.12813 130.29834 73.62813 131.00146Q74.12813 131.70459 74.84688 131.70459Q75.58125 131.70459 76.06563 131.00146Q76.56563 130.29834 76.56563 128.18896Q76.56563 126.063965 76.06563 125.376465Q75.58125 124.67334 74.83125 124.67334Q74.1125 124.67334 73.675 125.282715Q73.12813 126.063965 73.12813 128.18896ZM79.64375 132.42334L79.64375 131.22021L80.84688 131.22021L80.84688 132.42334L79.64375 132.42334ZM82.05 128.18896Q82.05 126.657715 82.3625 125.73584Q82.675 124.79834 83.28438 124.29834Q83.90938 123.79834 84.84688 123.79834Q85.53438 123.79834 86.05 124.07959Q86.58125 124.36084 86.925 124.89209Q87.26875 125.407715 87.45625 126.157715Q87.64375 126.907715 87.64375 128.18896Q87.64375 129.70459 87.33125 130.62646Q87.03438 131.54834 86.40938 132.06396Q85.8 132.56396 84.84688 132.56396Q83.6125 132.56396 82.89375 131.67334Q82.05 130.61084 82.05 128.18896ZM83.12813 128.18896Q83.12813 130.29834 83.62813 131.00146Q84.12813 131.70459 84.84688 131.70459Q85.58125 131.70459 86.06563 131.00146Q86.56563 130.29834 86.56563 128.18896Q86.56563 126.063965 86.06563 125.376465Q85.58125 124.67334 84.83125 124.67334Q84.1125 124.67334 83.675 125.282715Q83.12813 126.063965 83.12813 128.18896ZM89.05 128.18896Q89.05 126.657715 89.3625 125.73584Q89.675 124.79834 90.28438 124.29834Q90.90938 123.79834 91.84688 123.79834Q92.53438 123.79834 93.05 124.07959Q93.58125 124.36084 93.925 124.89209Q94.26875 125.407715 94.45625 126.157715Q94.64375 126.907715 94.64375 128.18896Q94.64375 129.70459 94.33125 130.62646Q94.03438 131.54834 93.40938 132.06396Q92.8 132.56396 91.84688 132.56396Q90.6125 132.56396 89.89375 131.67334Q89.05 130.61084 89.05 128.18896ZM90.12813 128.18896Q90.12813 130.29834 90.62813 131.00146Q91.12813 131.70459 91.84688 131.70459Q92.58125 131.70459 93.06563 131.00146Q93.56563 130.29834 93.56563 128.18896Q93.56563 126.063965 93.06563 125.376465Q92.58125 124.67334 91.83125 124.67334Q91.1125 124.67334 90.675 125.282715Q90.12813 126.063965 90.12813 128.18896Z" fill-rule="nonzero"/><path fill="#242f26" d="M51.05 87.166664L52.159374 87.072914Q52.284374 87.885414 52.721874 88.291664Q53.175 88.697914 53.815624 88.697914Q54.565624 88.697914 55.096874 88.11979Q55.628124 87.541664 55.628124 86.604164Q55.628124 85.697914 55.1125 85.18229Q54.6125 84.65104 53.784374 84.65104Q53.284374 84.65104 52.8625 84.885414Q52.45625 85.11979 52.221874 85.479164L51.2375 85.354164L52.065624 80.947914L56.346874 80.947914L56.346874 81.947914L52.909374 81.947914L52.45625 84.260414Q53.221874 83.71354 54.065624 83.71354Q55.190624 83.71354 55.95625 84.49479Q56.7375 85.27604 56.7375 86.510414Q56.7375 87.666664 56.065624 88.52604Q55.2375 89.55729 53.815624 89.55729Q52.64375 89.55729 51.89375 88.90104Q51.159374 88.24479 51.05 87.166664ZM58.05 85.18229Q58.05 83.65104 58.3625 82.729164Q58.675 81.791664 59.284374 81.291664Q59.909374 80.791664 60.846874 80.791664Q61.534374 80.791664 62.05 81.072914Q62.58125 81.354164 62.925 81.885414Q63.26875 82.40104 63.45625 83.15104Q63.64375 83.90104 63.64375 85.18229Q63.64375 86.697914 63.33125 87.61979Q63.034374 88.541664 62.409374 89.05729Q61.8 89.55729 60.846874 89.55729Q59.6125 89.55729 58.89375 88.666664Q58.05 87.604164 58.05 85.18229ZM59.128124 85.18229Q59.128124 87.291664 59.628124 87.99479Q60.128124 88.697914 60.846874 88.697914Q61.58125 88.697914 62.065624 87.99479Q62.565624 87.291664 62.565624 85.18229Q62.565624 83.05729 62.065624 82.36979Q61.58125 81.666664 60.83125 81.666664Q60.1125 81.666664 59.675 82.27604Q59.128124 83.05729 59.128124 85.18229ZM65.05 85.18229Q65.05 83.65104 65.3625 82.729164Q65.675 81.791664 66.28438 81.291664Q66.90938 80.791664 67.84688 80.791664Q68.53438 80.791664 69.05 81.072914Q69.58125 81.354164 69.925 81.885414Q70.26875 82.40104 70.45625 83.15104Q70.64375 83.90104 70.64375 85.18229Q70.64375 86.697914 70.33125 87.61979Q70.03438 88.541664 69.40938 89.05729Q68.8 89.55729 67.84688 89.55729Q66.6125 89.55729 65.89375 88.666664Q65.05 87.604164 65.05 85.18229ZM66.12813 85.18229Q66.12813 87.291664 66.62813 87.99479Q67.12813 88.697914 67.84688 88.697914Q68.58125 88.697914 69.06563 87.99479Q69.56563 87.291664 69.56563 85.18229Q69.56563 83.05729 69.06563 82.36979Q68.58125 81.666664 67.83125 81.666664Q67.1125 81.666664 66.675 82.27604Q66.12813 83.05729 66.12813 85.18229ZM72.05 85.18229Q72.05 83.65104 72.3625 82.729164Q72.675 81.791664 73.28438 81.291664Q73.90938 80.791664 74.84688 80.791664Q75.53438 80.791664 76.05 81.072914Q76.58125 81.354164 76.925 81.885414Q77.26875 82.40104 77.45625 83.15104Q77.64375 83.90104 77.64375 85.18229Q77.64375 86.697914 77.33125 87.61979Q77.03438 88.541664 76.40938 89.05729Q75.8 89.55729 74.84688 89.55729Q73.6125 89.55729 72.89375 88.666664Q72.05 87.604164 72.05 85.18229ZM73.12813 85.18229Q73.12813 87.291664 73.62813 87.99479Q74.12813 88.697914 74.84688 88.697914Q75.58125 88.697914 76.06563 87.99479Q76.56563 87.291664 76.56563 85.18229Q76.56563 83.05729 76.06563 82.36979Q75.58125 81.666664 74.83125 81.666664Q74.1125 81.666664 73.675 82.27604Q73.12813 83.05729 73.12813 85.18229ZM79.64375 89.416664L79.64375 88.21354L80.84688 88.21354L80.84688 89.416664L79.64375 89.416664ZM82.05 85.18229Q82.05 83.65104 82.3625 82.729164Q82.675 81.791664 83.28438 81.291664Q83.90938 80.791664 84.84688 80.791664Q85.53438 80.791664 86.05 81.072914Q86.58125 81.354164 86.925 81.885414Q87.26875 82.40104 87.45625 83.15104Q87.64375 83.90104 87.64375 85.18229Q87.64375 86.697914 87.33125 87.61979Q87.03438 88.541664 86.40938 89.05729Q85.8 89.55729 84.84688 89.55729Q83.6125 89.55729 82.89375 88.666664Q82.05 87.604164 82.05 85.18229ZM83.12813 85.18229Q83.12813 87.291664 83.62813 87.99479Q84.12813 88.697914 84.84688 88.697914Q85.58125 88.697914 86.06563 87.99479Q86.56563 87.291664 86.56563 85.18229Q86.56563 83.05729 86.06563 82.36979Q85.58125 81.666664 84.83125 81.666664Q84.1125 81.666664 83.675 82.27604Q83.12813 83.05729 83.12813 85.18229ZM89.05 85.18229Q89.05 83.65104 89.3625 82.729164Q89.675 81.791664 90.28438 81.291664Q90.90938 80.791664 91.84688 80.791664Q92.53438 80.791664 93.05 81.072914Q93.58125 81.354164 93.925 81.885414Q94.26875 82.40104 94.45625 83.15104Q94.64375 83.90104 94.64375 85.18229Q94.64375 86.697914 94.33125 87.61979Q94.03438 88.541664 93.40938 89.05729Q92.8 89.55729 91.84688 89.55729Q90.6125 89.55729 89.89375 88.666664Q89.05 87.604164 89.05 85.18229ZM90.12813 85.18229Q90.12813 87.291664 90.62813 87.99479Q91.12813 88.697914 91.84688 88.697914Q92.58125 88.697914 93.06563 87.99479Q93.56563 87.291664 93.56563 85.18229Q93.56563 83.05729 93.06563 82.36979Q92.58125 81.666664 91.83125 81.666664Q91.1125 81.666664 90.675 82.27604Q90.12813 83.05729 90.12813 85.18229Z" fill-rule="nonzero"/><path fill="#242f26" d="M199.21501 317.45L198.16814 317.45L198.16814 310.73126Q197.77751 311.09064 197.15251 311.46564Q196.54314 311.825 196.05876 311.9969L196.05876 310.98126Q196.93376 310.5594 197.59001 309.98126Q198.26189 309.3875 198.54314 308.825L199.21501 308.825L199.21501 317.45Z" fill-rule="nonzero"/><path fill="#242f26" d="M341.875 317.45L341.875 315.3875L338.15625 315.3875L338.15625 314.41876L342.07812 308.85626L342.9375 308.85626L342.9375 314.41876L344.09375 314.41876L344.09375 315.3875L342.9375 315.3875L342.9375 317.45L341.875 317.45ZM341.875 314.41876L341.875 310.5594L339.1875 314.41876L341.875 314.41876Z" fill-rule="nonzero"/><path fill="#242f26" d="M483.37872 312.79376Q482.72247 312.54376 482.39435 312.10626Q482.08185 311.65314 482.08185 311.04376Q482.08185 310.10626 482.75372 309.46564Q483.44122 308.825 484.5506 308.825Q485.6756 308.825 486.3631 309.48126Q487.0506 310.1375 487.0506 311.075Q487.0506 311.66876 486.7381 312.10626Q486.4256 312.54376 485.78497 312.79376Q486.58185 313.04376 486.9881 313.6219Q487.39435 314.2 487.39435 314.9969Q487.39435 316.09064 486.6131 316.84064Q485.84747 317.59064 484.56622 317.59064Q483.3006 317.59064 482.51935 316.84064Q481.7381 316.09064 481.7381 314.96564Q481.7381 314.1219 482.15997 313.5594Q482.59747 312.9969 483.37872 312.79376ZM483.15997 310.9969Q483.15997 311.60626 483.5506 311.9969Q483.95685 312.3875 484.58185 312.3875Q485.19122 312.3875 485.58185 312.0125Q485.97247 311.6219 485.97247 311.0594Q485.97247 310.48126 485.56622 310.09064Q485.15997 309.6844 484.56622 309.6844Q483.95685 309.6844 483.5506 310.075Q483.15997 310.46564 483.15997 310.9969ZM482.83185 314.96564Q482.83185 315.41876 483.03497 315.84064Q483.25372 316.2625 483.6756 316.4969Q484.09747 316.73126 484.58185 316.73126Q485.33185 316.73126 485.81622 316.2469Q486.31622 315.7625 486.31622 315.0125Q486.31622 314.2469 485.81622 313.7469Q485.31622 313.2469 484.5506 313.2469Q483.8006 313.2469 483.31622 313.7469Q482.83185 314.23126 482.83185 314.96564Z" fill-rule="nonzero"/><path fill="#a7aca8" d="M279.64062 53.034374L281.65625 53.034374L281.65625 59.378124Q281.65625 60.6125 281.4375 61.284374Q281.14062 62.159374 280.35938 62.690624Q279.59375 63.221874 278.32812 63.221874Q276.84375 63.221874 276.04688 62.39375Q275.25 61.565624 275.23438 59.95625L277.14062 59.7375Q277.1875 60.596874 277.40625 60.95625Q277.73438 61.4875 278.39062 61.4875Q279.07812 61.4875 279.35938 61.1125Q279.64062 60.721874 279.64062 59.503124L279.64062 53.034374ZM283.5625 59.315624Q283.5625 58.3625 284.03125 57.471874Q284.5 56.565624 285.35938 56.096874Q286.23438 55.628124 287.29688 55.628124Q288.95312 55.628124 290.0 56.70625Q291.04688 57.76875 291.04688 59.39375Q291.04688 61.05 289.98438 62.14375Q288.92188 63.221874 287.3125 63.221874Q286.3125 63.221874 285.40625 62.76875Q284.5 62.315624 284.03125 61.440624Q283.5625 60.565624 283.5625 59.315624ZM285.53125 59.425Q285.53125 60.503124 286.04688 61.08125Q286.5625 61.64375 287.3125 61.64375Q288.0625 61.64375 288.5625 61.08125Q289.07812 60.503124 289.07812 59.409374Q289.07812 58.346874 288.5625 57.76875Q288.0625 57.190624 287.3125 57.190624Q286.5625 57.190624 286.04688 57.76875Q285.53125 58.346874 285.53125 59.425ZM292.92188 63.05L292.92188 53.034374L294.84375 53.034374L294.84375 56.64375Q295.73438 55.628124 296.95312 55.628124Q298.28125 55.628124 299.14062 56.596874Q300.01562 57.55 300.01562 59.346874Q300.01562 61.20625 299.125 62.221874Q298.23438 63.221874 296.98438 63.221874Q296.35938 63.221874 295.75 62.909374Q295.14062 62.596874 294.70312 61.9875L294.70312 63.05L292.92188 63.05ZM294.82812 59.26875Q294.82812 60.39375 295.1875 60.925Q295.6875 61.690624 296.51562 61.690624Q297.14062 61.690624 297.59375 61.159374Q298.04688 60.6125 298.04688 59.440624Q298.04688 58.190624 297.59375 57.64375Q297.14062 57.096874 296.4375 57.096874Q295.75 57.096874 295.28125 57.64375Q294.82812 58.175 294.82812 59.26875ZM304.84375 52.9875Q306.29688 52.9875 307.125 54.01875Q308.09375 55.253124 308.09375 58.1125Q308.09375 60.95625 307.10938 62.190624Q306.29688 63.221874 304.84375 63.221874Q303.375 63.221874 302.48438 62.096874Q301.59375 60.971874 301.59375 58.08125Q301.59375 55.253124 302.57812 54.01875Q303.39062 52.9875 304.84375 52.9875ZM304.84375 54.58125Q304.5 54.58125 304.21875 54.8Q303.95312 55.01875 303.79688 55.596874Q303.59375 56.346874 303.59375 58.1125Q303.59375 59.878124 303.76562 60.534374Q303.95312 61.190624 304.21875 61.409374Q304.5 61.628124 304.84375 61.628124Q305.1875 61.628124 305.45312 61.409374Q305.73438 61.190624 305.89062 60.6125Q306.09375 59.878124 306.09375 58.1125Q306.09375 56.346874 305.90625 55.690624Q305.73438 55.01875 305.45312 54.8Q305.1875 54.58125 304.84375 54.58125ZM314.51562 63.05L312.59375 63.05L312.59375 55.815624Q311.53125 56.8 310.10938 57.26875L310.10938 55.51875Q310.85938 55.284374 311.73438 54.596874Q312.625 53.909374 312.95312 52.9875L314.51562 52.9875L314.51562 63.05ZM320.84375 52.9875Q322.29688 52.9875 323.125 54.01875Q324.09375 55.253124 324.09375 58.1125Q324.09375 60.95625 323.10938 62.190624Q322.29688 63.221874 320.84375 63.221874Q319.375 63.221874 318.48438 62.096874Q317.59375 60.971874 317.59375 58.08125Q317.59375 55.253124 318.57812 54.01875Q319.39062 52.9875 320.84375 52.9875ZM320.84375 54.58125Q320.5 54.58125 320.21875 54.8Q319.95312 55.01875 319.79688 55.596874Q319.59375 56.346874 319.59375 58.1125Q319.59375 59.878124 319.76562 60.534374Q319.95312 61.190624 320.21875 61.409374Q320.5 61.628124 320.84375 61.628124Q321.1875 61.628124 321.45312 61.409374Q321.73438 61.190624 321.89062 60.6125Q322.09375 59.878124 322.09375 58.1125Q322.09375 56.346874 321.90625 55.690624Q321.73438 55.01875 321.45312 54.8Q321.1875 54.58125 320.84375 54.58125Z" fill-rule="nonzero"/><path fill="#898f8a" d="M201.67188 37.55L201.67188 25.659374L197.4375 25.659374L197.4375 23.2375L208.8125 23.2375L208.8125 25.659374L204.5625 25.659374L204.5625 37.55L201.67188 37.55ZM211.4375 25.76875L211.4375 23.2375L214.1875 23.2375L214.1875 25.76875L211.4375 25.76875ZM211.4375 37.55L211.4375 27.175L214.1875 27.175L214.1875 37.55L211.4375 37.55ZM222.4375 34.253124L225.17188 34.70625Q224.65625 36.20625 223.51562 37.003124Q222.375 37.784374 220.67188 37.784374Q217.95312 37.784374 216.65625 36.01875Q215.64062 34.596874 215.64062 32.440624Q215.64062 29.8625 216.98438 28.409374Q218.32812 26.940624 220.39062 26.940624Q222.70312 26.940624 224.03125 28.471874Q225.375 30.003124 225.32812 33.159374L218.45312 33.159374Q218.48438 34.378124 219.10938 35.065624Q219.75 35.7375 220.6875 35.7375Q221.34375 35.7375 221.78125 35.39375Q222.21875 35.034374 222.4375 34.253124ZM222.59375 31.471874Q222.5625 30.284374 221.96875 29.675Q221.39062 29.05 220.5625 29.05Q219.65625 29.05 219.07812 29.690624Q218.48438 30.346874 218.5 31.471874L222.59375 31.471874ZM227.23438 27.175L229.76562 27.175L229.76562 28.596874Q231.125 26.940624 233.0 26.940624Q233.98438 26.940624 234.71875 27.3625Q235.45312 27.76875 235.92188 28.596874Q236.60938 27.76875 237.39062 27.3625Q238.1875 26.940624 239.09375 26.940624Q240.23438 26.940624 241.01562 27.409374Q241.8125 27.878124 242.20312 28.76875Q242.48438 29.440624 242.48438 30.925L242.48438 37.55L239.73438 37.55L239.73438 31.628124Q239.73438 30.08125 239.45312 29.628124Q239.07812 29.05 238.28125 29.05Q237.70312 29.05 237.1875 29.409374Q236.6875 29.753124 236.46875 30.425Q236.25 31.096874 236.25 32.565624L236.25 37.55L233.5 37.55L233.5 31.8625Q233.5 30.346874 233.34375 29.909374Q233.20312 29.471874 232.89062 29.26875Q232.59375 29.05 232.0625 29.05Q231.4375 29.05 230.92188 29.39375Q230.42188 29.721874 230.1875 30.378124Q229.96875 31.01875 229.96875 32.503124L229.96875 37.55L227.23438 37.55L227.23438 27.175ZM244.35938 27.175L246.92188 27.175L246.92188 28.70625Q247.42188 27.925 248.26562 27.440624Q249.10938 26.940624 250.15625 26.940624Q251.95312 26.940624 253.20312 28.3625Q254.46875 29.76875 254.46875 32.3Q254.46875 34.909374 253.20312 36.346874Q251.9375 37.784374 250.125 37.784374Q249.26562 37.784374 248.5625 37.440624Q247.875 37.096874 247.10938 36.26875L247.10938 41.503124L244.35938 41.503124L244.35938 27.175ZM247.07812 32.190624Q247.07812 33.940624 247.76562 34.784374Q248.45312 35.6125 249.45312 35.6125Q250.40625 35.6125 251.04688 34.846874Q251.6875 34.065624 251.6875 32.33125Q251.6875 30.690624 251.03125 29.909374Q250.375 29.1125 249.40625 29.1125Q248.40625 29.1125 247.73438 29.89375Q247.07812 30.659374 247.07812 32.190624ZM255.79688 32.221874Q255.79688 30.846874 256.46875 29.565624Q257.15625 28.284374 258.39062 27.6125Q259.625 26.940624 261.14062 26.940624Q263.5 26.940624 265.0 28.471874Q266.5 30.003124 266.5 32.33125Q266.5 34.690624 264.98438 36.2375Q263.46875 37.784374 261.15625 37.784374Q259.73438 37.784374 258.4375 37.14375Q257.15625 36.4875 256.46875 35.253124Q255.79688 34.003124 255.79688 32.221874ZM258.60938 32.3625Q258.60938 33.909374 259.34375 34.7375Q260.07812 35.55 261.15625 35.55Q262.23438 35.55 262.95312 34.7375Q263.6875 33.909374 263.6875 32.346874Q263.6875 30.815624 262.95312 30.003124Q262.23438 29.175 261.15625 29.175Q260.07812 29.175 259.34375 30.003124Q258.60938 30.815624 258.60938 32.3625ZM267.46875 34.596874L270.21875 34.175Q270.40625 34.971874 270.9375 35.39375Q271.46875 35.8 272.4375 35.8Q273.5 35.8 274.04688 35.409374Q274.40625 35.14375 274.40625 34.675Q274.40625 34.3625 274.20312 34.159374Q274.0 33.971874 273.29688 33.8Q269.96875 33.065624 269.07812 32.45625Q267.84375 31.628124 267.84375 30.128124Q267.84375 28.784374 268.90625 27.8625Q269.98438 26.940624 272.21875 26.940624Q274.34375 26.940624 275.375 27.64375Q276.42188 28.33125 276.8125 29.690624L274.21875 30.159374Q274.04688 29.565624 273.57812 29.2375Q273.125 28.909374 272.26562 28.909374Q271.1875 28.909374 270.71875 29.221874Q270.40625 29.440624 270.40625 29.76875Q270.40625 30.065624 270.67188 30.26875Q271.04688 30.55 273.23438 31.05Q275.42188 31.55 276.29688 32.26875Q277.15625 33.003124 277.15625 34.3Q277.15625 35.7375 275.96875 36.76875Q274.78125 37.784374 272.4375 37.784374Q270.32812 37.784374 269.07812 36.925Q267.84375 36.065624 267.46875 34.596874ZM294.95312 37.55L292.40625 37.55L292.40625 36.01875Q291.76562 36.909374 290.89062 37.346874Q290.03125 37.784374 289.15625 37.784374Q287.375 37.784374 286.09375 36.346874Q284.82812 34.909374 284.82812 32.33125Q284.82812 29.690624 286.0625 28.315624Q287.29688 26.940624 289.20312 26.940624Q290.9375 26.940624 292.20312 28.39375L292.20312 23.2375L294.95312 23.2375L294.95312 37.55ZM287.625 32.14375Q287.625 33.8 288.07812 34.534374Q288.75 35.6125 289.9375 35.6125Q290.89062 35.6125 291.54688 34.815624Q292.21875 34.003124 292.21875 32.409374Q292.21875 30.6125 291.5625 29.83125Q290.92188 29.05 289.92188 29.05Q288.9375 29.05 288.28125 29.83125Q287.625 30.596874 287.625 32.14375ZM303.4375 34.253124L306.17188 34.70625Q305.65625 36.20625 304.51562 37.003124Q303.375 37.784374 301.67188 37.784374Q298.95312 37.784374 297.65625 36.01875Q296.64062 34.596874 296.64062 32.440624Q296.64062 29.8625 297.98438 28.409374Q299.32812 26.940624 301.39062 26.940624Q303.70312 26.940624 305.03125 28.471874Q306.375 30.003124 306.32812 33.159374L299.45312 33.159374Q299.48438 34.378124 300.10938 35.065624Q300.75 35.7375 301.6875 35.7375Q302.34375 35.7375 302.78125 35.39375Q303.21875 35.034374 303.4375 34.253124ZM303.59375 31.471874Q303.5625 30.284374 302.96875 29.675Q302.39062 29.05 301.5625 29.05Q300.65625 29.05 300.07812 29.690624Q299.48438 30.346874 299.5 31.471874L303.59375 31.471874ZM320.4375 34.253124L323.17188 34.70625Q322.65625 36.20625 321.51562 37.003124Q320.375 37.784374 318.67188 37.784374Q315.95312 37.784374 314.65625 36.01875Q313.64062 34.596874 313.64062 32.440624Q313.64062 29.8625 314.98438 28.409374Q316.32812 26.940624 318.39062 26.940624Q320.70312 26.940624 322.03125 28.471874Q323.375 30.003124 323.32812 33.159374L316.45312 33.159374Q316.48438 34.378124 317.10938 35.065624Q317.75 35.7375 318.6875 35.7375Q319.34375 35.7375 319.78125 35.39375Q320.21875 35.034374 320.4375 34.253124ZM320.59375 31.471874Q320.5625 30.284374 319.96875 29.675Q319.39062 29.05 318.5625 29.05Q317.65625 29.05 317.07812 29.690624Q316.48438 30.346874 316.5 31.471874L320.59375 31.471874ZM325.375 25.76875L325.375 23.2375L328.125 23.2375L328.125 25.76875L325.375 25.76875ZM328.125 27.175L328.125 37.221874Q328.125 39.20625 327.85938 40.01875Q327.60938 40.846874 326.85938 41.3Q326.125 41.753124 324.98438 41.753124Q324.57812 41.753124 324.09375 41.675Q323.625 41.6125 323.07812 41.471874L323.5625 39.128124Q323.75 39.159374 323.92188 39.175Q324.09375 39.20625 324.25 39.20625Q324.67188 39.20625 324.9375 39.01875Q325.20312 38.846874 325.28125 38.596874Q325.375 38.346874 325.375 37.065624L325.375 27.175L328.125 27.175ZM336.4375 34.253124L339.17188 34.70625Q338.65625 36.20625 337.51562 37.003124Q336.375 37.784374 334.67188 37.784374Q331.95312 37.784374 330.65625 36.01875Q329.64062 34.596874 329.64062 32.440624Q329.64062 29.8625 330.98438 28.409374Q332.32812 26.940624 334.39062 26.940624Q336.70312 26.940624 338.03125 28.471874Q339.375 30.003124 339.32812 33.159374L332.45312 33.159374Q332.48438 34.378124 333.10938 35.065624Q333.75 35.7375 334.6875 35.7375Q335.34375 35.7375 335.78125 35.39375Q336.21875 35.034374 336.4375 34.253124ZM336.59375 31.471874Q336.5625 30.284374 335.96875 29.675Q335.39062 29.05 334.5625 29.05Q333.65625 29.05 333.07812 29.690624Q332.48438 30.346874 332.5 31.471874L336.59375 31.471874ZM350.48438 30.2375L347.78125 30.7375Q347.64062 29.925 347.15625 29.51875Q346.67188 29.096874 345.90625 29.096874Q344.875 29.096874 344.26562 29.815624Q343.65625 30.51875 343.65625 32.175Q343.65625 34.01875 344.26562 34.784374Q344.89062 35.55 345.9375 35.55Q346.71875 35.55 347.21875 35.1125Q347.71875 34.659374 347.92188 33.58125L350.60938 34.034374Q350.20312 35.89375 349.0 36.846874Q347.8125 37.784374 345.8125 37.784374Q343.53125 37.784374 342.17188 36.346874Q340.82812 34.909374 340.82812 32.378124Q340.82812 29.8 342.1875 28.378124Q343.54688 26.940624 345.85938 26.940624Q347.75 26.940624 348.85938 27.76875Q349.98438 28.58125 350.48438 30.2375ZM359.26562 37.55L359.26562 36.003124Q358.70312 36.83125 357.76562 37.315624Q356.84375 37.784374 355.82812 37.784374Q354.78125 37.784374 353.95312 37.33125Q353.125 36.8625 352.75 36.034374Q352.375 35.20625 352.375 33.7375L352.375 27.175L355.125 27.175L355.125 31.940624Q355.125 34.128124 355.26562 34.628124Q355.42188 35.1125 355.8125 35.409374Q356.21875 35.690624 356.84375 35.690624Q357.54688 35.690624 358.09375 35.315624Q358.65625 34.925 358.85938 34.3625Q359.0625 33.784374 359.0625 31.55L359.0625 27.175L361.8125 27.175L361.8125 37.55L359.26562 37.55ZM373.48438 30.2375L370.78125 30.7375Q370.64062 29.925 370.15625 29.51875Q369.67188 29.096874 368.90625 29.096874Q367.875 29.096874 367.26562 29.815624Q366.65625 30.51875 366.65625 32.175Q366.65625 34.01875 367.26562 34.784374Q367.89062 35.55 368.9375 35.55Q369.71875 35.55 370.21875 35.1125Q370.71875 34.659374 370.92188 33.58125L373.60938 34.034374Q373.20312 35.89375 372.0 36.846874Q370.8125 37.784374 368.8125 37.784374Q366.53125 37.784374 365.17188 36.346874Q363.82812 34.909374 363.82812 32.378124Q363.82812 29.8 365.1875 28.378124Q366.54688 26.940624 368.85938 26.940624Q370.75 26.940624 371.85938 27.76875Q372.98438 28.58125 373.48438 30.2375ZM375.4375 25.76875L375.4375 23.2375L378.1875 23.2375L378.1875 25.76875L375.4375 25.76875ZM375.4375 37.55L375.4375 27.175L378.1875 27.175L378.1875 37.55L375.4375 37.55ZM379.79688 32.221874Q379.79688 30.846874 380.46875 29.565624Q381.15625 28.284374 382.39062 27.6125Q383.625 26.940624 385.14062 26.940624Q387.5 26.940624 389.0 28.471874Q390.5 30.003124 390.5 32.33125Q390.5 34.690624 388.98438 36.2375Q387.46875 37.784374 385.15625 37.784374Q383.73438 37.784374 382.4375 37.14375Q381.15625 36.4875 380.46875 35.253124Q379.79688 34.003124 379.79688 32.221874ZM382.60938 32.3625Q382.60938 33.909374 383.34375 34.7375Q384.07812 35.55 385.15625 35.55Q386.23438 35.55 386.95312 34.7375Q387.6875 33.909374 387.6875 32.346874Q387.6875 30.815624 386.95312 30.003124Q386.23438 29.175 385.15625 29.175Q384.07812 29.175 383.34375 30.003124Q382.60938 30.815624 382.60938 32.3625ZM383.76562 25.909374L385.10938 22.9875L388.1875 22.9875L385.5 25.909374L383.76562 25.909374ZM401.875 37.55L399.125 37.55L399.125 32.253124Q399.125 30.58125 398.95312 30.096874Q398.78125 29.596874 398.375 29.33125Q397.98438 29.05 397.42188 29.05Q396.71875 29.05 396.14062 29.440624Q395.57812 29.83125 395.35938 30.471874Q395.15625 31.1125 395.15625 32.846874L395.15625 37.55L392.42188 37.55L392.42188 27.175L394.96875 27.175L394.96875 28.70625Q396.32812 26.940624 398.39062 26.940624Q399.29688 26.940624 400.04688 27.26875Q400.79688 27.596874 401.17188 28.1125Q401.5625 28.6125 401.71875 29.26875Q401.875 29.909374 401.875 31.096874L401.875 37.55Z" fill-rule="nonzero"/></svg>