<svg version="1.1" viewBox="0.0 0.0 600.0 371.0" fill="none" stroke="none" stroke-linecap="square" stroke-miterlimit="10" width="600" height="371" xmlns:xlink="http://www.w3.org/1999/xlink" xmlns="http://www.w3.org/2000/svg"><path fill="#ffffff" d="M0 0L600.0 0L600.0 371.0L0 371.0L0 0Z" fill-rule="nonzero"/><path stroke="#333333" stroke-width="1.0" stroke-linecap="butt" d="M115.5 300.5L581.5 300.5" fill-rule="nonzero"/><path stroke="#cccccc" stroke-width="1.0" stroke-linecap="butt" d="M115.5 246.5L581.5 246.5" fill-rule="nonzero"/><path stroke="#cccccc" stroke-width="1.0" stroke-linecap="butt" d="M115.5 192.5L581.5 192.5" fill-rule="nonzero"/><path stroke="#cccccc" stroke-width="1.0" stroke-linecap="butt" d="M115.5 139.5L581.5 139.5" fill-rule="nonzero"/><path stroke="#cccccc" stroke-width="1.0" stroke-linecap="butt" d="M115.5 85.5L581.5 85.5" fill-rule="nonzero"/><clipPath id="id_0"><path d="M115.55 85.416664L581.45 85.416664L581.45 300.45L115.55 300.45L115.55 85.416664Z" clip-rule="nonzero"/></clipPath><path stroke="#000000" stroke-width="2.0" stroke-linecap="butt" stroke-opacity="0.0" clip-path="url(#id_0)" d="M223.0 300.0L153.0 300.0L153.0 93.0C153.0 91.89543 153.89543 91.0 155.0 91.0L221.0 91.0C222.10457 91.0 223.0 91.89543 223.0 93.0Z" fill-rule="nonzero"/><path fill="#608f66" clip-path="url(#id_0)" d="M223.0 300.0L153.0 300.0L153.0 93.0C153.0 91.89543 153.89543 91.0 155.0 91.0L221.0 91.0C222.10457 91.0 223.0 91.89543 223.0 93.0Z" fill-rule="nonzero"/><path stroke="#000000" stroke-width="2.0" stroke-linecap="butt" stroke-opacity="0.0" clip-path="url(#id_0)" d="M330.0 300.0L260.0 300.0L260.0 263.0C260.0 261.89542 260.89542 261.0 262.0 261.0L328.0 261.0C329.10458 261.0 330.0 261.89542 330.0 263.0Z" fill-rule="nonzero"/><path fill="#608f66" clip-path="url(#id_0)" d="M330.0 300.0L260.0 300.0L260.0 263.0C260.0 261.89542 260.89542 261.0 262.0 261.0L328.0 261.0C329.10458 261.0 330.0 261.89542 330.0 263.0Z" fill-rule="nonzero"/><path stroke="#000000" stroke-width="2.0" stroke-linecap="butt" stroke-opacity="0.0" clip-path="url(#id_0)" d="M437.0 300.0L367.0 300.0L367.0 237.0C367.0 235.89543 367.89542 235.0 369.0 235.0L435.0 235.0C436.10458 235.0 437.0 235.89543 437.0 237.0Z" fill-rule="nonzero"/><path fill="#608f66" clip-path="url(#id_0)" d="M437.0 300.0L367.0 300.0L367.0 237.0C367.0 235.89543 367.89542 235.0 369.0 235.0L435.0 235.0C436.10458 235.0 437.0 235.89543 437.0 237.0Z" fill-rule="nonzero"/><path stroke="#000000" stroke-width="2.0" stroke-linecap="butt" stroke-opacity="0.0" clip-path="url(#id_0)" d="M544.0 300.0L474.0 300.0L474.0 262.0C474.0 260.89542 474.89542 260.0 476.0 260.0L542.0 260.0C543.10455 260.0 544.0 260.89542 544.0 262.0Z" fill-rule="nonzero"/><path fill="#608f66" clip-path="url(#id_0)" d="M544.0 300.0L474.0 300.0L474.0 262.0C474.0 260.89542 474.89542 260.0 476.0 260.0L542.0 260.0C543.10455 260.0 544.0 260.89542 544.0 262.0Z" fill-rule="nonzero"/><path fill="#242f26" d="M303.82812 349.45L303.82812 340.85626L305.5625 340.85626L305.5625 349.45L303.82812 349.45ZM306.73438 343.23126L308.25 343.23126L308.25 344.075Q309.07812 343.09064 310.20312 343.09064Q310.79688 343.09064 311.23438 343.34064Q311.67188 343.575 311.95312 344.075Q312.35938 343.575 312.82812 343.34064Q313.3125 343.09064 313.85938 343.09064Q314.53125 343.09064 315.0 343.3719Q315.48438 343.6375 315.71875 344.1844Q315.89062 344.575 315.89062 345.46564L315.89062 349.45L314.25 349.45L314.25 345.8875Q314.25 344.96564 314.07812 344.7Q313.84375 344.34064 313.375 344.34064Q313.03125 344.34064 312.71875 344.5594Q312.42188 344.7625 312.28125 345.16876Q312.14062 345.575 312.14062 346.46564L312.14062 349.45L310.5 349.45L310.5 346.04376Q310.5 345.1375 310.40625 344.8719Q310.32812 344.60626 310.14062 344.48126Q309.95312 344.34064 309.64062 344.34064Q309.26562 344.34064 308.95312 344.5594Q308.65625 344.7625 308.51562 345.15314Q308.39062 345.52814 308.39062 346.41876L308.39062 349.45L306.73438 349.45L306.73438 343.23126ZM317.8125 343.23126L319.34375 343.23126L319.34375 344.1375Q319.65625 343.66876 320.15625 343.3875Q320.67188 343.09064 321.29688 343.09064Q322.375 343.09064 323.125 343.9344Q323.89062 344.77814 323.89062 346.3094Q323.89062 347.85626 323.125 348.73126Q322.35938 349.59064 321.28125 349.59064Q320.76562 349.59064 320.34375 349.3875Q319.92188 349.1844 319.46875 348.6844L319.46875 351.825L317.8125 351.825L317.8125 343.23126ZM319.4375 346.23126Q319.4375 347.27814 319.85938 347.77814Q320.28125 348.27814 320.875 348.27814Q321.45312 348.27814 321.82812 347.825Q322.20312 347.35626 322.20312 346.3094Q322.20312 345.34064 321.8125 344.8719Q321.42188 344.3875 320.84375 344.3875Q320.23438 344.3875 319.82812 344.85626Q319.4375 345.325 319.4375 346.23126ZM324.85938 349.45L324.85938 340.85626L326.51562 340.85626L326.51562 349.45L324.85938 349.45ZM331.46875 347.46564L333.10938 347.7469Q332.79688 348.65314 332.10938 349.1219Q331.42188 349.59064 330.40625 349.59064Q328.78125 349.59064 328.0 348.52814Q327.375 347.6844 327.375 346.3875Q327.375 344.84064 328.1875 343.96564Q329.0 343.09064 330.23438 343.09064Q331.625 343.09064 332.42188 344.0125Q333.23438 344.91876 333.1875 346.8094L329.0625 346.8094Q329.09375 347.54376 329.46875 347.95Q329.84375 348.35626 330.42188 348.35626Q330.79688 348.35626 331.0625 348.15314Q331.32812 347.9344 331.46875 347.46564ZM331.5625 345.8094Q331.54688 345.09064 331.1875 344.71564Q330.84375 344.34064 330.32812 344.34064Q329.79688 344.34064 329.4375 344.73126Q329.09375 345.1375 329.09375 345.8094L331.5625 345.8094ZM334.73438 343.23126L336.25 343.23126L336.25 344.075Q337.07812 343.09064 338.20312 343.09064Q338.79688 343.09064 339.23438 343.34064Q339.67188 343.575 339.95312 344.075Q340.35938 343.575 340.82812 343.34064Q341.3125 343.09064 341.85938 343.09064Q342.53125 343.09064 343.0 343.3719Q343.48438 343.6375 343.71875 344.1844Q343.89062 344.575 343.89062 345.46564L343.89062 349.45L342.25 349.45L342.25 345.8875Q342.25 344.96564 342.07812 344.7Q341.84375 344.34064 341.375 344.34064Q341.03125 344.34064 340.71875 344.5594Q340.42188 344.7625 340.28125 345.16876Q340.14062 345.575 340.14062 346.46564L340.14062 349.45L338.5 349.45L338.5 346.04376Q338.5 345.1375 338.40625 344.8719Q338.32812 344.60626 338.14062 344.48126Q337.95312 344.34064 337.64062 344.34064Q337.26562 344.34064 336.95312 344.5594Q336.65625 344.7625 336.51562 345.15314Q336.39062 345.52814 336.39062 346.41876L336.39062 349.45L334.73438 349.45L334.73438 343.23126ZM349.46875 347.46564L351.10938 347.7469Q350.79688 348.65314 350.10938 349.1219Q349.42188 349.59064 348.40625 349.59064Q346.78125 349.59064 346.0 348.52814Q345.375 347.6844 345.375 346.3875Q345.375 344.84064 346.1875 343.96564Q347.0 343.09064 348.23438 343.09064Q349.625 343.09064 350.42188 344.0125Q351.23438 344.91876 351.1875 346.8094L347.0625 346.8094Q347.09375 347.54376 347.46875 347.95Q347.84375 348.35626 348.42188 348.35626Q348.79688 348.35626 349.0625 348.15314Q349.32812 347.9344 349.46875 347.46564ZM349.5625 345.8094Q349.54688 345.09064 349.1875 344.71564Q348.84375 344.34064 348.32812 344.34064Q347.79688 344.34064 347.4375 344.73126Q347.09375 345.1375 347.09375 345.8094L349.5625 345.8094ZM358.51562 349.45L356.875 349.45L356.875 346.27814Q356.875 345.2625 356.76562 344.96564Q356.67188 344.66876 356.42188 344.5125Q356.1875 344.34064 355.85938 344.34064Q355.42188 344.34064 355.07812 344.575Q354.75 344.8094 354.625 345.2Q354.5 345.59064 354.5 346.6375L354.5 349.45L352.84375 349.45L352.84375 343.23126L354.375 343.23126L354.375 344.1375Q355.1875 343.09064 356.4375 343.09064Q356.96875 343.09064 357.42188 343.29376Q357.875 343.48126 358.10938 343.79376Q358.34375 344.09064 358.42188 344.48126Q358.51562 344.85626 358.51562 345.575L358.51562 349.45ZM362.71875 343.23126L362.71875 344.54376L361.59375 344.54376L361.59375 347.04376Q361.59375 347.8094 361.625 347.9344Q361.65625 348.0594 361.76562 348.15314Q361.89062 348.23126 362.04688 348.23126Q362.28125 348.23126 362.70312 348.0594L362.84375 349.34064Q362.28125 349.59064 361.54688 349.59064Q361.10938 349.59064 360.75 349.45Q360.39062 349.29376 360.21875 349.0594Q360.0625 348.8094 359.98438 348.41876Q359.9375 348.1219 359.9375 347.2469L359.9375 344.54376L359.1875 344.54376L359.1875 343.23126L359.9375 343.23126L359.9375 341.9969L361.59375 341.02814L361.59375 343.23126L362.71875 343.23126ZM365.09375 345.1219L363.59375 344.85626Q363.84375 343.95 364.45312 343.52814Q365.07812 343.09064 366.29688 343.09064Q367.39062 343.09064 367.92188 343.35626Q368.46875 343.60626 368.6875 344.0125Q368.90625 344.40314 368.90625 345.48126L368.89062 347.40314Q368.89062 348.23126 368.96875 348.6219Q369.04688 348.9969 369.26562 349.45L367.64062 349.45Q367.57812 349.27814 367.48438 348.96564Q367.4375 348.8094 367.42188 348.7625Q367.0 349.1844 366.51562 349.3875Q366.04688 349.59064 365.5 349.59064Q364.53125 349.59064 363.96875 349.075Q363.42188 348.54376 363.42188 347.7469Q363.42188 347.21564 363.67188 346.8094Q363.9375 346.40314 364.39062 346.1844Q364.84375 345.95 365.70312 345.79376Q366.84375 345.575 367.29688 345.3875L367.29688 345.23126Q367.29688 344.7469 367.0625 344.54376Q366.82812 344.34064 366.17188 344.34064Q365.73438 344.34064 365.48438 344.5125Q365.25 344.6844 365.09375 345.1219ZM367.29688 346.46564Q366.98438 346.5594 366.29688 346.71564Q365.60938 346.85626 365.39062 346.9969Q365.07812 347.23126 365.07812 347.575Q365.07812 347.91876 365.32812 348.1844Q365.59375 348.4344 365.98438 348.4344Q366.4375 348.4344 366.84375 348.1375Q367.14062 347.91876 367.23438 347.59064Q367.29688 347.3875 367.29688 346.79376L367.29688 346.46564ZM376.28125 345.0594L374.67188 345.35626Q374.57812 344.8719 374.28125 344.6375Q374.0 344.3875 373.54688 344.3875Q372.92188 344.3875 372.54688 344.8094Q372.1875 345.23126 372.1875 346.23126Q372.1875 347.34064 372.5625 347.79376Q372.9375 348.2469 373.5625 348.2469Q374.03125 348.2469 374.32812 347.98126Q374.625 347.71564 374.75 347.0594L376.375 347.34064Q376.125 348.45 375.40625 349.02814Q374.6875 349.59064 373.48438 349.59064Q372.125 349.59064 371.3125 348.73126Q370.5 347.8719 370.5 346.34064Q370.5 344.8094 371.3125 343.95Q372.125 343.09064 373.51562 343.09064Q374.65625 343.09064 375.32812 343.575Q376.0 344.0594 376.28125 345.0594ZM377.85938 342.3875L377.85938 340.85626L379.51562 340.85626L379.51562 342.3875L377.85938 342.3875ZM377.85938 349.45L377.85938 343.23126L379.51562 343.23126L379.51562 349.45L377.85938 349.45ZM380.48438 346.2469Q380.48438 345.4344 380.89062 344.66876Q381.29688 343.8875 382.03125 343.4969Q382.76562 343.09064 383.6875 343.09064Q385.09375 343.09064 386.0 344.0125Q386.90625 344.91876 386.90625 346.325Q386.90625 347.73126 385.98438 348.66876Q385.07812 349.59064 383.70312 349.59064Q382.84375 349.59064 382.0625 349.2Q381.29688 348.8094 380.89062 348.075Q380.48438 347.325 380.48438 346.2469ZM382.17188 346.34064Q382.17188 347.2625 382.60938 347.7625Q383.04688 348.2469 383.6875 348.2469Q384.34375 348.2469 384.76562 347.7625Q385.20312 347.2625 385.20312 346.325Q385.20312 345.41876 384.76562 344.9344Q384.34375 344.4344 383.6875 344.4344Q383.04688 344.4344 382.60938 344.9344Q382.17188 345.41876 382.17188 346.34064ZM382.85938 342.46564L383.67188 340.71564L385.51562 340.71564L383.90625 342.46564L382.85938 342.46564ZM393.51562 349.45L391.875 349.45L391.875 346.27814Q391.875 345.2625 391.76562 344.96564Q391.67188 344.66876 391.42188 344.5125Q391.1875 344.34064 390.85938 344.34064Q390.42188 344.34064 390.07812 344.575Q389.75 344.8094 389.625 345.2Q389.5 345.59064 389.5 346.6375L389.5 349.45L387.84375 349.45L387.84375 343.23126L389.375 343.23126L389.375 344.1375Q390.1875 343.09064 391.4375 343.09064Q391.96875 343.09064 392.42188 343.29376Q392.875 343.48126 393.10938 343.79376Q393.34375 344.09064 393.42188 344.48126Q393.51562 344.85626 393.51562 345.575L393.51562 349.45Z" fill-rule="nonzero"/><path fill="#242f26" d="M26.753138 227.49583L26.596888 225.80833Q27.440638 225.65208 27.846888 225.19896Q28.237513 224.73021 28.237513 223.93333Q28.237513 223.10521 27.893763 222.68333Q27.534388 222.24583 27.050013 222.24583Q26.753138 222.24583 26.534388 222.43333Q26.315638 222.60521 26.159388 223.05833Q26.050013 223.35521 25.784388 224.43333Q25.440638 225.83958 24.940638 226.40208Q24.221888 227.18333 23.206263 227.18333Q22.550013 227.18333 21.987513 226.82396Q21.409388 226.44896 21.112513 225.74583Q20.815638 225.04271 20.815638 224.05833Q20.815638 222.43333 21.534388 221.62083Q22.237513 220.80833 23.409388 220.76146L23.487513 222.49583Q22.831263 222.60521 22.550013 222.98021Q22.253138 223.33958 22.253138 224.07396Q22.253138 224.82396 22.565638 225.26146Q22.753138 225.52708 23.096888 225.52708Q23.393763 225.52708 23.612513 225.27708Q23.893763 224.94896 24.190638 223.68333Q24.487513 222.41771 24.815638 221.80833Q25.128138 221.19896 25.690638 220.85521Q26.237513 220.51146 27.050013 220.51146Q27.784388 220.51146 28.440638 220.93333Q29.081263 221.33958 29.393763 222.08958Q29.706263 222.83958 29.706263 223.94896Q29.706263 225.58958 28.956263 226.46458Q28.190638 227.32396 26.753138 227.49583ZM27.565638 215.46458L27.846888 213.82396Q28.753138 214.13646 29.221888 214.82396Q29.690638 215.51146 29.690638 216.52708Q29.690638 218.15208 28.628138 218.93333Q27.784388 219.55833 26.487513 219.55833Q24.940638 219.55833 24.065638 218.74583Q23.190638 217.93333 23.190638 216.69896Q23.190638 215.30833 24.112513 214.51146Q25.018763 213.69896 26.909388 213.74583L26.909388 217.87083Q27.643763 217.83958 28.050013 217.46458Q28.456263 217.08958 28.456263 216.51146Q28.456263 216.13646 28.253138 215.87083Q28.034388 215.60521 27.565638 215.46458ZM25.909388 215.37083Q25.190638 215.38646 24.815638 215.74583Q24.440638 216.08958 24.440638 216.60521Q24.440638 217.13646 24.831263 217.49583Q25.237513 217.83958 25.909388 217.83958L25.909388 215.37083ZM29.956263 212.23021L30.190638 210.33958Q30.518763 210.29271 30.643763 210.12083Q30.815638 209.88646 30.815638 209.38646Q30.815638 208.74583 30.628138 208.41771Q30.487513 208.19896 30.206263 208.08958Q30.003138 208.01146 29.456263 208.01146L28.534388 208.01146Q29.550013 208.76146 29.550013 209.88646Q29.550013 211.13646 28.487513 211.87083Q27.643763 212.43333 26.409388 212.43333Q24.831263 212.43333 24.018763 211.68333Q23.190638 210.93333 23.190638 209.80833Q23.190638 208.66771 24.206263 207.91771L23.331263 207.91771L23.331263 206.37083L28.909388 206.37083Q30.018763 206.37083 30.550013 206.55833Q31.096888 206.73021 31.409388 207.05833Q31.721888 207.38646 31.893763 207.93333Q32.08126 208.48021 32.08126 209.32396Q32.08126 210.90208 31.534388 211.57396Q30.987513 212.23021 30.159388 212.23021Q30.081263 212.23021 29.956263 212.23021ZM26.315638 210.74583Q27.300013 210.74583 27.768763 210.37083Q28.221888 209.98021 28.221888 209.41771Q28.221888 208.82396 27.753138 208.40208Q27.268763 207.98021 26.346888 207.98021Q25.378138 207.98021 24.909388 208.38646Q24.440638 208.77708 24.440638 209.38646Q24.440638 209.98021 24.909388 210.37083Q25.362513 210.74583 26.315638 210.74583ZM29.550013 200.98021L28.612513 200.98021Q29.112513 201.30833 29.409388 201.87083Q29.690638 202.41771 29.690638 203.04271Q29.690638 203.66771 29.425013 204.16771Q29.143763 204.66771 28.643763 204.88646Q28.143763 205.10521 27.268763 205.10521L23.331263 205.10521L23.331263 203.46458L26.190638 203.46458Q27.503138 203.46458 27.800013 203.37083Q28.096888 203.27708 28.268763 203.04271Q28.440638 202.79271 28.440638 202.43333Q28.440638 202.01146 28.206263 201.68333Q27.971888 201.33958 27.628138 201.21458Q27.284388 201.08958 25.956263 201.08958L23.331263 201.08958L23.331263 199.44896L29.550013 199.44896L29.550013 200.98021ZM29.550013 192.41771L29.550013 194.05833L26.378138 194.05833Q25.362513 194.05833 25.065638 194.16771Q24.768763 194.26146 24.612513 194.51146Q24.440638 194.74583 24.440638 195.07396Q24.440638 195.51146 24.675013 195.85521Q24.909388 196.18333 25.300013 196.30833Q25.690638 196.43333 26.737513 196.43333L29.550013 196.43333L29.550013 198.08958L23.331263 198.08958L23.331263 196.55833L24.237513 196.55833Q23.190638 195.74583 23.190638 194.49583Q23.190638 193.96458 23.393763 193.51146Q23.581263 193.05833 23.893763 192.82396Q24.190638 192.58958 24.581263 192.51146Q24.956263 192.41771 25.675013 192.41771L29.550013 192.41771ZM29.550013 185.37083L29.550013 186.88646L28.628138 186.88646Q29.175013 187.27708 29.440638 187.79271Q29.690638 188.30833 29.690638 188.83958Q29.690638 189.91771 28.831263 190.68333Q27.956263 191.43333 26.409388 191.43333Q24.831263 191.43333 24.018763 190.69896Q23.190638 189.94896 23.190638 188.80833Q23.190638 187.77708 24.050013 187.01146L20.956263 187.01146L20.956263 185.37083L29.550013 185.37083ZM26.300013 189.76146Q27.300013 189.76146 27.737513 189.48021Q28.393763 189.08958 28.393763 188.37083Q28.393763 187.80833 27.909388 187.41771Q27.425013 187.01146 26.456263 187.01146Q25.393763 187.01146 24.925013 187.40208Q24.440638 187.77708 24.440638 188.38646Q24.440638 188.96458 24.909388 189.37083Q25.378138 189.76146 26.300013 189.76146ZM26.346888 184.44896Q25.534388 184.44896 24.768763 184.04271Q23.987513 183.63646 23.596888 182.90208Q23.190638 182.16771 23.190638 181.24583Q23.190638 179.83958 24.112513 178.93333Q25.018763 178.02708 26.425013 178.02708Q27.831263 178.02708 28.768763 178.94896Q29.690638 179.85521 29.690638 181.23021Q29.690638 182.08958 29.300013 182.87083Q28.909388 183.63646 28.175013 184.04271Q27.425013 184.44896 26.346888 184.44896ZM26.440638 182.76146Q27.362513 182.76146 27.862513 182.32396Q28.346888 181.88646 28.346888 181.24583Q28.346888 180.58958 27.862513 180.16771Q27.362513 179.73021 26.425013 179.73021Q25.518763 179.73021 25.034388 180.16771Q24.534388 180.58958 24.534388 181.24583Q24.534388 181.88646 25.034388 182.32396Q25.518763 182.76146 26.440638 182.76146ZM27.768763 177.65208L27.518763 175.99583Q28.003138 175.88646 28.253138 175.57396Q28.503138 175.24583 28.503138 174.66771Q28.503138 174.02708 28.268763 173.71458Q28.096888 173.49583 27.831263 173.49583Q27.643763 173.49583 27.518763 173.60521Q27.393763 173.73021 27.300013 174.15208Q26.862513 176.15208 26.503138 176.68333Q25.987513 177.41771 25.096888 177.41771Q24.284388 177.41771 23.737513 176.79271Q23.190638 176.15208 23.190638 174.80833Q23.190638 173.52708 23.612513 172.90208Q24.018763 172.27708 24.831263 172.04271L25.112513 173.60521Q24.753138 173.69896 24.565638 173.98021Q24.362513 174.26146 24.362513 174.77708Q24.362513 175.41771 24.550013 175.69896Q24.675013 175.88646 24.878138 175.88646Q25.065638 175.88646 25.190638 175.73021Q25.346888 175.51146 25.643763 174.19896Q25.940638 172.87083 26.378138 172.35521Q26.815638 171.83958 27.596888 171.83958Q28.456263 171.83958 29.081263 172.55833Q29.690638 173.26146 29.690638 174.66771Q29.690638 175.93333 29.175013 176.68333Q28.659388 177.41771 27.768763 177.65208Z" fill-rule="nonzero"/><path fill="#242f26" d="M86.05 300.21564Q86.05 298.6844 86.3625 297.7625Q86.675 296.825 87.28438 296.325Q87.90938 295.825 88.84688 295.825Q89.53438 295.825 90.05 296.10626Q90.58125 296.3875 90.925 296.91876Q91.26875 297.4344 91.45625 298.1844Q91.64375 298.9344 91.64375 300.21564Q91.64375 301.73126 91.33125 302.65314Q91.03438 303.575 90.40938 304.09064Q89.8 304.59064 88.84688 304.59064Q87.6125 304.59064 86.89375 303.7Q86.05 302.6375 86.05 300.21564ZM87.12813 300.21564Q87.12813 302.325 87.62813 303.02814Q88.12813 303.73126 88.84688 303.73126Q89.58125 303.73126 90.06563 303.02814Q90.56563 302.325 90.56563 300.21564Q90.56563 298.09064 90.06563 297.40314Q89.58125 296.7 88.83125 296.7Q88.1125 296.7 87.675 297.3094Q87.12813 298.09064 87.12813 300.21564ZM93.64375 304.45L93.64375 303.2469L94.84688 303.2469L94.84688 304.45L93.64375 304.45ZM96.05 300.21564Q96.05 298.6844 96.3625 297.7625Q96.675 296.825 97.28438 296.325Q97.90938 295.825 98.84688 295.825Q99.53438 295.825 100.05 296.10626Q100.58125 296.3875 100.925 296.91876Q101.26875 297.4344 101.45625 298.1844Q101.64375 298.9344 101.64375 300.21564Q101.64375 301.73126 101.33125 302.65314Q101.03438 303.575 100.40938 304.09064Q99.8 304.59064 98.84688 304.59064Q97.6125 304.59064 96.89375 303.7Q96.05 302.6375 96.05 300.21564ZM97.12813 300.21564Q97.12813 302.325 97.62813 303.02814Q98.12813 303.73126 98.84688 303.73126Q99.58125 303.73126 100.06563 303.02814Q100.56563 302.325 100.56563 300.21564Q100.56563 298.09064 100.06563 297.40314Q99.58125 296.7 98.83125 296.7Q98.1125 296.7 97.675 297.3094Q97.12813 298.09064 97.12813 300.21564ZM103.05 300.21564Q103.05 298.6844 103.3625 297.7625Q103.675 296.825 104.28438 296.325Q104.90938 295.825 105.84688 295.825Q106.53438 295.825 107.05 296.10626Q107.58125 296.3875 107.925 296.91876Q108.26875 297.4344 108.45625 298.1844Q108.64375 298.9344 108.64375 300.21564Q108.64375 301.73126 108.33125 302.65314Q108.03438 303.575 107.40938 304.09064Q106.8 304.59064 105.84688 304.59064Q104.6125 304.59064 103.89375 303.7Q103.05 302.6375 103.05 300.21564ZM104.12813 300.21564Q104.12813 302.325 104.62813 303.02814Q105.12813 303.73126 105.84688 303.73126Q106.58125 303.73126 107.06563 303.02814Q107.56563 302.325 107.56563 300.21564Q107.56563 298.09064 107.06563 297.40314Q106.58125 296.7 105.83125 296.7Q105.1125 296.7 104.675 297.3094Q104.12813 298.09064 104.12813 300.21564Z" fill-rule="nonzero"/><path fill="#242f26" d="M63.596874 249.67604L63.596874 250.69167L57.909374 250.69167Q57.909374 250.31667 58.034374 249.95729Q58.253124 249.37917 58.721874 248.81667Q59.20625 248.25417 60.1125 247.51979Q61.51875 246.36354 62.003124 245.69167Q62.503124 245.01979 62.503124 244.42604Q62.503124 243.80104 62.05 243.37917Q61.596874 242.94167 60.878124 242.94167Q60.1125 242.94167 59.659374 243.39479Q59.20625 243.84792 59.190624 244.66042L58.1125 244.55104Q58.221874 243.33229 58.940624 242.70729Q59.675 242.06667 60.909374 242.06667Q62.14375 242.06667 62.8625 242.75417Q63.58125 243.44167 63.58125 244.45729Q63.58125 244.97292 63.3625 245.47292Q63.159374 245.95729 62.659374 246.51979Q62.175 247.06667 61.05 248.01979Q60.096874 248.81667 59.815624 249.11354Q59.55 249.39479 59.378124 249.67604L63.596874 249.67604ZM65.05 248.44167L66.15938 248.34792Q66.28438 249.16042 66.72188 249.56667Q67.175 249.97292 67.81563 249.97292Q68.56563 249.97292 69.09688 249.39479Q69.62813 248.81667 69.62813 247.87917Q69.62813 246.97292 69.1125 246.45729Q68.6125 245.92604 67.78438 245.92604Q67.28438 245.92604 66.8625 246.16042Q66.45625 246.39479 66.22188 246.75417L65.2375 246.62917L66.06563 242.22292L70.34688 242.22292L70.34688 243.22292L66.90938 243.22292L66.45625 245.53542Q67.22188 244.98854 68.06563 244.98854Q69.19063 244.98854 69.95625 245.76979Q70.7375 246.55104 70.7375 247.78542Q70.7375 248.94167 70.06563 249.80104Q69.2375 250.83229 67.81563 250.83229Q66.64375 250.83229 65.89375 250.17604Q65.15938 249.51979 65.05 248.44167ZM72.05 246.45729Q72.05 244.92604 72.3625 244.00417Q72.675 243.06667 73.28438 242.56667Q73.90938 242.06667 74.84688 242.06667Q75.53438 242.06667 76.05 242.34792Q76.58125 242.62917 76.925 243.16042Q77.26875 243.67604 77.45625 244.42604Q77.64375 245.17604 77.64375 246.45729Q77.64375 247.97292 77.33125 248.89479Q77.03438 249.81667 76.40938 250.33229Q75.8 250.83229 74.84688 250.83229Q73.6125 250.83229 72.89375 249.94167Q72.05 248.87917 72.05 246.45729ZM73.12813 246.45729Q73.12813 248.56667 73.62813 249.26979Q74.12813 249.97292 74.84688 249.97292Q75.58125 249.97292 76.06563 249.26979Q76.56563 248.56667 76.56563 246.45729Q76.56563 244.33229 76.06563 243.64479Q75.58125 242.94167 74.83125 242.94167Q74.1125 242.94167 73.675 243.55104Q73.12813 244.33229 73.12813 246.45729ZM79.05 246.45729Q79.05 244.92604 79.3625 244.00417Q79.675 243.06667 80.28438 242.56667Q80.90938 242.06667 81.84688 242.06667Q82.53438 242.06667 83.05 242.34792Q83.58125 242.62917 83.925 243.16042Q84.26875 243.67604 84.45625 244.42604Q84.64375 245.17604 84.64375 246.45729Q84.64375 247.97292 84.33125 248.89479Q84.03438 249.81667 83.40938 250.33229Q82.8 250.83229 81.84688 250.83229Q80.6125 250.83229 79.89375 249.94167Q79.05 248.87917 79.05 246.45729ZM80.12813 246.45729Q80.12813 248.56667 80.62813 249.26979Q81.12813 249.97292 81.84688 249.97292Q82.58125 249.97292 83.06563 249.26979Q83.56563 248.56667 83.56563 246.45729Q83.56563 244.33229 83.06563 243.64479Q82.58125 242.94167 81.83125 242.94167Q81.1125 242.94167 80.675 243.55104Q80.12813 244.33229 80.12813 246.45729ZM86.05 246.45729Q86.05 244.92604 86.3625 244.00417Q86.675 243.06667 87.28438 242.56667Q87.90938 242.06667 88.84688 242.06667Q89.53438 242.06667 90.05 242.34792Q90.58125 242.62917 90.925 243.16042Q91.26875 243.67604 91.45625 244.42604Q91.64375 245.17604 91.64375 246.45729Q91.64375 247.97292 91.33125 248.89479Q91.03438 249.81667 90.40938 250.33229Q89.8 250.83229 88.84688 250.83229Q87.6125 250.83229 86.89375 249.94167Q86.05 248.87917 86.05 246.45729ZM87.12813 246.45729Q87.12813 248.56667 87.62813 249.26979Q88.12813 249.97292 88.84688 249.97292Q89.58125 249.97292 90.06563 249.26979Q90.56563 248.56667 90.56563 246.45729Q90.56563 244.33229 90.06563 243.64479Q89.58125 242.94167 88.83125 242.94167Q88.1125 242.94167 87.675 243.55104Q87.12813 244.33229 87.12813 246.45729ZM93.64375 250.69167L93.64375 249.48854L94.84688 249.48854L94.84688 250.69167L93.64375 250.69167ZM96.05 246.45729Q96.05 244.92604 96.3625 244.00417Q96.675 243.06667 97.28438 242.56667Q97.90938 242.06667 98.84688 242.06667Q99.53438 242.06667 100.05 242.34792Q100.58125 242.62917 100.925 243.16042Q101.26875 243.67604 101.45625 244.42604Q101.64375 245.17604 101.64375 246.45729Q101.64375 247.97292 101.33125 248.89479Q101.03438 249.81667 100.40938 250.33229Q99.8 250.83229 98.84688 250.83229Q97.6125 250.83229 96.89375 249.94167Q96.05 248.87917 96.05 246.45729ZM97.12813 246.45729Q97.12813 248.56667 97.62813 249.26979Q98.12813 249.97292 98.84688 249.97292Q99.58125 249.97292 100.06563 249.26979Q100.56563 248.56667 100.56563 246.45729Q100.56563 244.33229 100.06563 243.64479Q99.58125 242.94167 98.83125 242.94167Q98.1125 242.94167 97.675 243.55104Q97.12813 244.33229 97.12813 246.45729ZM103.05 246.45729Q103.05 244.92604 103.3625 244.00417Q103.675 243.06667 104.28438 242.56667Q104.90938 242.06667 105.84688 242.06667Q106.53438 242.06667 107.05 242.34792Q107.58125 242.62917 107.925 243.16042Q108.26875 243.67604 108.45625 244.42604Q108.64375 245.17604 108.64375 246.45729Q108.64375 247.97292 108.33125 248.89479Q108.03438 249.81667 107.40938 250.33229Q106.8 250.83229 105.84688 250.83229Q104.6125 250.83229 103.89375 249.94167Q103.05 248.87917 103.05 246.45729ZM104.12813 246.45729Q104.12813 248.56667 104.62813 249.26979Q105.12813 249.97292 105.84688 249.97292Q106.58125 249.97292 107.06563 249.26979Q107.56563 248.56667 107.56563 246.45729Q107.56563 244.33229 107.06563 243.64479Q106.58125 242.94167 105.83125 242.94167Q105.1125 242.94167 104.675 243.55104Q104.12813 244.33229 104.12813 246.45729Z" fill-rule="nonzero"/><path fill="#242f26" d="M58.05 194.68333L59.159374 194.58958Q59.284374 195.40208 59.721874 195.80833Q60.175 196.21458 60.815624 196.21458Q61.565624 196.21458 62.096874 195.63646Q62.628124 195.05833 62.628124 194.12083Q62.628124 193.21458 62.1125 192.69896Q61.6125 192.16771 60.784374 192.16771Q60.284374 192.16771 59.8625 192.40208Q59.45625 192.63646 59.221874 192.99583L58.2375 192.87083L59.065624 188.46458L63.346874 188.46458L63.346874 189.46458L59.909374 189.46458L59.45625 191.77708Q60.221874 191.23021 61.065624 191.23021Q62.190624 191.23021 62.95625 192.01146Q63.7375 192.79271 63.7375 194.02708Q63.7375 195.18333 63.065624 196.04271Q62.2375 197.07396 60.815624 197.07396Q59.64375 197.07396 58.89375 196.41771Q58.159374 195.76146 58.05 194.68333ZM65.05 192.69896Q65.05 191.16771 65.3625 190.24583Q65.675 189.30833 66.28438 188.80833Q66.90938 188.30833 67.84688 188.30833Q68.53438 188.30833 69.05 188.58958Q69.58125 188.87083 69.925 189.40208Q70.26875 189.91771 70.45625 190.66771Q70.64375 191.41771 70.64375 192.69896Q70.64375 194.21458 70.33125 195.13646Q70.03438 196.05833 69.40938 196.57396Q68.8 197.07396 67.84688 197.07396Q66.6125 197.07396 65.89375 196.18333Q65.05 195.12083 65.05 192.69896ZM66.12813 192.69896Q66.12813 194.80833 66.62813 195.51146Q67.12813 196.21458 67.84688 196.21458Q68.58125 196.21458 69.06563 195.51146Q69.56563 194.80833 69.56563 192.69896Q69.56563 190.57396 69.06563 189.88646Q68.58125 189.18333 67.83125 189.18333Q67.1125 189.18333 66.675 189.79271Q66.12813 190.57396 66.12813 192.69896ZM72.05 192.69896Q72.05 191.16771 72.3625 190.24583Q72.675 189.30833 73.28438 188.80833Q73.90938 188.30833 74.84688 188.30833Q75.53438 188.30833 76.05 188.58958Q76.58125 188.87083 76.925 189.40208Q77.26875 189.91771 77.45625 190.66771Q77.64375 191.41771 77.64375 192.69896Q77.64375 194.21458 77.33125 195.13646Q77.03438 196.05833 76.40938 196.57396Q75.8 197.07396 74.84688 197.07396Q73.6125 197.07396 72.89375 196.18333Q72.05 195.12083 72.05 192.69896ZM73.12813 192.69896Q73.12813 194.80833 73.62813 195.51146Q74.12813 196.21458 74.84688 196.21458Q75.58125 196.21458 76.06563 195.51146Q76.56563 194.80833 76.56563 192.69896Q76.56563 190.57396 76.06563 189.88646Q75.58125 189.18333 74.83125 189.18333Q74.1125 189.18333 73.675 189.79271Q73.12813 190.57396 73.12813 192.69896ZM79.05 192.69896Q79.05 191.16771 79.3625 190.24583Q79.675 189.30833 80.28438 188.80833Q80.90938 188.30833 81.84688 188.30833Q82.53438 188.30833 83.05 188.58958Q83.58125 188.87083 83.925 189.40208Q84.26875 189.91771 84.45625 190.66771Q84.64375 191.41771 84.64375 192.69896Q84.64375 194.21458 84.33125 195.13646Q84.03438 196.05833 83.40938 196.57396Q82.8 197.07396 81.84688 197.07396Q80.6125 197.07396 79.89375 196.18333Q79.05 195.12083 79.05 192.69896ZM80.12813 192.69896Q80.12813 194.80833 80.62813 195.51146Q81.12813 196.21458 81.84688 196.21458Q82.58125 196.21458 83.06563 195.51146Q83.56563 194.80833 83.56563 192.69896Q83.56563 190.57396 83.06563 189.88646Q82.58125 189.18333 81.83125 189.18333Q81.1125 189.18333 80.675 189.79271Q80.12813 190.57396 80.12813 192.69896ZM86.05 192.69896Q86.05 191.16771 86.3625 190.24583Q86.675 189.30833 87.28438 188.80833Q87.90938 188.30833 88.84688 188.30833Q89.53438 188.30833 90.05 188.58958Q90.58125 188.87083 90.925 189.40208Q91.26875 189.91771 91.45625 190.66771Q91.64375 191.41771 91.64375 192.69896Q91.64375 194.21458 91.33125 195.13646Q91.03438 196.05833 90.40938 196.57396Q89.8 197.07396 88.84688 197.07396Q87.6125 197.07396 86.89375 196.18333Q86.05 195.12083 86.05 192.69896ZM87.12813 192.69896Q87.12813 194.80833 87.62813 195.51146Q88.12813 196.21458 88.84688 196.21458Q89.58125 196.21458 90.06563 195.51146Q90.56563 194.80833 90.56563 192.69896Q90.56563 190.57396 90.06563 189.88646Q89.58125 189.18333 88.83125 189.18333Q88.1125 189.18333 87.675 189.79271Q87.12813 190.57396 87.12813 192.69896ZM93.64375 196.93333L93.64375 195.73021L94.84688 195.73021L94.84688 196.93333L93.64375 196.93333ZM96.05 192.69896Q96.05 191.16771 96.3625 190.24583Q96.675 189.30833 97.28438 188.80833Q97.90938 188.30833 98.84688 188.30833Q99.53438 188.30833 100.05 188.58958Q100.58125 188.87083 100.925 189.40208Q101.26875 189.91771 101.45625 190.66771Q101.64375 191.41771 101.64375 192.69896Q101.64375 194.21458 101.33125 195.13646Q101.03438 196.05833 100.40938 196.57396Q99.8 197.07396 98.84688 197.07396Q97.6125 197.07396 96.89375 196.18333Q96.05 195.12083 96.05 192.69896ZM97.12813 192.69896Q97.12813 194.80833 97.62813 195.51146Q98.12813 196.21458 98.84688 196.21458Q99.58125 196.21458 100.06563 195.51146Q100.56563 194.80833 100.56563 192.69896Q100.56563 190.57396 100.06563 189.88646Q99.58125 189.18333 98.83125 189.18333Q98.1125 189.18333 97.675 189.79271Q97.12813 190.57396 97.12813 192.69896ZM103.05 192.69896Q103.05 191.16771 103.3625 190.24583Q103.675 189.30833 104.28438 188.80833Q104.90938 188.30833 105.84688 188.30833Q106.53438 188.30833 107.05 188.58958Q107.58125 188.87083 107.925 189.40208Q108.26875 189.91771 108.45625 190.66771Q108.64375 191.41771 108.64375 192.69896Q108.64375 194.21458 108.33125 195.13646Q108.03438 196.05833 107.40938 196.57396Q106.8 197.07396 105.84688 197.07396Q104.6125 197.07396 103.89375 196.18333Q103.05 195.12083 103.05 192.69896ZM104.12813 192.69896Q104.12813 194.80833 104.62813 195.51146Q105.12813 196.21458 105.84688 196.21458Q106.58125 196.21458 107.06563 195.51146Q107.56563 194.80833 107.56563 192.69896Q107.56563 190.57396 107.06563 189.88646Q106.58125 189.18333 105.83125 189.18333Q105.1125 189.18333 104.675 189.79271Q104.12813 190.57396 104.12813 192.69896Z" fill-rule="nonzero"/><path fill="#242f26" d="M58.1125 135.70625L58.1125 134.69063L63.675 134.69063L63.675 135.51875Q62.8625 136.39375 62.05 137.84688Q61.253124 139.28438 60.815624 140.81563Q60.4875 141.89375 60.409374 143.175L59.315624 143.175Q59.33125 142.15938 59.70625 140.72188Q60.096874 139.28438 60.8 137.95625Q61.51875 136.62813 62.33125 135.70625L58.1125 135.70625ZM65.05 140.925L66.15938 140.83125Q66.28438 141.64375 66.72188 142.05Q67.175 142.45625 67.81563 142.45625Q68.56563 142.45625 69.09688 141.87813Q69.62813 141.3 69.62813 140.3625Q69.62813 139.45625 69.1125 138.94063Q68.6125 138.40938 67.78438 138.40938Q67.28438 138.40938 66.8625 138.64375Q66.45625 138.87813 66.22188 139.2375L65.2375 139.1125L66.06563 134.70625L70.34688 134.70625L70.34688 135.70625L66.90938 135.70625L66.45625 138.01875Q67.22188 137.47188 68.06563 137.47188Q69.19063 137.47188 69.95625 138.25313Q70.7375 139.03438 70.7375 140.26875Q70.7375 141.425 70.06563 142.28438Q69.2375 143.31563 67.81563 143.31563Q66.64375 143.31563 65.89375 142.65938Q65.15938 142.00313 65.05 140.925ZM72.05 138.94063Q72.05 137.40938 72.3625 136.4875Q72.675 135.55 73.28438 135.05Q73.90938 134.55 74.84688 134.55Q75.53438 134.55 76.05 134.83125Q76.58125 135.1125 76.925 135.64375Q77.26875 136.15938 77.45625 136.90938Q77.64375 137.65938 77.64375 138.94063Q77.64375 140.45625 77.33125 141.37813Q77.03438 142.3 76.40938 142.81563Q75.8 143.31563 74.84688 143.31563Q73.6125 143.31563 72.89375 142.425Q72.05 141.3625 72.05 138.94063ZM73.12813 138.94063Q73.12813 141.05 73.62813 141.75313Q74.12813 142.45625 74.84688 142.45625Q75.58125 142.45625 76.06563 141.75313Q76.56563 141.05 76.56563 138.94063Q76.56563 136.81563 76.06563 136.12813Q75.58125 135.425 74.83125 135.425Q74.1125 135.425 73.675 136.03438Q73.12813 136.81563 73.12813 138.94063ZM79.05 138.94063Q79.05 137.40938 79.3625 136.4875Q79.675 135.55 80.28438 135.05Q80.90938 134.55 81.84688 134.55Q82.53438 134.55 83.05 134.83125Q83.58125 135.1125 83.925 135.64375Q84.26875 136.15938 84.45625 136.90938Q84.64375 137.65938 84.64375 138.94063Q84.64375 140.45625 84.33125 141.37813Q84.03438 142.3 83.40938 142.81563Q82.8 143.31563 81.84688 143.31563Q80.6125 143.31563 79.89375 142.425Q79.05 141.3625 79.05 138.94063ZM80.12813 138.94063Q80.12813 141.05 80.62813 141.75313Q81.12813 142.45625 81.84688 142.45625Q82.58125 142.45625 83.06563 141.75313Q83.56563 141.05 83.56563 138.94063Q83.56563 136.81563 83.06563 136.12813Q82.58125 135.425 81.83125 135.425Q81.1125 135.425 80.675 136.03438Q80.12813 136.81563 80.12813 138.94063ZM86.05 138.94063Q86.05 137.40938 86.3625 136.4875Q86.675 135.55 87.28438 135.05Q87.90938 134.55 88.84688 134.55Q89.53438 134.55 90.05 134.83125Q90.58125 135.1125 90.925 135.64375Q91.26875 136.15938 91.45625 136.90938Q91.64375 137.65938 91.64375 138.94063Q91.64375 140.45625 91.33125 141.37813Q91.03438 142.3 90.40938 142.81563Q89.8 143.31563 88.84688 143.31563Q87.6125 143.31563 86.89375 142.425Q86.05 141.3625 86.05 138.94063ZM87.12813 138.94063Q87.12813 141.05 87.62813 141.75313Q88.12813 142.45625 88.84688 142.45625Q89.58125 142.45625 90.06563 141.75313Q90.56563 141.05 90.56563 138.94063Q90.56563 136.81563 90.06563 136.12813Q89.58125 135.425 88.83125 135.425Q88.1125 135.425 87.675 136.03438Q87.12813 136.81563 87.12813 138.94063ZM93.64375 143.175L93.64375 141.97188L94.84688 141.97188L94.84688 143.175L93.64375 143.175ZM96.05 138.94063Q96.05 137.40938 96.3625 136.4875Q96.675 135.55 97.28438 135.05Q97.90938 134.55 98.84688 134.55Q99.53438 134.55 100.05 134.83125Q100.58125 135.1125 100.925 135.64375Q101.26875 136.15938 101.45625 136.90938Q101.64375 137.65938 101.64375 138.94063Q101.64375 140.45625 101.33125 141.37813Q101.03438 142.3 100.40938 142.81563Q99.8 143.31563 98.84688 143.31563Q97.6125 143.31563 96.89375 142.425Q96.05 141.3625 96.05 138.94063ZM97.12813 138.94063Q97.12813 141.05 97.62813 141.75313Q98.12813 142.45625 98.84688 142.45625Q99.58125 142.45625 100.06563 141.75313Q100.56563 141.05 100.56563 138.94063Q100.56563 136.81563 100.06563 136.12813Q99.58125 135.425 98.83125 135.425Q98.1125 135.425 97.675 136.03438Q97.12813 136.81563 97.12813 138.94063ZM103.05 138.94063Q103.05 137.40938 103.3625 136.4875Q103.675 135.55 104.28438 135.05Q104.90938 134.55 105.84688 134.55Q106.53438 134.55 107.05 134.83125Q107.58125 135.1125 107.925 135.64375Q108.26875 136.15938 108.45625 136.90938Q108.64375 137.65938 108.64375 138.94063Q108.64375 140.45625 108.33125 141.37813Q108.03438 142.3 107.40938 142.81563Q106.8 143.31563 105.84688 143.31563Q104.6125 143.31563 103.89375 142.425Q103.05 141.3625 103.05 138.94063ZM104.12813 138.94063Q104.12813 141.05 104.62813 141.75313Q105.12813 142.45625 105.84688 142.45625Q106.58125 142.45625 107.06563 141.75313Q107.56563 141.05 107.56563 138.94063Q107.56563 136.81563 107.06563 136.12813Q106.58125 135.425 105.83125 135.425Q105.1125 135.425 104.675 136.03438Q104.12813 136.81563 104.12813 138.94063Z" fill-rule="nonzero"/><path fill="#242f26" d="M55.01875 89.416664L53.971874 89.416664L53.971874 82.697914Q53.58125 83.05729 52.95625 83.43229Q52.346874 83.791664 51.8625 83.96354L51.8625 82.947914Q52.7375 82.52604 53.39375 81.947914Q54.065624 81.354164 54.346874 80.791664L55.01875 80.791664L55.01875 89.416664ZM58.05 85.18229Q58.05 83.65104 58.3625 82.729164Q58.675 81.791664 59.284374 81.291664Q59.909374 80.791664 60.846874 80.791664Q61.534374 80.791664 62.05 81.072914Q62.58125 81.354164 62.925 81.885414Q63.26875 82.40104 63.45625 83.15104Q63.64375 83.90104 63.64375 85.18229Q63.64375 86.697914 63.33125 87.61979Q63.034374 88.541664 62.409374 89.05729Q61.8 89.55729 60.846874 89.55729Q59.6125 89.55729 58.89375 88.666664Q58.05 87.604164 58.05 85.18229ZM59.128124 85.18229Q59.128124 87.291664 59.628124 87.99479Q60.128124 88.697914 60.846874 88.697914Q61.58125 88.697914 62.065624 87.99479Q62.565624 87.291664 62.565624 85.18229Q62.565624 83.05729 62.065624 82.36979Q61.58125 81.666664 60.83125 81.666664Q60.1125 81.666664 59.675 82.27604Q59.128124 83.05729 59.128124 85.18229ZM65.05 85.18229Q65.05 83.65104 65.3625 82.729164Q65.675 81.791664 66.28438 81.291664Q66.90938 80.791664 67.84688 80.791664Q68.53438 80.791664 69.05 81.072914Q69.58125 81.354164 69.925 81.885414Q70.26875 82.40104 70.45625 83.15104Q70.64375 83.90104 70.64375 85.18229Q70.64375 86.697914 70.33125 87.61979Q70.03438 88.541664 69.40938 89.05729Q68.8 89.55729 67.84688 89.55729Q66.6125 89.55729 65.89375 88.666664Q65.05 87.604164 65.05 85.18229ZM66.12813 85.18229Q66.12813 87.291664 66.62813 87.99479Q67.12813 88.697914 67.84688 88.697914Q68.58125 88.697914 69.06563 87.99479Q69.56563 87.291664 69.56563 85.18229Q69.56563 83.05729 69.06563 82.36979Q68.58125 81.666664 67.83125 81.666664Q67.1125 81.666664 66.675 82.27604Q66.12813 83.05729 66.12813 85.18229ZM72.05 85.18229Q72.05 83.65104 72.3625 82.729164Q72.675 81.791664 73.28438 81.291664Q73.90938 80.791664 74.84688 80.791664Q75.53438 80.791664 76.05 81.072914Q76.58125 81.354164 76.925 81.885414Q77.26875 82.40104 77.45625 83.15104Q77.64375 83.90104 77.64375 85.18229Q77.64375 86.697914 77.33125 87.61979Q77.03438 88.541664 76.40938 89.05729Q75.8 89.55729 74.84688 89.55729Q73.6125 89.55729 72.89375 88.666664Q72.05 87.604164 72.05 85.18229ZM73.12813 85.18229Q73.12813 87.291664 73.62813 87.99479Q74.12813 88.697914 74.84688 88.697914Q75.58125 88.697914 76.06563 87.99479Q76.56563 87.291664 76.56563 85.18229Q76.56563 83.05729 76.06563 82.36979Q75.58125 81.666664 74.83125 81.666664Q74.1125 81.666664 73.675 82.27604Q73.12813 83.05729 73.12813 85.18229ZM79.05 85.18229Q79.05 83.65104 79.3625 82.729164Q79.675 81.791664 80.28438 81.291664Q80.90938 80.791664 81.84688 80.791664Q82.53438 80.791664 83.05 81.072914Q83.58125 81.354164 83.925 81.885414Q84.26875 82.40104 84.45625 83.15104Q84.64375 83.90104 84.64375 85.18229Q84.64375 86.697914 84.33125 87.61979Q84.03438 88.541664 83.40938 89.05729Q82.8 89.55729 81.84688 89.55729Q80.6125 89.55729 79.89375 88.666664Q79.05 87.604164 79.05 85.18229ZM80.12813 85.18229Q80.12813 87.291664 80.62813 87.99479Q81.12813 88.697914 81.84688 88.697914Q82.58125 88.697914 83.06563 87.99479Q83.56563 87.291664 83.56563 85.18229Q83.56563 83.05729 83.06563 82.36979Q82.58125 81.666664 81.83125 81.666664Q81.1125 81.666664 80.675 82.27604Q80.12813 83.05729 80.12813 85.18229ZM86.05 85.18229Q86.05 83.65104 86.3625 82.729164Q86.675 81.791664 87.28438 81.291664Q87.90938 80.791664 88.84688 80.791664Q89.53438 80.791664 90.05 81.072914Q90.58125 81.354164 90.925 81.885414Q91.26875 82.40104 91.45625 83.15104Q91.64375 83.90104 91.64375 85.18229Q91.64375 86.697914 91.33125 87.61979Q91.03438 88.541664 90.40938 89.05729Q89.8 89.55729 88.84688 89.55729Q87.6125 89.55729 86.89375 88.666664Q86.05 87.604164 86.05 85.18229ZM87.12813 85.18229Q87.12813 87.291664 87.62813 87.99479Q88.12813 88.697914 88.84688 88.697914Q89.58125 88.697914 90.06563 87.99479Q90.56563 87.291664 90.56563 85.18229Q90.56563 83.05729 90.06563 82.36979Q89.58125 81.666664 88.83125 81.666664Q88.1125 81.666664 87.675 82.27604Q87.12813 83.05729 87.12813 85.18229ZM93.64375 89.416664L93.64375 88.21354L94.84688 88.21354L94.84688 89.416664L93.64375 89.416664ZM96.05 85.18229Q96.05 83.65104 96.3625 82.729164Q96.675 81.791664 97.28438 81.291664Q97.90938 80.791664 98.84688 80.791664Q99.53438 80.791664 100.05 81.072914Q100.58125 81.354164 100.925 81.885414Q101.26875 82.40104 101.45625 83.15104Q101.64375 83.90104 101.64375 85.18229Q101.64375 86.697914 101.33125 87.61979Q101.03438 88.541664 100.40938 89.05729Q99.8 89.55729 98.84688 89.55729Q97.6125 89.55729 96.89375 88.666664Q96.05 87.604164 96.05 85.18229ZM97.12813 85.18229Q97.12813 87.291664 97.62813 87.99479Q98.12813 88.697914 98.84688 88.697914Q99.58125 88.697914 100.06563 87.99479Q100.56563 87.291664 100.56563 85.18229Q100.56563 83.05729 100.06563 82.36979Q99.58125 81.666664 98.83125 81.666664Q98.1125 81.666664 97.675 82.27604Q97.12813 83.05729 97.12813 85.18229ZM103.05 85.18229Q103.05 83.65104 103.3625 82.729164Q103.675 81.791664 104.28438 81.291664Q104.90938 80.791664 105.84688 80.791664Q106.53438 80.791664 107.05 81.072914Q107.58125 81.354164 107.925 81.885414Q108.26875 82.40104 108.45625 83.15104Q108.64375 83.90104 108.64375 85.18229Q108.64375 86.697914 108.33125 87.61979Q108.03438 88.541664 107.40938 89.05729Q106.8 89.55729 105.84688 89.55729Q104.6125 89.55729 103.89375 88.666664Q103.05 87.604164 103.05 85.18229ZM104.12813 85.18229Q104.12813 87.291664 104.62813 87.99479Q105.12813 88.697914 105.84688 88.697914Q106.58125 88.697914 107.06563 87.99479Q107.56563 87.291664 107.56563 85.18229Q107.56563 83.05729 107.06563 82.36979Q106.58125 81.666664 105.83125 81.666664Q105.1125 81.666664 104.675 82.27604Q104.12813 83.05729 104.12813 85.18229Z" fill-rule="nonzero"/><path fill="#242f26" d="M172.39171 314.6844L173.45421 314.59064Q173.53233 315.2469 173.81358 315.65314Q174.09483 316.0594 174.67296 316.325Q175.26671 316.575 176.00108 316.575Q176.64171 316.575 177.14171 316.3875Q177.64171 316.1844 177.87608 315.85626Q178.12608 315.5125 178.12608 315.1219Q178.12608 314.71564 177.89171 314.41876Q177.65733 314.10626 177.12608 313.90314Q176.76671 313.7625 175.57921 313.48126Q174.40733 313.2 173.93858 312.95Q173.31358 312.6219 173.01671 312.15314Q172.71983 311.66876 172.71983 311.075Q172.71983 310.4344 173.07921 309.8719Q173.45421 309.29376 174.15733 309.0125Q174.87608 308.71564 175.73546 308.71564Q176.68858 308.71564 177.42296 309.02814Q178.15733 309.325 178.54796 309.9344Q178.93858 310.52814 178.96983 311.27814L177.87608 311.35626Q177.78233 310.54376 177.26671 310.1375Q176.76671 309.71564 175.78233 309.71564Q174.75108 309.71564 174.28233 310.09064Q173.81358 310.46564 173.81358 310.9969Q173.81358 311.46564 174.14171 311.7625Q174.46983 312.0594 175.84483 312.3719Q177.23546 312.6844 177.75108 312.91876Q178.50108 313.27814 178.86046 313.8094Q179.21983 314.325 179.21983 315.02814Q179.21983 315.71564 178.82921 316.325Q178.43858 316.91876 177.70421 317.2625Q176.96983 317.59064 176.04796 317.59064Q174.87608 317.59064 174.07921 317.2625Q173.29796 316.91876 172.84483 316.23126Q172.40733 315.54376 172.39171 314.6844ZM184.89171 315.45L185.98546 315.575Q185.73546 316.52814 185.03233 317.0594Q184.32921 317.59064 183.25108 317.59064Q181.89171 317.59064 181.07921 316.7469Q180.28233 315.90314 180.28233 314.3875Q180.28233 312.825 181.09483 311.96564Q181.90733 311.09064 183.18858 311.09064Q184.43858 311.09064 185.21983 311.9344Q186.01671 312.77814 186.01671 314.325Q186.01671 314.41876 186.01671 314.60626L181.37608 314.60626Q181.43858 315.6375 181.95421 316.1844Q182.46983 316.71564 183.25108 316.71564Q183.82921 316.71564 184.23546 316.41876Q184.65733 316.10626 184.89171 315.45ZM181.43858 313.7469L184.90733 313.7469Q184.84483 312.95 184.51671 312.5594Q184.00108 311.95 183.20421 311.95Q182.46983 311.95 181.96983 312.4344Q181.48546 312.91876 181.43858 313.7469ZM187.62608 317.45L187.62608 311.23126L188.57921 311.23126L188.57921 312.16876Q188.93858 311.5125 189.23546 311.3094Q189.54796 311.09064 189.92296 311.09064Q190.45421 311.09064 191.00108 311.41876L190.64171 312.40314Q190.25108 312.16876 189.87608 312.16876Q189.51671 312.16876 189.23546 312.3875Q188.96983 312.59064 188.86046 312.96564Q188.67296 313.52814 188.67296 314.1844L188.67296 317.45L187.62608 317.45ZM191.64171 310.075L191.64171 308.85626L192.70421 308.85626L192.70421 310.075L191.64171 310.075ZM191.64171 317.45L191.64171 311.23126L192.70421 311.23126L192.70421 317.45L191.64171 317.45ZM198.70421 316.6844Q198.11046 317.1844 197.56358 317.3875Q197.03233 317.59064 196.40733 317.59064Q195.37608 317.59064 194.82921 317.09064Q194.28233 316.59064 194.28233 315.8094Q194.28233 315.35626 194.48546 314.98126Q194.68858 314.59064 195.03233 314.3719Q195.37608 314.1375 195.79796 314.02814Q196.09483 313.9344 196.73546 313.85626Q198.00108 313.71564 198.61046 313.4969Q198.61046 313.27814 198.61046 313.23126Q198.61046 312.575 198.31358 312.3094Q197.90733 311.96564 197.11046 311.96564Q196.37608 311.96564 196.01671 312.23126Q195.65733 312.48126 195.48546 313.1375L194.45421 312.9969Q194.59483 312.34064 194.92296 311.9344Q195.25108 311.52814 195.86046 311.3094Q196.46983 311.09064 197.26671 311.09064Q198.06358 311.09064 198.56358 311.27814Q199.06358 311.46564 199.29796 311.7469Q199.53233 312.02814 199.62608 312.46564Q199.67296 312.73126 199.67296 313.4344L199.67296 314.84064Q199.67296 316.3094 199.73546 316.7Q199.81358 317.09064 200.01671 317.45L198.90733 317.45Q198.75108 317.1219 198.70421 316.6844ZM198.61046 314.325Q198.03233 314.5594 196.89171 314.73126Q196.23546 314.825 195.96983 314.95Q195.70421 315.0594 195.54796 315.27814Q195.40733 315.4969 195.40733 315.77814Q195.40733 316.2 195.71983 316.48126Q196.04796 316.7625 196.65733 316.7625Q197.26671 316.7625 197.73546 316.4969Q198.21983 316.23126 198.43858 315.7625Q198.61046 315.40314 198.61046 314.71564L198.61046 314.325ZM201.61046 317.45L201.61046 308.85626L202.67296 308.85626L202.67296 317.45L201.61046 317.45Z" fill-rule="nonzero"/><path fill="#242f26" d="M282.5264 313.2625Q282.5264 311.1219 283.66702 309.91876Q284.82327 308.7 286.63577 308.7Q287.8389 308.7 288.79202 309.27814Q289.74515 309.84064 290.24515 310.85626Q290.74515 311.8719 290.74515 313.16876Q290.74515 314.46564 290.2139 315.4969Q289.68265 316.52814 288.7139 317.0594Q287.76077 317.59064 286.63577 317.59064Q285.41702 317.59064 284.4639 317.0125Q283.51077 316.41876 283.01077 315.41876Q282.5264 314.40314 282.5264 313.2625ZM283.69827 313.27814Q283.69827 314.84064 284.5264 315.73126Q285.37015 316.6219 286.63577 316.6219Q287.91702 316.6219 288.74515 315.73126Q289.57327 314.825 289.57327 313.15314Q289.57327 312.10626 289.2139 311.325Q288.87015 310.54376 288.18265 310.1219Q287.49515 309.6844 286.6514 309.6844Q285.44827 309.6844 284.57327 310.5125Q283.69827 311.34064 283.69827 313.27814ZM291.8389 317.45L291.8389 308.85626L293.55765 308.85626L295.5889 314.9344Q295.87015 315.79376 295.99515 316.21564Q296.13577 315.7469 296.44827 314.84064L298.51077 308.85626L300.04202 308.85626L300.04202 317.45L298.94827 317.45L298.94827 310.2625L296.44827 317.45L295.41702 317.45L292.93265 310.1375L292.93265 317.45L291.8389 317.45ZM300.87015 317.45L300.87015 308.85626L304.12015 308.85626Q304.9639 308.85626 305.41702 308.9344Q306.05765 309.04376 306.47952 309.34064Q306.91702 309.6375 307.16702 310.16876Q307.43265 310.7 307.43265 311.34064Q307.43265 312.4344 306.72952 313.2Q306.04202 313.95 304.2139 313.95L302.01077 313.95L302.01077 317.45L300.87015 317.45ZM302.01077 312.95L304.22952 312.95Q305.3389 312.95 305.79202 312.54376Q306.26077 312.1219 306.26077 311.3719Q306.26077 310.84064 305.97952 310.46564Q305.7139 310.075 305.2764 309.95Q304.97952 309.8719 304.2139 309.8719L302.01077 309.8719L302.01077 312.95Z" fill-rule="nonzero"/><path fill="#242f26" d="M392.94235 317.45L392.94235 308.85626L394.6611 308.85626L396.69235 314.9344Q396.9736 315.79376 397.0986 316.21564Q397.23923 315.7469 397.55173 314.84064L399.61423 308.85626L401.14548 308.85626L401.14548 317.45L400.05173 317.45L400.05173 310.2625L397.55173 317.45L396.52048 317.45L394.0361 310.1375L394.0361 317.45L392.94235 317.45ZM401.9736 317.45L401.9736 308.85626L405.2236 308.85626Q406.06735 308.85626 406.52048 308.9344Q407.1611 309.04376 407.58298 309.34064Q408.02048 309.6375 408.27048 310.16876Q408.5361 310.7 408.5361 311.34064Q408.5361 312.4344 407.83298 313.2Q407.14548 313.95 405.31735 313.95L403.11423 313.95L403.11423 317.45L401.9736 317.45ZM403.11423 312.95L405.33298 312.95Q406.44235 312.95 406.89548 312.54376Q407.36423 312.1219 407.36423 311.3719Q407.36423 310.84064 407.08298 310.46564Q406.81735 310.075 406.37985 309.95Q406.08298 309.8719 405.31735 309.8719L403.11423 309.8719L403.11423 312.95ZM410.17673 317.45L410.17673 308.85626L411.30173 308.85626L411.30173 317.45L410.17673 317.45Z" fill-rule="nonzero"/><path fill="#242f26" d="M492.62393 317.45L492.62393 308.85626L493.74893 308.85626L493.74893 312.3875L498.21768 312.3875L498.21768 308.85626L499.3583 308.85626L499.3583 317.45L498.21768 317.45L498.21768 313.40314L493.74893 313.40314L493.74893 317.45L492.62393 317.45ZM501.40518 319.84064L501.28018 318.85626Q501.62393 318.95 501.88956 318.95Q502.2333 318.95 502.43643 318.825Q502.65518 318.71564 502.7958 318.5125Q502.88956 318.34064 503.12393 317.71564Q503.13956 317.6375 503.21768 317.46564L500.84268 311.23126L501.9833 311.23126L503.28018 314.825Q503.53018 315.5125 503.7333 316.27814Q503.9208 315.54376 504.1708 314.85626L505.49893 311.23126L506.5458 311.23126L504.18643 317.5594Q503.7958 318.575 503.59268 318.96564Q503.31143 319.4969 502.93643 319.73126Q502.57706 319.98126 502.07706 319.98126Q501.78018 319.98126 501.40518 319.84064ZM507.4208 317.45L506.43643 317.45L506.43643 308.85626L507.49893 308.85626L507.49893 311.91876Q508.1708 311.09064 509.20206 311.09064Q509.78018 311.09064 510.28018 311.325Q510.7958 311.54376 511.12393 311.96564Q511.46768 312.3875 511.65518 312.98126Q511.84268 313.575 511.84268 314.2469Q511.84268 315.84064 511.0458 316.71564Q510.24893 317.59064 509.15518 317.59064Q508.0458 317.59064 507.4208 316.66876L507.4208 317.45ZM507.40518 314.29376Q507.40518 315.40314 507.71768 315.90314Q508.21768 316.71564 509.06143 316.71564Q509.74893 316.71564 510.24893 316.1219Q510.76456 315.52814 510.76456 314.325Q510.76456 313.10626 510.28018 312.52814Q509.7958 311.95 509.1083 311.95Q508.4208 311.95 507.90518 312.5594Q507.40518 313.15314 507.40518 314.29376ZM513.4364 317.45L513.4364 311.23126L514.3895 311.23126L514.3895 312.16876Q514.7489 311.5125 515.0458 311.3094Q515.3583 311.09064 515.7333 311.09064Q516.2645 311.09064 516.8114 311.41876L516.452 312.40314Q516.0614 312.16876 515.6864 312.16876Q515.327 312.16876 515.0458 312.3875Q514.78015 312.59064 514.6708 312.96564Q514.4833 313.52814 514.4833 314.1844L514.4833 317.45L513.4364 317.45ZM517.452 310.075L517.452 308.85626L518.5145 308.85626L518.5145 310.075L517.452 310.075ZM517.452 317.45L517.452 311.23126L518.5145 311.23126L518.5145 317.45L517.452 317.45ZM524.4833 317.45L524.4833 316.66876Q523.8895 317.59064 522.7489 317.59064Q521.9989 317.59064 521.3739 317.1844Q520.7489 316.7625 520.40515 316.02814Q520.0614 315.29376 520.0614 314.34064Q520.0614 313.41876 520.3739 312.65314Q520.6864 311.8875 521.3114 311.4969Q521.9364 311.09064 522.702 311.09064Q523.2645 311.09064 523.702 311.325Q524.1395 311.5594 524.4208 311.9344L524.4208 308.85626L525.46765 308.85626L525.46765 317.45L524.4833 317.45ZM521.15515 314.34064Q521.15515 315.54376 521.65515 316.1375Q522.15515 316.71564 522.84265 316.71564Q523.53015 316.71564 524.0145 316.15314Q524.4989 315.59064 524.4989 314.4344Q524.4989 313.15314 523.9989 312.5594Q523.5145 311.96564 522.7958 311.96564Q522.09265 311.96564 521.6239 312.54376Q521.15515 313.10626 521.15515 314.34064Z" fill-rule="nonzero"/><path fill="#a7aca8" d="M279.64062 53.034374L281.65625 53.034374L281.65625 59.378124Q281.65625 60.6125 281.4375 61.284374Q281.14062 62.159374 280.35938 62.690624Q279.59375 63.221874 278.32812 63.221874Q276.84375 63.221874 276.04688 62.39375Q275.25 61.565624 275.23438 59.95625L277.14062 59.7375Q277.1875 60.596874 277.40625 60.95625Q277.73438 61.4875 278.39062 61.4875Q279.07812 61.4875 279.35938 61.1125Q279.64062 60.721874 279.64062 59.503124L279.64062 53.034374ZM283.5625 59.315624Q283.5625 58.3625 284.03125 57.471874Q284.5 56.565624 285.35938 56.096874Q286.23438 55.628124 287.29688 55.628124Q288.95312 55.628124 290.0 56.70625Q291.04688 57.76875 291.04688 59.39375Q291.04688 61.05 289.98438 62.14375Q288.92188 63.221874 287.3125 63.221874Q286.3125 63.221874 285.40625 62.76875Q284.5 62.315624 284.03125 61.440624Q283.5625 60.565624 283.5625 59.315624ZM285.53125 59.425Q285.53125 60.503124 286.04688 61.08125Q286.5625 61.64375 287.3125 61.64375Q288.0625 61.64375 288.5625 61.08125Q289.07812 60.503124 289.07812 59.409374Q289.07812 58.346874 288.5625 57.76875Q288.0625 57.190624 287.3125 57.190624Q286.5625 57.190624 286.04688 57.76875Q285.53125 58.346874 285.53125 59.425ZM292.92188 63.05L292.92188 53.034374L294.84375 53.034374L294.84375 56.64375Q295.73438 55.628124 296.95312 55.628124Q298.28125 55.628124 299.14062 56.596874Q300.01562 57.55 300.01562 59.346874Q300.01562 61.20625 299.125 62.221874Q298.23438 63.221874 296.98438 63.221874Q296.35938 63.221874 295.75 62.909374Q295.14062 62.596874 294.70312 61.9875L294.70312 63.05L292.92188 63.05ZM294.82812 59.26875Q294.82812 60.39375 295.1875 60.925Q295.6875 61.690624 296.51562 61.690624Q297.14062 61.690624 297.59375 61.159374Q298.04688 60.6125 298.04688 59.440624Q298.04688 58.190624 297.59375 57.64375Q297.14062 57.096874 296.4375 57.096874Q295.75 57.096874 295.28125 57.64375Q294.82812 58.175 294.82812 59.26875ZM304.84375 52.9875Q306.29688 52.9875 307.125 54.01875Q308.09375 55.253124 308.09375 58.1125Q308.09375 60.95625 307.10938 62.190624Q306.29688 63.221874 304.84375 63.221874Q303.375 63.221874 302.48438 62.096874Q301.59375 60.971874 301.59375 58.08125Q301.59375 55.253124 302.57812 54.01875Q303.39062 52.9875 304.84375 52.9875ZM304.84375 54.58125Q304.5 54.58125 304.21875 54.8Q303.95312 55.01875 303.79688 55.596874Q303.59375 56.346874 303.59375 58.1125Q303.59375 59.878124 303.76562 60.534374Q303.95312 61.190624 304.21875 61.409374Q304.5 61.628124 304.84375 61.628124Q305.1875 61.628124 305.45312 61.409374Q305.73438 61.190624 305.89062 60.6125Q306.09375 59.878124 306.09375 58.1125Q306.09375 56.346874 305.90625 55.690624Q305.73438 55.01875 305.45312 54.8Q305.1875 54.58125 304.84375 54.58125ZM316.07812 61.26875L316.07812 63.05L309.34375 63.05Q309.45312 62.034374 310.0 61.128124Q310.54688 60.221874 312.17188 58.721874Q313.46875 57.51875 313.76562 57.08125Q314.15625 56.4875 314.15625 55.909374Q314.15625 55.26875 313.8125 54.925Q313.46875 54.58125 312.85938 54.58125Q312.25 54.58125 311.89062 54.940624Q311.54688 55.3 311.48438 56.14375L309.57812 55.95625Q309.75 54.3625 310.64062 53.675Q311.54688 52.9875 312.90625 52.9875Q314.39062 52.9875 315.23438 53.784374Q316.07812 54.58125 316.07812 55.76875Q316.07812 56.45625 315.82812 57.065624Q315.59375 57.675 315.07812 58.346874Q314.71875 58.784374 313.8125 59.628124Q312.90625 60.45625 312.65625 60.7375Q312.42188 61.003124 312.26562 61.26875L316.07812 61.26875ZM320.84375 52.9875Q322.29688 52.9875 323.125 54.01875Q324.09375 55.253124 324.09375 58.1125Q324.09375 60.95625 323.10938 62.190624Q322.29688 63.221874 320.84375 63.221874Q319.375 63.221874 318.48438 62.096874Q317.59375 60.971874 317.59375 58.08125Q317.59375 55.253124 318.57812 54.01875Q319.39062 52.9875 320.84375 52.9875ZM320.84375 54.58125Q320.5 54.58125 320.21875 54.8Q319.95312 55.01875 319.79688 55.596874Q319.59375 56.346874 319.59375 58.1125Q319.59375 59.878124 319.76562 60.534374Q319.95312 61.190624 320.21875 61.409374Q320.5 61.628124 320.84375 61.628124Q321.1875 61.628124 321.45312 61.409374Q321.73438 61.190624 321.89062 60.6125Q322.09375 59.878124 322.09375 58.1125Q322.09375 56.346874 321.90625 55.690624Q321.73438 55.01875 321.45312 54.8Q321.1875 54.58125 320.84375 54.58125Z" fill-rule="nonzero"/><path fill="#898f8a" d="M201.67188 37.55L201.67188 25.659374L197.4375 25.659374L197.4375 23.2375L208.8125 23.2375L208.8125 25.659374L204.5625 25.659374L204.5625 37.55L201.67188 37.55ZM211.4375 25.76875L211.4375 23.2375L214.1875 23.2375L214.1875 25.76875L211.4375 25.76875ZM211.4375 37.55L211.4375 27.175L214.1875 27.175L214.1875 37.55L211.4375 37.55ZM222.4375 34.253124L225.17188 34.70625Q224.65625 36.20625 223.51562 37.003124Q222.375 37.784374 220.67188 37.784374Q217.95312 37.784374 216.65625 36.01875Q215.64062 34.596874 215.64062 32.440624Q215.64062 29.8625 216.98438 28.409374Q218.32812 26.940624 220.39062 26.940624Q222.70312 26.940624 224.03125 28.471874Q225.375 30.003124 225.32812 33.159374L218.45312 33.159374Q218.48438 34.378124 219.10938 35.065624Q219.75 35.7375 220.6875 35.7375Q221.34375 35.7375 221.78125 35.39375Q222.21875 35.034374 222.4375 34.253124ZM222.59375 31.471874Q222.5625 30.284374 221.96875 29.675Q221.39062 29.05 220.5625 29.05Q219.65625 29.05 219.07812 29.690624Q218.48438 30.346874 218.5 31.471874L222.59375 31.471874ZM227.23438 27.175L229.76562 27.175L229.76562 28.596874Q231.125 26.940624 233.0 26.940624Q233.98438 26.940624 234.71875 27.3625Q235.45312 27.76875 235.92188 28.596874Q236.60938 27.76875 237.39062 27.3625Q238.1875 26.940624 239.09375 26.940624Q240.23438 26.940624 241.01562 27.409374Q241.8125 27.878124 242.20312 28.76875Q242.48438 29.440624 242.48438 30.925L242.48438 37.55L239.73438 37.55L239.73438 31.628124Q239.73438 30.08125 239.45312 29.628124Q239.07812 29.05 238.28125 29.05Q237.70312 29.05 237.1875 29.409374Q236.6875 29.753124 236.46875 30.425Q236.25 31.096874 236.25 32.565624L236.25 37.55L233.5 37.55L233.5 31.8625Q233.5 30.346874 233.34375 29.909374Q233.20312 29.471874 232.89062 29.26875Q232.59375 29.05 232.0625 29.05Q231.4375 29.05 230.92188 29.39375Q230.42188 29.721874 230.1875 30.378124Q229.96875 31.01875 229.96875 32.503124L229.96875 37.55L227.23438 37.55L227.23438 27.175ZM244.35938 27.175L246.92188 27.175L246.92188 28.70625Q247.42188 27.925 248.26562 27.440624Q249.10938 26.940624 250.15625 26.940624Q251.95312 26.940624 253.20312 28.3625Q254.46875 29.76875 254.46875 32.3Q254.46875 34.909374 253.20312 36.346874Q251.9375 37.784374 250.125 37.784374Q249.26562 37.784374 248.5625 37.440624Q247.875 37.096874 247.10938 36.26875L247.10938 41.503124L244.35938 41.503124L244.35938 27.175ZM247.07812 32.190624Q247.07812 33.940624 247.76562 34.784374Q248.45312 35.6125 249.45312 35.6125Q250.40625 35.6125 251.04688 34.846874Q251.6875 34.065624 251.6875 32.33125Q251.6875 30.690624 251.03125 29.909374Q250.375 29.1125 249.40625 29.1125Q248.40625 29.1125 247.73438 29.89375Q247.07812 30.659374 247.07812 32.190624ZM255.79688 32.221874Q255.79688 30.846874 256.46875 29.565624Q257.15625 28.284374 258.39062 27.6125Q259.625 26.940624 261.14062 26.940624Q263.5 26.940624 265.0 28.471874Q266.5 30.003124 266.5 32.33125Q266.5 34.690624 264.98438 36.2375Q263.46875 37.784374 261.15625 37.784374Q259.73438 37.784374 258.4375 37.14375Q257.15625 36.4875 256.46875 35.253124Q255.79688 34.003124 255.79688 32.221874ZM258.60938 32.3625Q258.60938 33.909374 259.34375 34.7375Q260.07812 35.55 261.15625 35.55Q262.23438 35.55 262.95312 34.7375Q263.6875 33.909374 263.6875 32.346874Q263.6875 30.815624 262.95312 30.003124Q262.23438 29.175 261.15625 29.175Q260.07812 29.175 259.34375 30.003124Q258.60938 30.815624 258.60938 32.3625ZM267.46875 34.596874L270.21875 34.175Q270.40625 34.971874 270.9375 35.39375Q271.46875 35.8 272.4375 35.8Q273.5 35.8 274.04688 35.409374Q274.40625 35.14375 274.40625 34.675Q274.40625 34.3625 274.20312 34.159374Q274.0 33.971874 273.29688 33.8Q269.96875 33.065624 269.07812 32.45625Q267.84375 31.628124 267.84375 30.128124Q267.84375 28.784374 268.90625 27.8625Q269.98438 26.940624 272.21875 26.940624Q274.34375 26.940624 275.375 27.64375Q276.42188 28.33125 276.8125 29.690624L274.21875 30.159374Q274.04688 29.565624 273.57812 29.2375Q273.125 28.909374 272.26562 28.909374Q271.1875 28.909374 270.71875 29.221874Q270.40625 29.440624 270.40625 29.76875Q270.40625 30.065624 270.67188 30.26875Q271.04688 30.55 273.23438 31.05Q275.42188 31.55 276.29688 32.26875Q277.15625 33.003124 277.15625 34.3Q277.15625 35.7375 275.96875 36.76875Q274.78125 37.784374 272.4375 37.784374Q270.32812 37.784374 269.07812 36.925Q267.84375 36.065624 267.46875 34.596874ZM294.95312 37.55L292.40625 37.55L292.40625 36.01875Q291.76562 36.909374 290.89062 37.346874Q290.03125 37.784374 289.15625 37.784374Q287.375 37.784374 286.09375 36.346874Q284.82812 34.909374 284.82812 32.33125Q284.82812 29.690624 286.0625 28.315624Q287.29688 26.940624 289.20312 26.940624Q290.9375 26.940624 292.20312 28.39375L292.20312 23.2375L294.95312 23.2375L294.95312 37.55ZM287.625 32.14375Q287.625 33.8 288.07812 34.534374Q288.75 35.6125 289.9375 35.6125Q290.89062 35.6125 291.54688 34.815624Q292.21875 34.003124 292.21875 32.409374Q292.21875 30.6125 291.5625 29.83125Q290.92188 29.05 289.92188 29.05Q288.9375 29.05 288.28125 29.83125Q287.625 30.596874 287.625 32.14375ZM303.4375 34.253124L306.17188 34.70625Q305.65625 36.20625 304.51562 37.003124Q303.375 37.784374 301.67188 37.784374Q298.95312 37.784374 297.65625 36.01875Q296.64062 34.596874 296.64062 32.440624Q296.64062 29.8625 297.98438 28.409374Q299.32812 26.940624 301.39062 26.940624Q303.70312 26.940624 305.03125 28.471874Q306.375 30.003124 306.32812 33.159374L299.45312 33.159374Q299.48438 34.378124 300.10938 35.065624Q300.75 35.7375 301.6875 35.7375Q302.34375 35.7375 302.78125 35.39375Q303.21875 35.034374 303.4375 34.253124ZM303.59375 31.471874Q303.5625 30.284374 302.96875 29.675Q302.39062 29.05 301.5625 29.05Q300.65625 29.05 300.07812 29.690624Q299.48438 30.346874 299.5 31.471874L303.59375 31.471874ZM320.4375 34.253124L323.17188 34.70625Q322.65625 36.20625 321.51562 37.003124Q320.375 37.784374 318.67188 37.784374Q315.95312 37.784374 314.65625 36.01875Q313.64062 34.596874 313.64062 32.440624Q313.64062 29.8625 314.98438 28.409374Q316.32812 26.940624 318.39062 26.940624Q320.70312 26.940624 322.03125 28.471874Q323.375 30.003124 323.32812 33.159374L316.45312 33.159374Q316.48438 34.378124 317.10938 35.065624Q317.75 35.7375 318.6875 35.7375Q319.34375 35.7375 319.78125 35.39375Q320.21875 35.034374 320.4375 34.253124ZM320.59375 31.471874Q320.5625 30.284374 319.96875 29.675Q319.39062 29.05 318.5625 29.05Q317.65625 29.05 317.07812 29.690624Q316.48438 30.346874 316.5 31.471874L320.59375 31.471874ZM325.375 25.76875L325.375 23.2375L328.125 23.2375L328.125 25.76875L325.375 25.76875ZM328.125 27.175L328.125 37.221874Q328.125 39.20625 327.85938 40.01875Q327.60938 40.846874 326.85938 41.3Q326.125 41.753124 324.98438 41.753124Q324.57812 41.753124 324.09375 41.675Q323.625 41.6125 323.07812 41.471874L323.5625 39.128124Q323.75 39.159374 323.92188 39.175Q324.09375 39.20625 324.25 39.20625Q324.67188 39.20625 324.9375 39.01875Q325.20312 38.846874 325.28125 38.596874Q325.375 38.346874 325.375 37.065624L325.375 27.175L328.125 27.175ZM336.4375 34.253124L339.17188 34.70625Q338.65625 36.20625 337.51562 37.003124Q336.375 37.784374 334.67188 37.784374Q331.95312 37.784374 330.65625 36.01875Q329.64062 34.596874 329.64062 32.440624Q329.64062 29.8625 330.98438 28.409374Q332.32812 26.940624 334.39062 26.940624Q336.70312 26.940624 338.03125 28.471874Q339.375 30.003124 339.32812 33.159374L332.45312 33.159374Q332.48438 34.378124 333.10938 35.065624Q333.75 35.7375 334.6875 35.7375Q335.34375 35.7375 335.78125 35.39375Q336.21875 35.034374 336.4375 34.253124ZM336.59375 31.471874Q336.5625 30.284374 335.96875 29.675Q335.39062 29.05 334.5625 29.05Q333.65625 29.05 333.07812 29.690624Q332.48438 30.346874 332.5 31.471874L336.59375 31.471874ZM350.48438 30.2375L347.78125 30.7375Q347.64062 29.925 347.15625 29.51875Q346.67188 29.096874 345.90625 29.096874Q344.875 29.096874 344.26562 29.815624Q343.65625 30.51875 343.65625 32.175Q343.65625 34.01875 344.26562 34.784374Q344.89062 35.55 345.9375 35.55Q346.71875 35.55 347.21875 35.1125Q347.71875 34.659374 347.92188 33.58125L350.60938 34.034374Q350.20312 35.89375 349.0 36.846874Q347.8125 37.784374 345.8125 37.784374Q343.53125 37.784374 342.17188 36.346874Q340.82812 34.909374 340.82812 32.378124Q340.82812 29.8 342.1875 28.378124Q343.54688 26.940624 345.85938 26.940624Q347.75 26.940624 348.85938 27.76875Q349.98438 28.58125 350.48438 30.2375ZM359.26562 37.55L359.26562 36.003124Q358.70312 36.83125 357.76562 37.315624Q356.84375 37.784374 355.82812 37.784374Q354.78125 37.784374 353.95312 37.33125Q353.125 36.8625 352.75 36.034374Q352.375 35.20625 352.375 33.7375L352.375 27.175L355.125 27.175L355.125 31.940624Q355.125 34.128124 355.26562 34.628124Q355.42188 35.1125 355.8125 35.409374Q356.21875 35.690624 356.84375 35.690624Q357.54688 35.690624 358.09375 35.315624Q358.65625 34.925 358.85938 34.3625Q359.0625 33.784374 359.0625 31.55L359.0625 27.175L361.8125 27.175L361.8125 37.55L359.26562 37.55ZM373.48438 30.2375L370.78125 30.7375Q370.64062 29.925 370.15625 29.51875Q369.67188 29.096874 368.90625 29.096874Q367.875 29.096874 367.26562 29.815624Q366.65625 30.51875 366.65625 32.175Q366.65625 34.01875 367.26562 34.784374Q367.89062 35.55 368.9375 35.55Q369.71875 35.55 370.21875 35.1125Q370.71875 34.659374 370.92188 33.58125L373.60938 34.034374Q373.20312 35.89375 372.0 36.846874Q370.8125 37.784374 368.8125 37.784374Q366.53125 37.784374 365.17188 36.346874Q363.82812 34.909374 363.82812 32.378124Q363.82812 29.8 365.1875 28.378124Q366.54688 26.940624 368.85938 26.940624Q370.75 26.940624 371.85938 27.76875Q372.98438 28.58125 373.48438 30.2375ZM375.4375 25.76875L375.4375 23.2375L378.1875 23.2375L378.1875 25.76875L375.4375 25.76875ZM375.4375 37.55L375.4375 27.175L378.1875 27.175L378.1875 37.55L375.4375 37.55ZM379.79688 32.221874Q379.79688 30.846874 380.46875 29.565624Q381.15625 28.284374 382.39062 27.6125Q383.625 26.940624 385.14062 26.940624Q387.5 26.940624 389.0 28.471874Q390.5 30.003124 390.5 32.33125Q390.5 34.690624 388.98438 36.2375Q387.46875 37.784374 385.15625 37.784374Q383.73438 37.784374 382.4375 37.14375Q381.15625 36.4875 380.46875 35.253124Q379.79688 34.003124 379.79688 32.221874ZM382.60938 32.3625Q382.60938 33.909374 383.34375 34.7375Q384.07812 35.55 385.15625 35.55Q386.23438 35.55 386.95312 34.7375Q387.6875 33.909374 387.6875 32.346874Q387.6875 30.815624 386.95312 30.003124Q386.23438 29.175 385.15625 29.175Q384.07812 29.175 383.34375 30.003124Q382.60938 30.815624 382.60938 32.3625ZM383.76562 25.909374L385.10938 22.9875L388.1875 22.9875L385.5 25.909374L383.76562 25.909374ZM401.875 37.55L399.125 37.55L399.125 32.253124Q399.125 30.58125 398.95312 30.096874Q398.78125 29.596874 398.375 29.33125Q397.98438 29.05 397.42188 29.05Q396.71875 29.05 396.14062 29.440624Q395.57812 29.83125 395.35938 30.471874Q395.15625 31.1125 395.15625 32.846874L395.15625 37.55L392.42188 37.55L392.42188 27.175L394.96875 27.175L394.96875 28.70625Q396.32812 26.940624 398.39062 26.940624Q399.29688 26.940624 400.04688 27.26875Q400.79688 27.596874 401.17188 28.1125Q401.5625 28.6125 401.71875 29.26875Q401.875 29.909374 401.875 31.096874L401.875 37.55Z" fill-rule="nonzero"/></svg>